<?xml version="1.0" encoding="UTF-8" standalone="no"?><svg xmlns="http://www.w3.org/2000/svg" xmlns:xlink="http://www.w3.org/1999/xlink" clip-rule="evenodd" stroke-miterlimit="4.00" viewBox="0 0 1024 768"><desc>SVG generated by Keynote</desc><defs></defs><g transform="matrix(1.00, 0.00, -0.00, -1.00, 0.0, 768.0)"><g><clipPath id="clip-34"><path d="M 0.0 768.0 L 1024.0 768.0 L 1024.0 0.0 L 0.0 0.0 Z M 0.0 768.0 "></path></clipPath><g clip-path="url(#clip-34)"><image xlink:href="../../293415CD-D1BA-41BB-8703-BAEDA9FFCE27/assets/D3CB8578D364082F6943B53F933CCC32.jpeg" width="1024.00" height="768.00" transform="matrix(1.00, 0.00, -0.00, -1.00, 0.0, 768.0)"></image></g></g><text xml:space="preserve" font-family="GillSans-Light" font-size="72.0" fill="#525252" transform="matrix(1.00, 0.00, -0.00, -1.00, 85.0, 628.0)">I</text><text xml:space="preserve" font-family="GillSans-Light" font-size="72.0" fill="#525252" transform="matrix(1.00, 0.00, -0.00, -1.00, 100.0, 628.0)">N</text><text xml:space="preserve" font-family="GillSans-Light" font-size="72.0" fill="#525252" transform="matrix(1.00, 0.00, -0.00, -1.00, 155.5, 628.0)">T</text><text xml:space="preserve" font-family="GillSans-Light" font-size="72.0" fill="#525252" transform="matrix(1.00, 0.00, -0.00, -1.00, 196.8, 628.0)">E</text><text xml:space="preserve" font-family="GillSans-Light" font-size="72.0" fill="#525252" transform="matrix(1.00, 0.00, -0.00, -1.00, 232.1, 628.0)">R</text><text xml:space="preserve" font-family="GillSans-Light" font-size="72.0" fill="#525252" transform="matrix(1.00, 0.00, -0.00, -1.00, 271.2, 628.0)">V</text><text xml:space="preserve" font-family="GillSans-Light" font-size="72.0" fill="#525252" transform="matrix(1.00, 0.00, -0.00, -1.00, 309.7, 628.0)">A</text><text xml:space="preserve" font-family="GillSans-Light" font-size="72.0" fill="#525252" transform="matrix(1.00, 0.00, -0.00, -1.00, 357.7, 628.0)">L</text><text xml:space="preserve" font-family="GillSans-Light" font-size="72.0" fill="#525252" transform="matrix(1.00, 0.00, -0.00, -1.00, 391.5, 628.0)"> </text><text xml:space="preserve" font-family="GillSans-Light" font-size="72.0" fill="#525252" transform="matrix(1.00, 0.00, -0.00, -1.00, 411.5, 628.0)">C</text><text xml:space="preserve" font-family="GillSans-Light" font-size="72.0" fill="#525252" transform="matrix(1.00, 0.00, -0.00, -1.00, 460.2, 628.0)">O</text><text xml:space="preserve" font-family="GillSans-Light" font-size="72.0" fill="#525252" transform="matrix(1.00, 0.00, -0.00, -1.00, 519.5, 628.0)">L</text><text xml:space="preserve" font-family="GillSans-Light" font-size="72.0" fill="#525252" transform="matrix(1.00, 0.00, -0.00, -1.00, 553.3, 628.0)">O</text><text xml:space="preserve" font-family="GillSans-Light" font-size="72.0" fill="#525252" transform="matrix(1.00, 0.00, -0.00, -1.00, 612.6, 628.0)">R</text><text xml:space="preserve" font-family="GillSans-Light" font-size="72.0" fill="#525252" transform="matrix(1.00, 0.00, -0.00, -1.00, 653.9, 628.0)"> </text><text xml:space="preserve" font-family="GillSans-Light" font-size="72.0" fill="#525252" transform="matrix(1.00, 0.00, -0.00, -1.00, 673.9, 628.0)">R</text><text xml:space="preserve" font-family="GillSans-Light" font-size="72.0" fill="#525252" transform="matrix(1.00, 0.00, -0.00, -1.00, 715.2, 628.0)">A</text><text xml:space="preserve" font-family="GillSans-Light" font-size="72.0" fill="#525252" transform="matrix(1.00, 0.00, -0.00, -1.00, 763.2, 628.0)">N</text><text xml:space="preserve" font-family="GillSans-Light" font-size="72.0" fill="#525252" transform="matrix(1.00, 0.00, -0.00, -1.00, 818.7, 628.0)">G</text><text xml:space="preserve" font-family="GillSans-Light" font-size="72.0" fill="#525252" transform="matrix(1.00, 0.00, -0.00, -1.00, 870.5, 628.0)">E</text><text xml:space="preserve" font-family="GillSans-Light" font-size="72.0" fill="#525252" transform="matrix(1.00, 0.00, -0.00, -1.00, 905.8, 628.0)">S</text><text xml:space="preserve" font-family="GillSans-Light" font-size="35.8" fill="#525252" transform="matrix(1.00, 0.00, -0.00, -1.00, 32.0, 511.5)">•</text><text xml:space="preserve" font-family="GillSans-Light" font-size="43.7" fill="#525252" transform="matrix(1.00, 0.00, -0.00, -1.00, 71.0, 509.0)">C</text><text xml:space="preserve" font-family="GillSans-Light" font-size="43.7" fill="#525252" transform="matrix(1.00, 0.00, -0.00, -1.00, 100.6, 509.0)">h</text><text xml:space="preserve" font-family="GillSans-Light" font-size="43.7" fill="#525252" transform="matrix(1.00, 0.00, -0.00, -1.00, 122.0, 509.0)">a</text><text xml:space="preserve" font-family="GillSans-Light" font-size="43.7" fill="#525252" transform="matrix(1.00, 0.00, -0.00, -1.00, 140.6, 509.0)">n</text><text xml:space="preserve" font-family="GillSans-Light" font-size="43.7" fill="#525252" transform="matrix(1.00, 0.00, -0.00, -1.00, 162.1, 509.0)">n</text><text xml:space="preserve" font-family="GillSans-Light" font-size="43.7" fill="#525252" transform="matrix(1.00, 0.00, -0.00, -1.00, 183.5, 509.0)">e</text><text xml:space="preserve" font-family="GillSans-Light" font-size="43.7" fill="#525252" transform="matrix(1.00, 0.00, -0.00, -1.00, 204.4, 509.0)">l</text><text xml:space="preserve" font-family="GillSans-Light" font-size="43.7" fill="#525252" transform="matrix(1.00, 0.00, -0.00, -1.00, 212.6, 509.0)"> </text><text xml:space="preserve" font-family="GillSans-Light" font-size="43.7" fill="#525252" transform="matrix(1.00, 0.00, -0.00, -1.00, 224.8, 509.0)">o</text><text xml:space="preserve" font-family="GillSans-Light" font-size="43.7" fill="#525252" transform="matrix(1.00, 0.00, -0.00, -1.00, 248.5, 509.0)">r</text><text xml:space="preserve" font-family="GillSans-Light" font-size="43.7" fill="#525252" transform="matrix(1.00, 0.00, -0.00, -1.00, 263.0, 509.0)">d</text><text xml:space="preserve" font-family="GillSans-Light" font-size="43.7" fill="#525252" transform="matrix(1.00, 0.00, -0.00, -1.00, 285.3, 509.0)">e</text><text xml:space="preserve" font-family="GillSans-Light" font-size="43.7" fill="#525252" transform="matrix(1.00, 0.00, -0.00, -1.00, 306.2, 509.0)">r</text><text xml:space="preserve" font-family="GillSans-Light" font-size="43.7" fill="#525252" transform="matrix(1.00, 0.00, -0.00, -1.00, 324.5, 509.0)">:</text><text xml:space="preserve" font-family="GillSans-Light" font-size="43.7" fill="#525252" transform="matrix(1.00, 0.00, -0.00, -1.00, 328.7, 509.0)"> </text><text xml:space="preserve" font-family="GillSans-Light" font-size="43.7" fill="#525252" transform="matrix(1.00, 0.00, -0.00, -1.00, 338.2, 509.0)">A</text><text xml:space="preserve" font-family="GillSans-Light" font-size="43.7" fill="#525252" transform="matrix(1.00, 0.00, -0.00, -1.00, 367.4, 509.0)">,</text><text xml:space="preserve" font-family="GillSans-Light" font-size="43.7" fill="#525252" transform="matrix(1.00, 0.00, -0.00, -1.00, 371.6, 509.0)"> </text><text xml:space="preserve" font-family="GillSans-Light" font-size="43.7" fill="#525252" transform="matrix(1.00, 0.00, -0.00, -1.00, 377.2, 509.0)">Y</text><text xml:space="preserve" font-family="GillSans-Light" font-size="43.7" fill="#525252" transform="matrix(1.00, 0.00, -0.00, -1.00, 396.5, 509.0)">,</text><text xml:space="preserve" font-family="GillSans-Light" font-size="43.7" fill="#525252" transform="matrix(1.00, 0.00, -0.00, -1.00, 400.7, 509.0)"> </text><text xml:space="preserve" font-family="GillSans-Light" font-size="43.7" fill="#525252" transform="matrix(1.00, 0.00, -0.00, -1.00, 412.9, 509.0)">C</text><text xml:space="preserve" font-family="GillSans-Light" font-size="43.7" fill="#525252" transform="matrix(1.00, 0.00, -0.00, -1.00, 442.4, 509.0)">o</text><text xml:space="preserve" font-family="GillSans-Light" font-size="43.7" fill="#525252" transform="matrix(1.00, 0.00, -0.00, -1.00, 465.2, 509.0)">,</text><text xml:space="preserve" font-family="GillSans-Light" font-size="43.7" fill="#525252" transform="matrix(1.00, 0.00, -0.00, -1.00, 469.5, 509.0)"> </text><text xml:space="preserve" font-family="GillSans-Light" font-size="43.7" fill="#525252" transform="matrix(1.00, 0.00, -0.00, -1.00, 481.6, 509.0)">C</text><text xml:space="preserve" font-family="GillSans-Light" font-size="43.7" fill="#525252" transform="matrix(1.00, 0.00, -0.00, -1.00, 511.2, 509.0)">g</text><text xml:space="preserve" font-family="GillSans-Light" font-size="35.8" fill="#525252" transform="matrix(1.00, 0.00, -0.00, -1.00, 32.0, 409.0)">•</text><text xml:space="preserve" font-family="GillSans-Light" font-size="43.7" fill="#525252" transform="matrix(1.00, 0.00, -0.00, -1.00, 71.0, 407.0)">T</text><text xml:space="preserve" font-family="GillSans-Light" font-size="43.7" fill="#525252" transform="matrix(1.00, 0.00, -0.00, -1.00, 89.9, 407.0)">o</text><text xml:space="preserve" font-family="GillSans-Light" font-size="43.7" fill="#525252" transform="matrix(1.00, 0.00, -0.00, -1.00, 113.6, 407.0)"> </text><text xml:space="preserve" font-family="GillSans-Light" font-size="43.7" fill="#525252" transform="matrix(1.00, 0.00, -0.00, -1.00, 125.8, 407.0)">e</text><text xml:space="preserve" font-family="GillSans-Light" font-size="43.7" fill="#525252" transform="matrix(1.00, 0.00, -0.00, -1.00, 146.7, 407.0)">n</text><text xml:space="preserve" font-family="GillSans-Light" font-size="43.7" fill="#525252" transform="matrix(1.00, 0.00, -0.00, -1.00, 168.1, 407.0)">c</text><text xml:space="preserve" font-family="GillSans-Light" font-size="43.7" fill="#525252" transform="matrix(1.00, 0.00, -0.00, -1.00, 186.3, 407.0)">o</text><text xml:space="preserve" font-family="GillSans-Light" font-size="43.7" fill="#525252" transform="matrix(1.00, 0.00, -0.00, -1.00, 210.0, 407.0)">d</text><text xml:space="preserve" font-family="GillSans-Light" font-size="43.7" fill="#525252" transform="matrix(1.00, 0.00, -0.00, -1.00, 232.3, 407.0)">e</text><text xml:space="preserve" font-family="GillSans-Light" font-size="43.7" fill="#525252" transform="matrix(1.00, 0.00, -0.00, -1.00, 253.2, 407.0)"> </text><text xml:space="preserve" font-family="GillSans-Light" font-size="43.7" fill="#525252" transform="matrix(1.00, 0.00, -0.00, -1.00, 265.4, 407.0)">a</text><text xml:space="preserve" font-family="GillSans-Light" font-size="43.7" fill="#525252" transform="matrix(1.00, 0.00, -0.00, -1.00, 284.0, 407.0)">n</text><text xml:space="preserve" font-family="GillSans-Light" font-size="43.7" fill="#525252" transform="matrix(1.00, 0.00, -0.00, -1.00, 304.8, 407.0)">y</text><text xml:space="preserve" font-family="GillSans-Light" font-size="43.7" fill="#525252" transform="matrix(1.00, 0.00, -0.00, -1.00, 323.0, 407.0)"> </text><text xml:space="preserve" font-family="GillSans-Light" font-size="43.7" fill="#525252" transform="matrix(1.00, 0.00, -0.00, -1.00, 335.1, 407.0)">c</text><text xml:space="preserve" font-family="GillSans-Light" font-size="43.7" fill="#525252" transform="matrix(1.00, 0.00, -0.00, -1.00, 353.4, 407.0)">o</text><text xml:space="preserve" font-family="GillSans-Light" font-size="43.7" fill="#525252" transform="matrix(1.00, 0.00, -0.00, -1.00, 377.0, 407.0)">l</text><text xml:space="preserve" font-family="GillSans-Light" font-size="43.7" fill="#525252" transform="matrix(1.00, 0.00, -0.00, -1.00, 385.3, 407.0)">o</text><text xml:space="preserve" font-family="GillSans-Light" font-size="43.7" fill="#525252" transform="matrix(1.00, 0.00, -0.00, -1.00, 408.9, 407.0)">r</text><text xml:space="preserve" font-family="GillSans-Light" font-size="43.7" fill="#525252" transform="matrix(1.00, 0.00, -0.00, -1.00, 423.5, 407.0)"> </text><text xml:space="preserve" font-family="GillSans-Light" font-size="43.7" fill="#525252" transform="matrix(1.00, 0.00, -0.00, -1.00, 435.6, 407.0)">v</text><text xml:space="preserve" font-family="GillSans-Light" font-size="43.7" fill="#525252" transform="matrix(1.00, 0.00, -0.00, -1.00, 454.3, 407.0)">a</text><text xml:space="preserve" font-family="GillSans-Light" font-size="43.7" fill="#525252" transform="matrix(1.00, 0.00, -0.00, -1.00, 472.9, 407.0)">l</text><text xml:space="preserve" font-family="GillSans-Light" font-size="43.7" fill="#525252" transform="matrix(1.00, 0.00, -0.00, -1.00, 481.1, 407.0)">u</text><text xml:space="preserve" font-family="GillSans-Light" font-size="43.7" fill="#525252" transform="matrix(1.00, 0.00, -0.00, -1.00, 502.5, 407.0)">e</text><text xml:space="preserve" font-family="GillSans-Light" font-size="43.7" fill="#525252" transform="matrix(1.00, 0.00, -0.00, -1.00, 524.8, 407.0)">,</text><text xml:space="preserve" font-family="GillSans-Light" font-size="43.7" fill="#525252" transform="matrix(1.00, 0.00, -0.00, -1.00, 529.0, 407.0)"> </text><text xml:space="preserve" font-family="GillSans-Light" font-size="43.7" fill="#525252" transform="matrix(1.00, 0.00, -0.00, -1.00, 541.1, 407.0)">ﬁ</text><text xml:space="preserve" font-family="GillSans-Light" font-size="43.7" fill="#525252" transform="matrix(1.00, 0.00, -0.00, -1.00, 562.1, 407.0)">r</text><text xml:space="preserve" font-family="GillSans-Light" font-size="43.7" fill="#525252" transform="matrix(1.00, 0.00, -0.00, -1.00, 578.4, 407.0)">s</text><text xml:space="preserve" font-family="GillSans-Light" font-size="43.7" fill="#525252" transform="matrix(1.00, 0.00, -0.00, -1.00, 593.8, 407.0)">t</text><text xml:space="preserve" font-family="GillSans-Light" font-size="43.7" fill="#525252" transform="matrix(1.00, 0.00, -0.00, -1.00, 607.0, 407.0)"> </text><text xml:space="preserve" font-family="GillSans-Light" font-size="43.7" fill="#525252" transform="matrix(1.00, 0.00, -0.00, -1.00, 619.1, 407.0)">c</text><text xml:space="preserve" font-family="GillSans-Light" font-size="43.7" fill="#525252" transform="matrix(1.00, 0.00, -0.00, -1.00, 637.4, 407.0)">o</text><text xml:space="preserve" font-family="GillSans-Light" font-size="43.7" fill="#525252" transform="matrix(1.00, 0.00, -0.00, -1.00, 661.1, 407.0)">m</text><text xml:space="preserve" font-family="GillSans-Light" font-size="43.7" fill="#525252" transform="matrix(1.00, 0.00, -0.00, -1.00, 694.7, 407.0)">p</text><text xml:space="preserve" font-family="GillSans-Light" font-size="43.7" fill="#525252" transform="matrix(1.00, 0.00, -0.00, -1.00, 717.0, 407.0)">u</text><text xml:space="preserve" font-family="GillSans-Light" font-size="43.7" fill="#525252" transform="matrix(1.00, 0.00, -0.00, -1.00, 738.4, 407.0)">t</text><text xml:space="preserve" font-family="GillSans-Light" font-size="43.7" fill="#525252" transform="matrix(1.00, 0.00, -0.00, -1.00, 751.6, 407.0)">e</text><text xml:space="preserve" font-family="GillSans-Light" font-size="43.7" fill="#525252" transform="matrix(1.00, 0.00, -0.00, -1.00, 772.6, 407.0)"> </text><text xml:space="preserve" font-family="GillSans-Light" font-size="43.7" fill="#525252" transform="matrix(1.00, 0.00, -0.00, -1.00, 784.7, 407.0)">t</text><text xml:space="preserve" font-family="GillSans-Light" font-size="43.7" fill="#525252" transform="matrix(1.00, 0.00, -0.00, -1.00, 797.9, 407.0)">h</text><text xml:space="preserve" font-family="GillSans-Light" font-size="43.7" fill="#525252" transform="matrix(1.00, 0.00, -0.00, -1.00, 819.3, 407.0)">e</text><text xml:space="preserve" font-family="GillSans-Light" font-size="43.7" fill="#525252" transform="matrix(1.00, 0.00, -0.00, -1.00, 840.2, 407.0)"> </text><text xml:space="preserve" font-family="GillSans-Light" font-size="43.7" fill="#525252" transform="matrix(1.00, 0.00, -0.00, -1.00, 852.4, 407.0)">i</text><text xml:space="preserve" font-family="GillSans-Light" font-size="43.7" fill="#525252" transform="matrix(1.00, 0.00, -0.00, -1.00, 860.6, 407.0)">n</text><text xml:space="preserve" font-family="GillSans-Light" font-size="43.7" fill="#525252" transform="matrix(1.00, 0.00, -0.00, -1.00, 882.0, 407.0)">t</text><text xml:space="preserve" font-family="GillSans-Light" font-size="43.7" fill="#525252" transform="matrix(1.00, 0.00, -0.00, -1.00, 895.2, 407.0)">e</text><text xml:space="preserve" font-family="GillSans-Light" font-size="43.7" fill="#525252" transform="matrix(1.00, 0.00, -0.00, -1.00, 916.1, 407.0)">r</text><text xml:space="preserve" font-family="GillSans-Light" font-size="43.7" fill="#525252" transform="matrix(1.00, 0.00, -0.00, -1.00, 933.7, 407.0)">v</text><text xml:space="preserve" font-family="GillSans-Light" font-size="43.7" fill="#525252" transform="matrix(1.00, 0.00, -0.00, -1.00, 952.4, 407.0)">a</text><text xml:space="preserve" font-family="GillSans-Light" font-size="43.7" fill="#525252" transform="matrix(1.00, 0.00, -0.00, -1.00, 971.0, 407.0)">l</text><text xml:space="preserve" font-family="GillSans-Light" font-size="43.7" fill="#525252" transform="matrix(1.00, 0.00, -0.00, -1.00, 979.2, 407.0)"> </text><text xml:space="preserve" font-family="GillSans-Light" font-size="43.7" fill="#525252" transform="matrix(1.00, 0.00, -0.00, -1.00, 71.0, 348.0)">o</text><text xml:space="preserve" font-family="GillSans-Light" font-size="43.7" fill="#525252" transform="matrix(1.00, 0.00, -0.00, -1.00, 94.7, 348.0)">f</text><text xml:space="preserve" font-family="GillSans-Light" font-size="43.7" fill="#525252" transform="matrix(1.00, 0.00, -0.00, -1.00, 105.2, 348.0)"> </text><text xml:space="preserve" font-family="GillSans-Light" font-size="43.7" fill="#525252" transform="matrix(1.00, 0.00, -0.00, -1.00, 113.0, 348.0)">‘</text><text xml:space="preserve" font-family="GillSans-Light" font-size="43.7" fill="#525252" transform="matrix(1.00, 0.00, -0.00, -1.00, 120.7, 348.0)">v</text><text xml:space="preserve" font-family="GillSans-Light" font-size="43.7" fill="#525252" transform="matrix(1.00, 0.00, -0.00, -1.00, 139.3, 348.0)">a</text><text xml:space="preserve" font-family="GillSans-Light" font-size="43.7" fill="#525252" transform="matrix(1.00, 0.00, -0.00, -1.00, 157.9, 348.0)">l</text><text xml:space="preserve" font-family="GillSans-Light" font-size="43.7" fill="#525252" transform="matrix(1.00, 0.00, -0.00, -1.00, 166.2, 348.0)">i</text><text xml:space="preserve" font-family="GillSans-Light" font-size="43.7" fill="#525252" transform="matrix(1.00, 0.00, -0.00, -1.00, 174.4, 348.0)">d</text><text xml:space="preserve" font-family="GillSans-Light" font-size="43.7" fill="#525252" transform="matrix(1.00, 0.00, -0.00, -1.00, 196.6, 348.0)">’</text><text xml:space="preserve" font-family="GillSans-Light" font-size="43.7" fill="#525252" transform="matrix(1.00, 0.00, -0.00, -1.00, 200.9, 348.0)"> </text><text xml:space="preserve" font-family="GillSans-Light" font-size="43.7" fill="#525252" transform="matrix(1.00, 0.00, -0.00, -1.00, 213.0, 348.0)">v</text><text xml:space="preserve" font-family="GillSans-Light" font-size="43.7" fill="#525252" transform="matrix(1.00, 0.00, -0.00, -1.00, 231.6, 348.0)">a</text><text xml:space="preserve" font-family="GillSans-Light" font-size="43.7" fill="#525252" transform="matrix(1.00, 0.00, -0.00, -1.00, 250.3, 348.0)">l</text><text xml:space="preserve" font-family="GillSans-Light" font-size="43.7" fill="#525252" transform="matrix(1.00, 0.00, -0.00, -1.00, 258.5, 348.0)">u</text><text xml:space="preserve" font-family="GillSans-Light" font-size="43.7" fill="#525252" transform="matrix(1.00, 0.00, -0.00, -1.00, 279.9, 348.0)">e</text><text xml:space="preserve" font-family="GillSans-Light" font-size="43.7" fill="#525252" transform="matrix(1.00, 0.00, -0.00, -1.00, 300.9, 348.0)">s</text><text xml:space="preserve" font-family="GillSans-Light" font-size="43.7" fill="#525252" transform="matrix(1.00, 0.00, -0.00, -1.00, 316.3, 348.0)"> </text><text xml:space="preserve" font-family="GillSans-Light" font-size="43.7" fill="#525252" transform="matrix(1.00, 0.00, -0.00, -1.00, 328.5, 348.0)">b</text><text xml:space="preserve" font-family="GillSans-Light" font-size="43.7" fill="#525252" transform="matrix(1.00, 0.00, -0.00, -1.00, 350.7, 348.0)">a</text><text xml:space="preserve" font-family="GillSans-Light" font-size="43.7" fill="#525252" transform="matrix(1.00, 0.00, -0.00, -1.00, 369.4, 348.0)">s</text><text xml:space="preserve" font-family="GillSans-Light" font-size="43.7" fill="#525252" transform="matrix(1.00, 0.00, -0.00, -1.00, 384.8, 348.0)">e</text><text xml:space="preserve" font-family="GillSans-Light" font-size="43.7" fill="#525252" transform="matrix(1.00, 0.00, -0.00, -1.00, 405.8, 348.0)">d</text><text xml:space="preserve" font-family="GillSans-Light" font-size="43.7" fill="#525252" transform="matrix(1.00, 0.00, -0.00, -1.00, 428.0, 348.0)"> </text><text xml:space="preserve" font-family="GillSans-Light" font-size="43.7" fill="#525252" transform="matrix(1.00, 0.00, -0.00, -1.00, 440.2, 348.0)">o</text><text xml:space="preserve" font-family="GillSans-Light" font-size="43.7" fill="#525252" transform="matrix(1.00, 0.00, -0.00, -1.00, 463.9, 348.0)">n</text><text xml:space="preserve" font-family="GillSans-Light" font-size="43.7" fill="#525252" transform="matrix(1.00, 0.00, -0.00, -1.00, 485.3, 348.0)"> </text><text xml:space="preserve" font-family="GillSans-Light" font-size="43.7" fill="#525252" transform="matrix(1.00, 0.00, -0.00, -1.00, 497.4, 348.0)">k</text><text xml:space="preserve" font-family="GillSans-Light" font-size="43.7" fill="#525252" transform="matrix(1.00, 0.00, -0.00, -1.00, 516.1, 348.0)">n</text><text xml:space="preserve" font-family="GillSans-Light" font-size="43.7" fill="#525252" transform="matrix(1.00, 0.00, -0.00, -1.00, 537.5, 348.0)">o</text><text xml:space="preserve" font-family="GillSans-Light" font-size="43.7" fill="#525252" transform="matrix(1.00, 0.00, -0.00, -1.00, 560.5, 348.0)">w</text><text xml:space="preserve" font-family="GillSans-Light" font-size="43.7" fill="#525252" transform="matrix(1.00, 0.00, -0.00, -1.00, 591.5, 348.0)">n</text><text xml:space="preserve" font-family="GillSans-Light" font-size="43.7" fill="#525252" transform="matrix(1.00, 0.00, -0.00, -1.00, 612.9, 348.0)"> </text><text xml:space="preserve" font-family="GillSans-Light" font-size="43.7" fill="#525252" transform="matrix(1.00, 0.00, -0.00, -1.00, 625.0, 348.0)">c</text><text xml:space="preserve" font-family="GillSans-Light" font-size="43.7" fill="#525252" transform="matrix(1.00, 0.00, -0.00, -1.00, 643.2, 348.0)">o</text><text xml:space="preserve" font-family="GillSans-Light" font-size="43.7" fill="#525252" transform="matrix(1.00, 0.00, -0.00, -1.00, 666.9, 348.0)">n</text><text xml:space="preserve" font-family="GillSans-Light" font-size="43.7" fill="#525252" transform="matrix(1.00, 0.00, -0.00, -1.00, 688.4, 348.0)">s</text><text xml:space="preserve" font-family="GillSans-Light" font-size="43.7" fill="#525252" transform="matrix(1.00, 0.00, -0.00, -1.00, 703.8, 348.0)">t</text><text xml:space="preserve" font-family="GillSans-Light" font-size="43.7" fill="#525252" transform="matrix(1.00, 0.00, -0.00, -1.00, 717.0, 348.0)">r</text><text xml:space="preserve" font-family="GillSans-Light" font-size="43.7" fill="#525252" transform="matrix(1.00, 0.00, -0.00, -1.00, 732.6, 348.0)">a</text><text xml:space="preserve" font-family="GillSans-Light" font-size="43.7" fill="#525252" transform="matrix(1.00, 0.00, -0.00, -1.00, 751.3, 348.0)">i</text><text xml:space="preserve" font-family="GillSans-Light" font-size="43.7" fill="#525252" transform="matrix(1.00, 0.00, -0.00, -1.00, 759.5, 348.0)">n</text><text xml:space="preserve" font-family="GillSans-Light" font-size="43.7" fill="#525252" transform="matrix(1.00, 0.00, -0.00, -1.00, 780.9, 348.0)">t</text><text xml:space="preserve" font-family="GillSans-Light" font-size="43.7" fill="#525252" transform="matrix(1.00, 0.00, -0.00, -1.00, 794.1, 348.0)">s</text><text xml:space="preserve" font-family="GillSans-Light" font-size="35.8" fill="#525252" transform="matrix(1.00, 0.00, -0.00, -1.00, 32.0, 244.6)">•</text><text xml:space="preserve" font-family="GillSans-Light" font-size="43.7" fill="#525252" transform="matrix(1.00, 0.00, -0.00, -1.00, 71.0, 240.0)">E</text><text xml:space="preserve" font-family="GillSans-Light" font-size="43.7" fill="#525252" transform="matrix(1.00, 0.00, -0.00, -1.00, 92.4, 240.0)">.</text><text xml:space="preserve" font-family="GillSans-Light" font-size="43.7" fill="#525252" transform="matrix(1.00, 0.00, -0.00, -1.00, 100.1, 240.0)">g</text><text xml:space="preserve" font-family="GillSans-Light" font-size="43.7" fill="#525252" transform="matrix(1.00, 0.00, -0.00, -1.00, 118.8, 240.0)">.</text><text xml:space="preserve" font-family="GillSans-Light" font-size="43.7" fill="#525252" transform="matrix(1.00, 0.00, -0.00, -1.00, 123.0, 240.0)"> </text><text xml:space="preserve" font-family="GillSans-Light" font-size="43.7" fill="#525252" transform="matrix(1.00, 0.00, -0.00, -1.00, 135.1, 240.0)">i</text><text xml:space="preserve" font-family="GillSans-Light" font-size="43.7" fill="#525252" transform="matrix(1.00, 0.00, -0.00, -1.00, 143.4, 240.0)">f</text><text xml:space="preserve" font-family="GillSans-Light" font-size="43.7" fill="#525252" transform="matrix(1.00, 0.00, -0.00, -1.00, 153.9, 240.0)"> </text><text xml:space="preserve" font-family="Monaco" font-size="43.7" fill="#525252" transform="matrix(1.00, 0.00, -0.00, -1.00, 166.0, 240.0)">Y</text><text xml:space="preserve" font-family="Monaco" font-size="43.7" fill="#525252" transform="matrix(1.00, 0.00, -0.00, -1.00, 192.2, 240.0)">=</text><text xml:space="preserve" font-family="Monaco" font-size="43.7" fill="#525252" transform="matrix(1.00, 0.00, -0.00, -1.00, 218.5, 240.0)">0</text><text xml:space="preserve" font-family="GillSans-Light" font-size="43.7" fill="#525252" transform="matrix(1.00, 0.00, -0.00, -1.00, 244.7, 240.0)">,</text><text xml:space="preserve" font-family="GillSans-Light" font-size="43.7" fill="#525252" transform="matrix(1.00, 0.00, -0.00, -1.00, 248.9, 240.0)"> </text><text xml:space="preserve" font-family="GillSans-Light" font-size="43.7" fill="#525252" transform="matrix(1.00, 0.00, -0.00, -1.00, 261.0, 240.0)">t</text><text xml:space="preserve" font-family="GillSans-Light" font-size="43.7" fill="#525252" transform="matrix(1.00, 0.00, -0.00, -1.00, 274.2, 240.0)">h</text><text xml:space="preserve" font-family="GillSans-Light" font-size="43.7" fill="#525252" transform="matrix(1.00, 0.00, -0.00, -1.00, 295.6, 240.0)">e</text><text xml:space="preserve" font-family="GillSans-Light" font-size="43.7" fill="#525252" transform="matrix(1.00, 0.00, -0.00, -1.00, 316.6, 240.0)">n</text><text xml:space="preserve" font-family="GillSans-Light" font-size="43.7" fill="#525252" transform="matrix(1.00, 0.00, -0.00, -1.00, 338.0, 240.0)"> </text><text xml:space="preserve" font-family="GillSans-Light" font-size="43.7" fill="#525252" transform="matrix(1.00, 0.00, -0.00, -1.00, 350.1, 240.0)">w</text><text xml:space="preserve" font-family="GillSans-Light" font-size="43.7" fill="#525252" transform="matrix(1.00, 0.00, -0.00, -1.00, 380.4, 240.0)">e</text><text xml:space="preserve" font-family="GillSans-Light" font-size="43.7" fill="#525252" transform="matrix(1.00, 0.00, -0.00, -1.00, 401.4, 240.0)"> </text><text xml:space="preserve" font-family="GillSans-Light" font-size="43.7" fill="#525252" transform="matrix(1.00, 0.00, -0.00, -1.00, 413.5, 240.0)">k</text><text xml:space="preserve" font-family="GillSans-Light" font-size="43.7" fill="#525252" transform="matrix(1.00, 0.00, -0.00, -1.00, 432.1, 240.0)">n</text><text xml:space="preserve" font-family="GillSans-Light" font-size="43.7" fill="#525252" transform="matrix(1.00, 0.00, -0.00, -1.00, 453.6, 240.0)">o</text><text xml:space="preserve" font-family="GillSans-Light" font-size="43.7" fill="#525252" transform="matrix(1.00, 0.00, -0.00, -1.00, 476.6, 240.0)">w</text><text xml:space="preserve" font-family="GillSans-Light" font-size="43.7" fill="#525252" transform="matrix(1.00, 0.00, -0.00, -1.00, 507.5, 240.0)"> </text><text xml:space="preserve" font-family="GillSans-Light" font-size="43.7" fill="#525252" transform="matrix(1.00, 0.00, -0.00, -1.00, 519.7, 240.0)">t</text><text xml:space="preserve" font-family="GillSans-Light" font-size="43.7" fill="#525252" transform="matrix(1.00, 0.00, -0.00, -1.00, 532.8, 240.0)">h</text><text xml:space="preserve" font-family="GillSans-Light" font-size="43.7" fill="#525252" transform="matrix(1.00, 0.00, -0.00, -1.00, 554.3, 240.0)">a</text><text xml:space="preserve" font-family="GillSans-Light" font-size="43.7" fill="#525252" transform="matrix(1.00, 0.00, -0.00, -1.00, 572.9, 240.0)">t</text><text xml:space="preserve" font-family="GillSans-Light" font-size="43.7" fill="#525252" transform="matrix(1.00, 0.00, -0.00, -1.00, 586.1, 240.0)"> </text><text xml:space="preserve" font-family="Monaco" font-size="43.7" fill="#525252" transform="matrix(1.00, 0.00, -0.00, -1.00, 598.3, 240.0)">-</text><text xml:space="preserve" font-family="Monaco" font-size="43.7" fill="#525252" transform="matrix(1.00, 0.00, -0.00, -1.00, 624.5, 240.0)">3</text><text xml:space="preserve" font-family="Monaco" font-size="43.7" fill="#525252" transform="matrix(1.00, 0.00, -0.00, -1.00, 650.7, 240.0)"> </text><text xml:space="preserve" font-family="Monaco" font-size="43.7" fill="#525252" transform="matrix(1.00, 0.00, -0.00, -1.00, 677.0, 240.0)">≤</text><text xml:space="preserve" font-family="Monaco" font-size="43.7" fill="#525252" transform="matrix(1.00, 0.00, -0.00, -1.00, 703.2, 240.0)"> </text><text xml:space="preserve" font-family="Monaco" font-size="43.7" fill="#525252" transform="matrix(1.00, 0.00, -0.00, -1.00, 729.4, 240.0)">C</text><text xml:space="preserve" font-family="Monaco" font-size="43.7" fill="#525252" transform="matrix(1.00, 0.00, -0.00, -1.00, 755.7, 240.0)">o</text><text xml:space="preserve" font-family="Monaco" font-size="43.7" fill="#525252" transform="matrix(1.00, 0.00, -0.00, -1.00, 781.9, 240.0)"> </text><text xml:space="preserve" font-family="Monaco" font-size="43.7" fill="#525252" transform="matrix(1.00, 0.00, -0.00, -1.00, 808.1, 240.0)">≤</text><text xml:space="preserve" font-family="Monaco" font-size="43.7" fill="#525252" transform="matrix(1.00, 0.00, -0.00, -1.00, 834.3, 240.0)"> </text><text xml:space="preserve" font-family="Monaco" font-size="43.7" fill="#525252" transform="matrix(1.00, 0.00, -0.00, -1.00, 860.6, 240.0)">3</text><text xml:space="preserve" font-family="GillSans-Light" font-size="35.8" fill="#525252" transform="matrix(1.00, 0.00, -0.00, -1.00, 32.0, 134.0)">•</text><text xml:space="preserve" font-family="GillSans-Light" font-size="43.7" fill="#525252" transform="matrix(1.00, 0.00, -0.00, -1.00, 71.0, 132.0)">I</text><text xml:space="preserve" font-family="GillSans-Light" font-size="43.7" fill="#525252" transform="matrix(1.00, 0.00, -0.00, -1.00, 80.1, 132.0)">n</text><text xml:space="preserve" font-family="GillSans-Light" font-size="43.7" fill="#525252" transform="matrix(1.00, 0.00, -0.00, -1.00, 101.5, 132.0)">t</text><text xml:space="preserve" font-family="GillSans-Light" font-size="43.7" fill="#525252" transform="matrix(1.00, 0.00, -0.00, -1.00, 114.7, 132.0)">e</text><text xml:space="preserve" font-family="GillSans-Light" font-size="43.7" fill="#525252" transform="matrix(1.00, 0.00, -0.00, -1.00, 135.6, 132.0)">r</text><text xml:space="preserve" font-family="GillSans-Light" font-size="43.7" fill="#525252" transform="matrix(1.00, 0.00, -0.00, -1.00, 153.2, 132.0)">v</text><text xml:space="preserve" font-family="GillSans-Light" font-size="43.7" fill="#525252" transform="matrix(1.00, 0.00, -0.00, -1.00, 171.9, 132.0)">a</text><text xml:space="preserve" font-family="GillSans-Light" font-size="43.7" fill="#525252" transform="matrix(1.00, 0.00, -0.00, -1.00, 190.5, 132.0)">l</text><text xml:space="preserve" font-family="GillSans-Light" font-size="43.7" fill="#525252" transform="matrix(1.00, 0.00, -0.00, -1.00, 198.7, 132.0)">s</text><text xml:space="preserve" font-family="GillSans-Light" font-size="43.7" fill="#525252" transform="matrix(1.00, 0.00, -0.00, -1.00, 214.2, 132.0)"> </text><text xml:space="preserve" font-family="GillSans-Light" font-size="43.7" fill="#525252" transform="matrix(1.00, 0.00, -0.00, -1.00, 226.3, 132.0)">a</text><text xml:space="preserve" font-family="GillSans-Light" font-size="43.7" fill="#525252" transform="matrix(1.00, 0.00, -0.00, -1.00, 245.0, 132.0)">r</text><text xml:space="preserve" font-family="GillSans-Light" font-size="43.7" fill="#525252" transform="matrix(1.00, 0.00, -0.00, -1.00, 259.5, 132.0)">e</text><text xml:space="preserve" font-family="GillSans-Light" font-size="43.7" fill="#525252" transform="matrix(1.00, 0.00, -0.00, -1.00, 280.5, 132.0)"> </text><text xml:space="preserve" font-family="GillSans-Light" font-size="43.7" fill="#525252" transform="matrix(1.00, 0.00, -0.00, -1.00, 292.6, 132.0)">d</text><text xml:space="preserve" font-family="GillSans-Light" font-size="43.7" fill="#525252" transform="matrix(1.00, 0.00, -0.00, -1.00, 314.9, 132.0)">e</text><text xml:space="preserve" font-family="GillSans-Light" font-size="43.7" fill="#525252" transform="matrix(1.00, 0.00, -0.00, -1.00, 335.8, 132.0)">r</text><text xml:space="preserve" font-family="GillSans-Light" font-size="43.7" fill="#525252" transform="matrix(1.00, 0.00, -0.00, -1.00, 351.4, 132.0)">i</text><text xml:space="preserve" font-family="GillSans-Light" font-size="43.7" fill="#525252" transform="matrix(1.00, 0.00, -0.00, -1.00, 359.6, 132.0)">v</text><text xml:space="preserve" font-family="GillSans-Light" font-size="43.7" fill="#525252" transform="matrix(1.00, 0.00, -0.00, -1.00, 377.6, 132.0)">e</text><text xml:space="preserve" font-family="GillSans-Light" font-size="43.7" fill="#525252" transform="matrix(1.00, 0.00, -0.00, -1.00, 398.6, 132.0)">d</text><text xml:space="preserve" font-family="GillSans-Light" font-size="43.7" fill="#525252" transform="matrix(1.00, 0.00, -0.00, -1.00, 420.8, 132.0)"> </text><text xml:space="preserve" font-family="GillSans-Light" font-size="43.7" fill="#525252" transform="matrix(1.00, 0.00, -0.00, -1.00, 433.0, 132.0)">f</text><text xml:space="preserve" font-family="GillSans-Light" font-size="43.7" fill="#525252" transform="matrix(1.00, 0.00, -0.00, -1.00, 443.5, 132.0)">r</text><text xml:space="preserve" font-family="GillSans-Light" font-size="43.7" fill="#525252" transform="matrix(1.00, 0.00, -0.00, -1.00, 458.0, 132.0)">o</text><text xml:space="preserve" font-family="GillSans-Light" font-size="43.7" fill="#525252" transform="matrix(1.00, 0.00, -0.00, -1.00, 481.7, 132.0)">m</text><text xml:space="preserve" font-family="GillSans-Light" font-size="43.7" fill="#525252" transform="matrix(1.00, 0.00, -0.00, -1.00, 515.4, 132.0)"> </text><text xml:space="preserve" font-family="GillSans-Light" font-size="43.7" fill="#525252" transform="matrix(1.00, 0.00, -0.00, -1.00, 521.0, 132.0)">Y</text><text xml:space="preserve" font-family="GillSans-Light" font-size="43.7" fill="#525252" transform="matrix(1.00, 0.00, -0.00, -1.00, 546.5, 132.0)">C</text><text xml:space="preserve" font-family="GillSans-Light" font-size="43.7" fill="#525252" transform="matrix(1.00, 0.00, -0.00, -1.00, 576.0, 132.0)">o</text><text xml:space="preserve" font-family="GillSans-Light" font-size="43.7" fill="#525252" transform="matrix(1.00, 0.00, -0.00, -1.00, 599.7, 132.0)">C</text><text xml:space="preserve" font-family="GillSans-Light" font-size="43.7" fill="#525252" transform="matrix(1.00, 0.00, -0.00, -1.00, 629.3, 132.0)">g</text><text xml:space="preserve" font-family="GillSans-Light" font-size="43.7" fill="#525252" transform="matrix(1.00, 0.00, -0.00, -1.00, 647.9, 132.0)"> </text><text xml:space="preserve" font-family="GillSans-Light" font-size="43.7" fill="#525252" transform="matrix(1.00, 0.00, -0.00, -1.00, 660.0, 132.0)">d</text><text xml:space="preserve" font-family="GillSans-Light" font-size="43.7" fill="#525252" transform="matrix(1.00, 0.00, -0.00, -1.00, 682.3, 132.0)">e</text><text xml:space="preserve" font-family="GillSans-Light" font-size="43.7" fill="#525252" transform="matrix(1.00, 0.00, -0.00, -1.00, 703.2, 132.0)">ﬁ</text><text xml:space="preserve" font-family="GillSans-Light" font-size="43.7" fill="#525252" transform="matrix(1.00, 0.00, -0.00, -1.00, 724.2, 132.0)">n</text><text xml:space="preserve" font-family="GillSans-Light" font-size="43.7" fill="#525252" transform="matrix(1.00, 0.00, -0.00, -1.00, 745.6, 132.0)">i</text><text xml:space="preserve" font-family="GillSans-Light" font-size="43.7" fill="#525252" transform="matrix(1.00, 0.00, -0.00, -1.00, 753.8, 132.0)">t</text><text xml:space="preserve" font-family="GillSans-Light" font-size="43.7" fill="#525252" transform="matrix(1.00, 0.00, -0.00, -1.00, 767.0, 132.0)">i</text><text xml:space="preserve" font-family="GillSans-Light" font-size="43.7" fill="#525252" transform="matrix(1.00, 0.00, -0.00, -1.00, 775.2, 132.0)">o</text><text xml:space="preserve" font-family="GillSans-Light" font-size="43.7" fill="#525252" transform="matrix(1.00, 0.00, -0.00, -1.00, 798.9, 132.0)">n</text><text xml:space="preserve" font-family="GillSans-Light" font-size="43.7" fill="#525252" transform="matrix(1.00, 0.00, -0.00, -1.00, 820.3, 132.0)">,</text><text xml:space="preserve" font-family="GillSans-Light" font-size="43.7" fill="#525252" transform="matrix(1.00, 0.00, -0.00, -1.00, 824.5, 132.0)"> </text><text xml:space="preserve" font-family="GillSans-Light" font-size="43.7" fill="#525252" transform="matrix(1.00, 0.00, -0.00, -1.00, 836.7, 132.0)">c</text><text xml:space="preserve" font-family="GillSans-Light" font-size="43.7" fill="#525252" transform="matrix(1.00, 0.00, -0.00, -1.00, 854.9, 132.0)">o</text><text xml:space="preserve" font-family="GillSans-Light" font-size="43.7" fill="#525252" transform="matrix(1.00, 0.00, -0.00, -1.00, 878.6, 132.0)">l</text><text xml:space="preserve" font-family="GillSans-Light" font-size="43.7" fill="#525252" transform="matrix(1.00, 0.00, -0.00, -1.00, 886.8, 132.0)">o</text><text xml:space="preserve" font-family="GillSans-Light" font-size="43.7" fill="#525252" transform="matrix(1.00, 0.00, -0.00, -1.00, 910.5, 132.0)">r</text><text xml:space="preserve" font-family="GillSans-Light" font-size="43.7" fill="#525252" transform="matrix(1.00, 0.00, -0.00, -1.00, 925.0, 132.0)"> </text><text xml:space="preserve" font-family="GillSans-Light" font-size="43.7" fill="#525252" transform="matrix(1.00, 0.00, -0.00, -1.00, 71.0, 73.0)">b</text><text xml:space="preserve" font-family="GillSans-Light" font-size="43.7" fill="#525252" transform="matrix(1.00, 0.00, -0.00, -1.00, 92.8, 73.0)">u</text><text xml:space="preserve" font-family="GillSans-Light" font-size="43.7" fill="#525252" transform="matrix(1.00, 0.00, -0.00, -1.00, 114.3, 73.0)">c</text><text xml:space="preserve" font-family="GillSans-Light" font-size="43.7" fill="#525252" transform="matrix(1.00, 0.00, -0.00, -1.00, 132.5, 73.0)">k</text><text xml:space="preserve" font-family="GillSans-Light" font-size="43.7" fill="#525252" transform="matrix(1.00, 0.00, -0.00, -1.00, 150.7, 73.0)">e</text><text xml:space="preserve" font-family="GillSans-Light" font-size="43.7" fill="#525252" transform="matrix(1.00, 0.00, -0.00, -1.00, 171.6, 73.0)">t</text><text xml:space="preserve" font-family="GillSans-Light" font-size="43.7" fill="#525252" transform="matrix(1.00, 0.00, -0.00, -1.00, 184.8, 73.0)">s</text><text xml:space="preserve" font-family="GillSans-Light" font-size="43.7" fill="#525252" transform="matrix(1.00, 0.00, -0.00, -1.00, 200.3, 73.0)">,</text><text xml:space="preserve" font-family="GillSans-Light" font-size="43.7" fill="#525252" transform="matrix(1.00, 0.00, -0.00, -1.00, 204.5, 73.0)"> </text><text xml:space="preserve" font-family="GillSans-Light" font-size="43.7" fill="#525252" transform="matrix(1.00, 0.00, -0.00, -1.00, 216.6, 73.0)">e</text><text xml:space="preserve" font-family="GillSans-Light" font-size="43.7" fill="#525252" transform="matrix(1.00, 0.00, -0.00, -1.00, 237.6, 73.0)">x</text><text xml:space="preserve" font-family="GillSans-Light" font-size="43.7" fill="#525252" transform="matrix(1.00, 0.00, -0.00, -1.00, 258.5, 73.0)">p</text><text xml:space="preserve" font-family="GillSans-Light" font-size="43.7" fill="#525252" transform="matrix(1.00, 0.00, -0.00, -1.00, 280.8, 73.0)">l</text><text xml:space="preserve" font-family="GillSans-Light" font-size="43.7" fill="#525252" transform="matrix(1.00, 0.00, -0.00, -1.00, 289.0, 73.0)">i</text><text xml:space="preserve" font-family="GillSans-Light" font-size="43.7" fill="#525252" transform="matrix(1.00, 0.00, -0.00, -1.00, 297.2, 73.0)">c</text><text xml:space="preserve" font-family="GillSans-Light" font-size="43.7" fill="#525252" transform="matrix(1.00, 0.00, -0.00, -1.00, 315.4, 73.0)">i</text><text xml:space="preserve" font-family="GillSans-Light" font-size="43.7" fill="#525252" transform="matrix(1.00, 0.00, -0.00, -1.00, 323.6, 73.0)">t</text><text xml:space="preserve" font-family="GillSans-Light" font-size="43.7" fill="#525252" transform="matrix(1.00, 0.00, -0.00, -1.00, 336.8, 73.0)">l</text><text xml:space="preserve" font-family="GillSans-Light" font-size="43.7" fill="#525252" transform="matrix(1.00, 0.00, -0.00, -1.00, 344.6, 73.0)">y</text><text xml:space="preserve" font-family="GillSans-Light" font-size="43.7" fill="#525252" transform="matrix(1.00, 0.00, -0.00, -1.00, 362.8, 73.0)"> </text><text xml:space="preserve" font-family="GillSans-Light" font-size="43.7" fill="#525252" transform="matrix(1.00, 0.00, -0.00, -1.00, 375.0, 73.0)">s</text><text xml:space="preserve" font-family="GillSans-Light" font-size="43.7" fill="#525252" transform="matrix(1.00, 0.00, -0.00, -1.00, 390.4, 73.0)">t</text><text xml:space="preserve" font-family="GillSans-Light" font-size="43.7" fill="#525252" transform="matrix(1.00, 0.00, -0.00, -1.00, 403.6, 73.0)">o</text><text xml:space="preserve" font-family="GillSans-Light" font-size="43.7" fill="#525252" transform="matrix(1.00, 0.00, -0.00, -1.00, 427.3, 73.0)">r</text><text xml:space="preserve" font-family="GillSans-Light" font-size="43.7" fill="#525252" transform="matrix(1.00, 0.00, -0.00, -1.00, 441.8, 73.0)">e</text><text xml:space="preserve" font-family="GillSans-Light" font-size="43.7" fill="#525252" transform="matrix(1.00, 0.00, -0.00, -1.00, 462.8, 73.0)">d</text><text xml:space="preserve" font-family="GillSans-Light" font-size="43.7" fill="#525252" transform="matrix(1.00, 0.00, -0.00, -1.00, 485.0, 73.0)"> </text><text xml:space="preserve" font-family="GillSans-Light" font-size="43.7" fill="#525252" transform="matrix(1.00, 0.00, -0.00, -1.00, 497.2, 73.0)">b</text><text xml:space="preserve" font-family="GillSans-Light" font-size="43.7" fill="#525252" transform="matrix(1.00, 0.00, -0.00, -1.00, 519.4, 73.0)">o</text><text xml:space="preserve" font-family="GillSans-Light" font-size="43.7" fill="#525252" transform="matrix(1.00, 0.00, -0.00, -1.00, 543.1, 73.0)">u</text><text xml:space="preserve" font-family="GillSans-Light" font-size="43.7" fill="#525252" transform="matrix(1.00, 0.00, -0.00, -1.00, 564.6, 73.0)">n</text><text xml:space="preserve" font-family="GillSans-Light" font-size="43.7" fill="#525252" transform="matrix(1.00, 0.00, -0.00, -1.00, 586.0, 73.0)">d</text><text xml:space="preserve" font-family="GillSans-Light" font-size="43.7" fill="#525252" transform="matrix(1.00, 0.00, -0.00, -1.00, 608.3, 73.0)">s</text></g></svg>