<?xml version="1.0" encoding="UTF-8" standalone="no"?><svg xmlns="http://www.w3.org/2000/svg" xmlns:xlink="http://www.w3.org/1999/xlink" clip-rule="evenodd" stroke-miterlimit="4.00" viewBox="0 0 1024 768"><desc>SVG generated by Keynote</desc><defs></defs><g transform="matrix(1.00, 0.00, -0.00, -1.00, 0.0, 768.0)"><g><clipPath id="clip-1671"><path d="M 0.0 768.0 L 1024.0 768.0 L 1024.0 0.0 L 0.0 0.0 Z M 0.0 768.0 "></path></clipPath><g clip-path="url(#clip-1671)"><image xlink:href="../../293415CD-D1BA-41BB-8703-BAEDA9FFCE27/assets/D3CB8578D364082F6943B53F933CCC32.jpeg" width="1024.00" height="768.00" transform="matrix(1.00, 0.00, -0.00, -1.00, 0.0, 768.0)"></image></g></g><text xml:space="preserve" font-family="GillSans-Light" font-size="72.0" fill="#525252" transform="matrix(1.00, 0.00, -0.00, -1.00, 218.0, 628.0)">C</text><text xml:space="preserve" font-family="GillSans-Light" font-size="72.0" fill="#525252" transform="matrix(1.00, 0.00, -0.00, -1.00, 266.7, 628.0)">O</text><text xml:space="preserve" font-family="GillSans-Light" font-size="72.0" fill="#525252" transform="matrix(1.00, 0.00, -0.00, -1.00, 326.0, 628.0)">N</text><text xml:space="preserve" font-family="GillSans-Light" font-size="72.0" fill="#525252" transform="matrix(1.00, 0.00, -0.00, -1.00, 381.5, 628.0)">T</text><text xml:space="preserve" font-family="GillSans-Light" font-size="72.0" fill="#525252" transform="matrix(1.00, 0.00, -0.00, -1.00, 422.8, 628.0)">E</text><text xml:space="preserve" font-family="GillSans-Light" font-size="72.0" fill="#525252" transform="matrix(1.00, 0.00, -0.00, -1.00, 458.1, 628.0)">X</text><text xml:space="preserve" font-family="GillSans-Light" font-size="72.0" fill="#525252" transform="matrix(1.00, 0.00, -0.00, -1.00, 507.6, 628.0)">T</text><text xml:space="preserve" font-family="GillSans-Light" font-size="72.0" fill="#525252" transform="matrix(1.00, 0.00, -0.00, -1.00, 548.9, 628.0)"> </text><text xml:space="preserve" font-family="GillSans-Light" font-size="72.0" fill="#525252" transform="matrix(1.00, 0.00, -0.00, -1.00, 568.9, 628.0)">M</text><text xml:space="preserve" font-family="GillSans-Light" font-size="72.0" fill="#525252" transform="matrix(1.00, 0.00, -0.00, -1.00, 625.1, 628.0)">O</text><text xml:space="preserve" font-family="GillSans-Light" font-size="72.0" fill="#525252" transform="matrix(1.00, 0.00, -0.00, -1.00, 684.4, 628.0)">D</text><text xml:space="preserve" font-family="GillSans-Light" font-size="72.0" fill="#525252" transform="matrix(1.00, 0.00, -0.00, -1.00, 737.7, 628.0)">E</text><text xml:space="preserve" font-family="GillSans-Light" font-size="72.0" fill="#525252" transform="matrix(1.00, 0.00, -0.00, -1.00, 773.0, 628.0)">L</text><text xml:space="preserve" font-family="GillSans-Light" font-size="37.0" fill="#525252" transform="matrix(1.00, 0.00, -0.00, -1.00, 32.0, 456.3)">•</text><text xml:space="preserve" font-family="GillSans-Light" font-size="45.1" fill="#525252" transform="matrix(1.00, 0.00, -0.00, -1.00, 72.0, 454.0)">P</text><text xml:space="preserve" font-family="GillSans-Light" font-size="45.1" fill="#525252" transform="matrix(1.00, 0.00, -0.00, -1.00, 95.0, 454.0)">r</text><text xml:space="preserve" font-family="GillSans-Light" font-size="45.1" fill="#525252" transform="matrix(1.00, 0.00, -0.00, -1.00, 110.0, 454.0)">o</text><text xml:space="preserve" font-family="GillSans-Light" font-size="45.1" fill="#525252" transform="matrix(1.00, 0.00, -0.00, -1.00, 134.4, 454.0)">b</text><text xml:space="preserve" font-family="GillSans-Light" font-size="45.1" fill="#525252" transform="matrix(1.00, 0.00, -0.00, -1.00, 156.7, 454.0)">l</text><text xml:space="preserve" font-family="GillSans-Light" font-size="45.1" fill="#525252" transform="matrix(1.00, 0.00, -0.00, -1.00, 165.2, 454.0)">e</text><text xml:space="preserve" font-family="GillSans-Light" font-size="45.1" fill="#525252" transform="matrix(1.00, 0.00, -0.00, -1.00, 186.8, 454.0)">m</text><text xml:space="preserve" font-family="GillSans-Light" font-size="45.1" fill="#525252" transform="matrix(1.00, 0.00, -0.00, -1.00, 221.5, 454.0)">:</text><text xml:space="preserve" font-family="GillSans-Light" font-size="45.1" fill="#525252" transform="matrix(1.00, 0.00, -0.00, -1.00, 225.9, 454.0)"> </text><text xml:space="preserve" font-family="GillSans-Light" font-size="45.1" fill="#525252" transform="matrix(1.00, 0.00, -0.00, -1.00, 238.4, 454.0)">h</text><text xml:space="preserve" font-family="GillSans-Light" font-size="45.1" fill="#525252" transform="matrix(1.00, 0.00, -0.00, -1.00, 260.5, 454.0)">o</text><text xml:space="preserve" font-family="GillSans-Light" font-size="45.1" fill="#525252" transform="matrix(1.00, 0.00, -0.00, -1.00, 284.3, 454.0)">w</text><text xml:space="preserve" font-family="GillSans-Light" font-size="45.1" fill="#525252" transform="matrix(1.00, 0.00, -0.00, -1.00, 316.2, 454.0)"> </text><text xml:space="preserve" font-family="GillSans-Light" font-size="45.1" fill="#525252" transform="matrix(1.00, 0.00, -0.00, -1.00, 328.7, 454.0)">m</text><text xml:space="preserve" font-family="GillSans-Light" font-size="45.1" fill="#525252" transform="matrix(1.00, 0.00, -0.00, -1.00, 363.4, 454.0)">a</text><text xml:space="preserve" font-family="GillSans-Light" font-size="45.1" fill="#525252" transform="matrix(1.00, 0.00, -0.00, -1.00, 382.7, 454.0)">n</text><text xml:space="preserve" font-family="GillSans-Light" font-size="45.1" fill="#525252" transform="matrix(1.00, 0.00, -0.00, -1.00, 404.1, 454.0)">y</text><text xml:space="preserve" font-family="GillSans-Light" font-size="45.1" fill="#525252" transform="matrix(1.00, 0.00, -0.00, -1.00, 422.9, 454.0)"> </text><text xml:space="preserve" font-family="GillSans-Light" font-size="45.1" fill="#525252" transform="matrix(1.00, 0.00, -0.00, -1.00, 435.4, 454.0)">c</text><text xml:space="preserve" font-family="GillSans-Light" font-size="45.1" fill="#525252" transform="matrix(1.00, 0.00, -0.00, -1.00, 454.2, 454.0)">o</text><text xml:space="preserve" font-family="GillSans-Light" font-size="45.1" fill="#525252" transform="matrix(1.00, 0.00, -0.00, -1.00, 478.6, 454.0)">n</text><text xml:space="preserve" font-family="GillSans-Light" font-size="45.1" fill="#525252" transform="matrix(1.00, 0.00, -0.00, -1.00, 500.8, 454.0)">t</text><text xml:space="preserve" font-family="GillSans-Light" font-size="45.1" fill="#525252" transform="matrix(1.00, 0.00, -0.00, -1.00, 514.3, 454.0)">e</text><text xml:space="preserve" font-family="GillSans-Light" font-size="45.1" fill="#525252" transform="matrix(1.00, 0.00, -0.00, -1.00, 535.9, 454.0)">x</text><text xml:space="preserve" font-family="GillSans-Light" font-size="45.1" fill="#525252" transform="matrix(1.00, 0.00, -0.00, -1.00, 557.5, 454.0)">t</text><text xml:space="preserve" font-family="GillSans-Light" font-size="45.1" fill="#525252" transform="matrix(1.00, 0.00, -0.00, -1.00, 571.1, 454.0)">s</text><text xml:space="preserve" font-family="GillSans-Light" font-size="45.1" fill="#525252" transform="matrix(1.00, 0.00, -0.00, -1.00, 587.1, 454.0)">?</text><text xml:space="preserve" font-family="GillSans-Light" font-size="37.0" fill="#525252" transform="matrix(1.00, 0.00, -0.00, -1.00, 73.0, 350.0)">•</text><text xml:space="preserve" font-family="GillSans-Light" font-size="45.1" fill="#525252" transform="matrix(1.00, 0.00, -0.00, -1.00, 113.0, 347.0)">T</text><text xml:space="preserve" font-family="GillSans-Light" font-size="45.1" fill="#525252" transform="matrix(1.00, 0.00, -0.00, -1.00, 132.5, 347.0)">o</text><text xml:space="preserve" font-family="GillSans-Light" font-size="45.1" fill="#525252" transform="matrix(1.00, 0.00, -0.00, -1.00, 157.0, 347.0)">o</text><text xml:space="preserve" font-family="GillSans-Light" font-size="45.1" fill="#525252" transform="matrix(1.00, 0.00, -0.00, -1.00, 181.4, 347.0)"> </text><text xml:space="preserve" font-family="GillSans-Light" font-size="45.1" fill="#525252" transform="matrix(1.00, 0.00, -0.00, -1.00, 193.9, 347.0)">f</text><text xml:space="preserve" font-family="GillSans-Light" font-size="45.1" fill="#525252" transform="matrix(1.00, 0.00, -0.00, -1.00, 204.1, 347.0)">e</text><text xml:space="preserve" font-family="GillSans-Light" font-size="45.1" fill="#525252" transform="matrix(1.00, 0.00, -0.00, -1.00, 225.7, 347.0)">w</text><text xml:space="preserve" font-family="GillSans-Light" font-size="45.1" fill="#525252" transform="matrix(1.00, 0.00, -0.00, -1.00, 257.6, 347.0)">:</text><text xml:space="preserve" font-family="GillSans-Light" font-size="45.1" fill="#525252" transform="matrix(1.00, 0.00, -0.00, -1.00, 261.9, 347.0)"> </text><text xml:space="preserve" font-family="GillSans-Light" font-size="45.1" fill="#525252" transform="matrix(1.00, 0.00, -0.00, -1.00, 274.4, 347.0)">c</text><text xml:space="preserve" font-family="GillSans-Light" font-size="45.1" fill="#525252" transform="matrix(1.00, 0.00, -0.00, -1.00, 293.2, 347.0)">a</text><text xml:space="preserve" font-family="GillSans-Light" font-size="45.1" fill="#525252" transform="matrix(1.00, 0.00, -0.00, -1.00, 312.5, 347.0)">n</text><text xml:space="preserve" font-family="GillSans-Light" font-size="45.1" fill="#525252" transform="matrix(1.00, 0.00, -0.00, -1.00, 334.6, 347.0)">n</text><text xml:space="preserve" font-family="GillSans-Light" font-size="45.1" fill="#525252" transform="matrix(1.00, 0.00, -0.00, -1.00, 356.7, 347.0)">o</text><text xml:space="preserve" font-family="GillSans-Light" font-size="45.1" fill="#525252" transform="matrix(1.00, 0.00, -0.00, -1.00, 381.1, 347.0)">t</text><text xml:space="preserve" font-family="GillSans-Light" font-size="45.1" fill="#525252" transform="matrix(1.00, 0.00, -0.00, -1.00, 394.7, 347.0)"> </text><text xml:space="preserve" font-family="GillSans-Light" font-size="45.1" fill="#525252" transform="matrix(1.00, 0.00, -0.00, -1.00, 407.2, 347.0)">r</text><text xml:space="preserve" font-family="GillSans-Light" font-size="45.1" fill="#525252" transform="matrix(1.00, 0.00, -0.00, -1.00, 422.2, 347.0)">e</text><text xml:space="preserve" font-family="GillSans-Light" font-size="45.1" fill="#525252" transform="matrix(1.00, 0.00, -0.00, -1.00, 443.8, 347.0)">a</text><text xml:space="preserve" font-family="GillSans-Light" font-size="45.1" fill="#525252" transform="matrix(1.00, 0.00, -0.00, -1.00, 463.1, 347.0)">l</text><text xml:space="preserve" font-family="GillSans-Light" font-size="45.1" fill="#525252" transform="matrix(1.00, 0.00, -0.00, -1.00, 471.5, 347.0)">l</text><text xml:space="preserve" font-family="GillSans-Light" font-size="45.1" fill="#525252" transform="matrix(1.00, 0.00, -0.00, -1.00, 479.6, 347.0)">y</text><text xml:space="preserve" font-family="GillSans-Light" font-size="45.1" fill="#525252" transform="matrix(1.00, 0.00, -0.00, -1.00, 498.4, 347.0)"> </text><text xml:space="preserve" font-family="GillSans-Light" font-size="45.1" fill="#525252" transform="matrix(1.00, 0.00, -0.00, -1.00, 510.9, 347.0)">c</text><text xml:space="preserve" font-family="GillSans-Light" font-size="45.1" fill="#525252" transform="matrix(1.00, 0.00, -0.00, -1.00, 529.7, 347.0)">a</text><text xml:space="preserve" font-family="GillSans-Light" font-size="45.1" fill="#525252" transform="matrix(1.00, 0.00, -0.00, -1.00, 548.9, 347.0)">p</text><text xml:space="preserve" font-family="GillSans-Light" font-size="45.1" fill="#525252" transform="matrix(1.00, 0.00, -0.00, -1.00, 571.9, 347.0)">t</text><text xml:space="preserve" font-family="GillSans-Light" font-size="45.1" fill="#525252" transform="matrix(1.00, 0.00, -0.00, -1.00, 585.5, 347.0)">u</text><text xml:space="preserve" font-family="GillSans-Light" font-size="45.1" fill="#525252" transform="matrix(1.00, 0.00, -0.00, -1.00, 607.6, 347.0)">r</text><text xml:space="preserve" font-family="GillSans-Light" font-size="45.1" fill="#525252" transform="matrix(1.00, 0.00, -0.00, -1.00, 622.6, 347.0)">e</text><text xml:space="preserve" font-family="GillSans-Light" font-size="45.1" fill="#525252" transform="matrix(1.00, 0.00, -0.00, -1.00, 644.2, 347.0)"> </text><text xml:space="preserve" font-family="GillSans-Light" font-size="45.1" fill="#525252" transform="matrix(1.00, 0.00, -0.00, -1.00, 656.7, 347.0)">t</text><text xml:space="preserve" font-family="GillSans-Light" font-size="45.1" fill="#525252" transform="matrix(1.00, 0.00, -0.00, -1.00, 670.3, 347.0)">h</text><text xml:space="preserve" font-family="GillSans-Light" font-size="45.1" fill="#525252" transform="matrix(1.00, 0.00, -0.00, -1.00, 692.4, 347.0)">e</text><text xml:space="preserve" font-family="GillSans-Light" font-size="45.1" fill="#525252" transform="matrix(1.00, 0.00, -0.00, -1.00, 714.0, 347.0)"> </text><text xml:space="preserve" font-family="GillSans-Light" font-size="45.1" fill="#525252" transform="matrix(1.00, 0.00, -0.00, -1.00, 726.5, 347.0)">a</text><text xml:space="preserve" font-family="GillSans-Light" font-size="45.1" fill="#525252" transform="matrix(1.00, 0.00, -0.00, -1.00, 745.8, 347.0)">c</text><text xml:space="preserve" font-family="GillSans-Light" font-size="45.1" fill="#525252" transform="matrix(1.00, 0.00, -0.00, -1.00, 764.6, 347.0)">t</text><text xml:space="preserve" font-family="GillSans-Light" font-size="45.1" fill="#525252" transform="matrix(1.00, 0.00, -0.00, -1.00, 778.1, 347.0)">u</text><text xml:space="preserve" font-family="GillSans-Light" font-size="45.1" fill="#525252" transform="matrix(1.00, 0.00, -0.00, -1.00, 800.3, 347.0)">a</text><text xml:space="preserve" font-family="GillSans-Light" font-size="45.1" fill="#525252" transform="matrix(1.00, 0.00, -0.00, -1.00, 819.5, 347.0)">l</text><text xml:space="preserve" font-family="GillSans-Light" font-size="45.1" fill="#525252" transform="matrix(1.00, 0.00, -0.00, -1.00, 828.0, 347.0)"> </text><text xml:space="preserve" font-family="GillSans-Light" font-size="45.1" fill="#525252" transform="matrix(1.00, 0.00, -0.00, -1.00, 836.0, 347.0)">‘</text><text xml:space="preserve" font-family="GillSans-Light" font-size="45.1" fill="#525252" transform="matrix(1.00, 0.00, -0.00, -1.00, 843.9, 347.0)">c</text><text xml:space="preserve" font-family="GillSans-Light" font-size="45.1" fill="#525252" transform="matrix(1.00, 0.00, -0.00, -1.00, 862.7, 347.0)">o</text><text xml:space="preserve" font-family="GillSans-Light" font-size="45.1" fill="#525252" transform="matrix(1.00, 0.00, -0.00, -1.00, 887.2, 347.0)">n</text><text xml:space="preserve" font-family="GillSans-Light" font-size="45.1" fill="#525252" transform="matrix(1.00, 0.00, -0.00, -1.00, 909.3, 347.0)">t</text><text xml:space="preserve" font-family="GillSans-Light" font-size="45.1" fill="#525252" transform="matrix(1.00, 0.00, -0.00, -1.00, 922.9, 347.0)">e</text><text xml:space="preserve" font-family="GillSans-Light" font-size="45.1" fill="#525252" transform="matrix(1.00, 0.00, -0.00, -1.00, 944.5, 347.0)">x</text><text xml:space="preserve" font-family="GillSans-Light" font-size="45.1" fill="#525252" transform="matrix(1.00, 0.00, -0.00, -1.00, 966.0, 347.0)">t</text><text xml:space="preserve" font-family="GillSans-Light" font-size="45.1" fill="#525252" transform="matrix(1.00, 0.00, -0.00, -1.00, 979.6, 347.0)">’</text><text xml:space="preserve" font-family="LucidaGrande" font-size="45.1" fill="#525252" transform="matrix(1.00, 0.00, -0.00, -1.00, 987.7, 347.0)"> </text><text xml:space="preserve" font-family="GillSans-Light" font-size="41.2" fill="#525252" transform="matrix(1.00, 0.00, -0.00, -1.00, 113.0, 289.0)">(</text><text xml:space="preserve" font-family="GillSans-Light" font-size="41.2" fill="#525252" transform="matrix(1.00, 0.00, -0.00, -1.00, 126.7, 289.0)">c</text><text xml:space="preserve" font-family="GillSans-Light" font-size="41.2" fill="#525252" transform="matrix(1.00, 0.00, -0.00, -1.00, 143.9, 289.0)">o</text><text xml:space="preserve" font-family="GillSans-Light" font-size="41.2" fill="#525252" transform="matrix(1.00, 0.00, -0.00, -1.00, 166.2, 289.0)">n</text><text xml:space="preserve" font-family="GillSans-Light" font-size="41.2" fill="#525252" transform="matrix(1.00, 0.00, -0.00, -1.00, 186.4, 289.0)">t</text><text xml:space="preserve" font-family="GillSans-Light" font-size="41.2" fill="#525252" transform="matrix(1.00, 0.00, -0.00, -1.00, 198.8, 289.0)">e</text><text xml:space="preserve" font-family="GillSans-Light" font-size="41.2" fill="#525252" transform="matrix(1.00, 0.00, -0.00, -1.00, 218.5, 289.0)">x</text><text xml:space="preserve" font-family="GillSans-Light" font-size="41.2" fill="#525252" transform="matrix(1.00, 0.00, -0.00, -1.00, 238.2, 289.0)">t</text><text xml:space="preserve" font-family="GillSans-Light" font-size="41.2" fill="#525252" transform="matrix(1.00, 0.00, -0.00, -1.00, 250.6, 289.0)">s</text><text xml:space="preserve" font-family="GillSans-Light" font-size="41.2" fill="#525252" transform="matrix(1.00, 0.00, -0.00, -1.00, 265.2, 289.0)"> </text><text xml:space="preserve" font-family="GillSans-Light" font-size="41.2" fill="#525252" transform="matrix(1.00, 0.00, -0.00, -1.00, 276.6, 289.0)">t</text><text xml:space="preserve" font-family="GillSans-Light" font-size="41.2" fill="#525252" transform="matrix(1.00, 0.00, -0.00, -1.00, 289.0, 289.0)">h</text><text xml:space="preserve" font-family="GillSans-Light" font-size="41.2" fill="#525252" transform="matrix(1.00, 0.00, -0.00, -1.00, 309.2, 289.0)">a</text><text xml:space="preserve" font-family="GillSans-Light" font-size="41.2" fill="#525252" transform="matrix(1.00, 0.00, -0.00, -1.00, 326.8, 289.0)">t</text><text xml:space="preserve" font-family="GillSans-Light" font-size="41.2" fill="#525252" transform="matrix(1.00, 0.00, -0.00, -1.00, 339.2, 289.0)"> </text><text xml:space="preserve" font-family="GillSans-Light" font-size="41.2" fill="#525252" transform="matrix(1.00, 0.00, -0.00, -1.00, 350.6, 289.0)">b</text><text xml:space="preserve" font-family="GillSans-Light" font-size="41.2" fill="#525252" transform="matrix(1.00, 0.00, -0.00, -1.00, 371.6, 289.0)">e</text><text xml:space="preserve" font-family="GillSans-Light" font-size="41.2" fill="#525252" transform="matrix(1.00, 0.00, -0.00, -1.00, 391.3, 289.0)">h</text><text xml:space="preserve" font-family="GillSans-Light" font-size="41.2" fill="#525252" transform="matrix(1.00, 0.00, -0.00, -1.00, 411.5, 289.0)">a</text><text xml:space="preserve" font-family="GillSans-Light" font-size="41.2" fill="#525252" transform="matrix(1.00, 0.00, -0.00, -1.00, 428.0, 289.0)">v</text><text xml:space="preserve" font-family="GillSans-Light" font-size="41.2" fill="#525252" transform="matrix(1.00, 0.00, -0.00, -1.00, 445.0, 289.0)">e</text><text xml:space="preserve" font-family="GillSans-Light" font-size="41.2" fill="#525252" transform="matrix(1.00, 0.00, -0.00, -1.00, 464.7, 289.0)"> </text><text xml:space="preserve" font-family="GillSans-Light" font-size="41.2" fill="#525252" transform="matrix(1.00, 0.00, -0.00, -1.00, 476.1, 289.0)">d</text><text xml:space="preserve" font-family="GillSans-Light" font-size="41.2" fill="#525252" transform="matrix(1.00, 0.00, -0.00, -1.00, 497.1, 289.0)">i</text><text xml:space="preserve" font-family="GillSans-Light" font-size="41.2" fill="#525252" transform="matrix(1.00, 0.00, -0.00, -1.00, 504.8, 289.0)">f</text><text xml:space="preserve" font-family="GillSans-Light" font-size="41.2" fill="#525252" transform="matrix(1.00, 0.00, -0.00, -1.00, 514.7, 289.0)">f</text><text xml:space="preserve" font-family="GillSans-Light" font-size="41.2" fill="#525252" transform="matrix(1.00, 0.00, -0.00, -1.00, 524.0, 289.0)">e</text><text xml:space="preserve" font-family="GillSans-Light" font-size="41.2" fill="#525252" transform="matrix(1.00, 0.00, -0.00, -1.00, 543.7, 289.0)">r</text><text xml:space="preserve" font-family="GillSans-Light" font-size="41.2" fill="#525252" transform="matrix(1.00, 0.00, -0.00, -1.00, 557.4, 289.0)">e</text><text xml:space="preserve" font-family="GillSans-Light" font-size="41.2" fill="#525252" transform="matrix(1.00, 0.00, -0.00, -1.00, 577.1, 289.0)">n</text><text xml:space="preserve" font-family="GillSans-Light" font-size="41.2" fill="#525252" transform="matrix(1.00, 0.00, -0.00, -1.00, 597.3, 289.0)">t</text><text xml:space="preserve" font-family="GillSans-Light" font-size="41.2" fill="#525252" transform="matrix(1.00, 0.00, -0.00, -1.00, 609.7, 289.0)">l</text><text xml:space="preserve" font-family="GillSans-Light" font-size="41.2" fill="#525252" transform="matrix(1.00, 0.00, -0.00, -1.00, 617.0, 289.0)">y</text><text xml:space="preserve" font-family="GillSans-Light" font-size="41.2" fill="#525252" transform="matrix(1.00, 0.00, -0.00, -1.00, 634.2, 289.0)"> </text><text xml:space="preserve" font-family="GillSans-Light" font-size="41.2" fill="#525252" transform="matrix(1.00, 0.00, -0.00, -1.00, 645.6, 289.0)">g</text><text xml:space="preserve" font-family="GillSans-Light" font-size="41.2" fill="#525252" transform="matrix(1.00, 0.00, -0.00, -1.00, 663.2, 289.0)">e</text><text xml:space="preserve" font-family="GillSans-Light" font-size="41.2" fill="#525252" transform="matrix(1.00, 0.00, -0.00, -1.00, 682.9, 289.0)">t</text><text xml:space="preserve" font-family="GillSans-Light" font-size="41.2" fill="#525252" transform="matrix(1.00, 0.00, -0.00, -1.00, 695.3, 289.0)"> </text><text xml:space="preserve" font-family="GillSans-Light" font-size="41.2" fill="#525252" transform="matrix(1.00, 0.00, -0.00, -1.00, 706.8, 289.0)">l</text><text xml:space="preserve" font-family="GillSans-Light" font-size="41.2" fill="#525252" transform="matrix(1.00, 0.00, -0.00, -1.00, 714.5, 289.0)">u</text><text xml:space="preserve" font-family="GillSans-Light" font-size="41.2" fill="#525252" transform="matrix(1.00, 0.00, -0.00, -1.00, 734.7, 289.0)">m</text><text xml:space="preserve" font-family="GillSans-Light" font-size="41.2" fill="#525252" transform="matrix(1.00, 0.00, -0.00, -1.00, 766.4, 289.0)">p</text><text xml:space="preserve" font-family="GillSans-Light" font-size="41.2" fill="#525252" transform="matrix(1.00, 0.00, -0.00, -1.00, 787.4, 289.0)">e</text><text xml:space="preserve" font-family="GillSans-Light" font-size="41.2" fill="#525252" transform="matrix(1.00, 0.00, -0.00, -1.00, 807.1, 289.0)">d</text><text xml:space="preserve" font-family="GillSans-Light" font-size="41.2" fill="#525252" transform="matrix(1.00, 0.00, -0.00, -1.00, 828.1, 289.0)"> </text><text xml:space="preserve" font-family="GillSans-Light" font-size="41.2" fill="#525252" transform="matrix(1.00, 0.00, -0.00, -1.00, 839.5, 289.0)">t</text><text xml:space="preserve" font-family="GillSans-Light" font-size="41.2" fill="#525252" transform="matrix(1.00, 0.00, -0.00, -1.00, 851.9, 289.0)">o</text><text xml:space="preserve" font-family="GillSans-Light" font-size="41.2" fill="#525252" transform="matrix(1.00, 0.00, -0.00, -1.00, 874.2, 289.0)">g</text><text xml:space="preserve" font-family="GillSans-Light" font-size="41.2" fill="#525252" transform="matrix(1.00, 0.00, -0.00, -1.00, 891.8, 289.0)">e</text><text xml:space="preserve" font-family="GillSans-Light" font-size="41.2" fill="#525252" transform="matrix(1.00, 0.00, -0.00, -1.00, 911.5, 289.0)">t</text><text xml:space="preserve" font-family="GillSans-Light" font-size="41.2" fill="#525252" transform="matrix(1.00, 0.00, -0.00, -1.00, 923.9, 289.0)">h</text><text xml:space="preserve" font-family="GillSans-Light" font-size="41.2" fill="#525252" transform="matrix(1.00, 0.00, -0.00, -1.00, 944.1, 289.0)">e</text><text xml:space="preserve" font-family="GillSans-Light" font-size="41.2" fill="#525252" transform="matrix(1.00, 0.00, -0.00, -1.00, 963.8, 289.0)">r</text><text xml:space="preserve" font-family="GillSans-Light" font-size="41.2" fill="#525252" transform="matrix(1.00, 0.00, -0.00, -1.00, 977.5, 289.0)">)</text><text xml:space="preserve" font-family="GillSans-Light" font-size="37.0" fill="#525252" transform="matrix(1.00, 0.00, -0.00, -1.00, 73.0, 187.3)">•</text><text xml:space="preserve" font-family="GillSans-Light" font-size="45.1" fill="#525252" transform="matrix(1.00, 0.00, -0.00, -1.00, 113.0, 185.0)">T</text><text xml:space="preserve" font-family="GillSans-Light" font-size="45.1" fill="#525252" transform="matrix(1.00, 0.00, -0.00, -1.00, 132.5, 185.0)">o</text><text xml:space="preserve" font-family="GillSans-Light" font-size="45.1" fill="#525252" transform="matrix(1.00, 0.00, -0.00, -1.00, 157.0, 185.0)">o</text><text xml:space="preserve" font-family="GillSans-Light" font-size="45.1" fill="#525252" transform="matrix(1.00, 0.00, -0.00, -1.00, 181.4, 185.0)"> </text><text xml:space="preserve" font-family="GillSans-Light" font-size="45.1" fill="#525252" transform="matrix(1.00, 0.00, -0.00, -1.00, 193.9, 185.0)">m</text><text xml:space="preserve" font-family="GillSans-Light" font-size="45.1" fill="#525252" transform="matrix(1.00, 0.00, -0.00, -1.00, 228.7, 185.0)">a</text><text xml:space="preserve" font-family="GillSans-Light" font-size="45.1" fill="#525252" transform="matrix(1.00, 0.00, -0.00, -1.00, 247.9, 185.0)">n</text><text xml:space="preserve" font-family="GillSans-Light" font-size="45.1" fill="#525252" transform="matrix(1.00, 0.00, -0.00, -1.00, 269.3, 185.0)">y</text><text xml:space="preserve" font-family="GillSans-Light" font-size="45.1" fill="#525252" transform="matrix(1.00, 0.00, -0.00, -1.00, 288.1, 185.0)">:</text><text xml:space="preserve" font-family="GillSans-Light" font-size="45.1" fill="#525252" transform="matrix(1.00, 0.00, -0.00, -1.00, 292.5, 185.0)"> </text><text xml:space="preserve" font-family="GillSans-Light" font-size="45.1" fill="#525252" transform="matrix(1.00, 0.00, -0.00, -1.00, 305.0, 185.0)">t</text><text xml:space="preserve" font-family="GillSans-Light" font-size="45.1" fill="#525252" transform="matrix(1.00, 0.00, -0.00, -1.00, 318.6, 185.0)">o</text><text xml:space="preserve" font-family="GillSans-Light" font-size="45.1" fill="#525252" transform="matrix(1.00, 0.00, -0.00, -1.00, 343.0, 185.0)">o</text><text xml:space="preserve" font-family="GillSans-Light" font-size="45.1" fill="#525252" transform="matrix(1.00, 0.00, -0.00, -1.00, 367.5, 185.0)"> </text><text xml:space="preserve" font-family="GillSans-Light" font-size="45.1" fill="#525252" transform="matrix(1.00, 0.00, -0.00, -1.00, 380.0, 185.0)">f</text><text xml:space="preserve" font-family="GillSans-Light" font-size="45.1" fill="#525252" transform="matrix(1.00, 0.00, -0.00, -1.00, 390.1, 185.0)">e</text><text xml:space="preserve" font-family="GillSans-Light" font-size="45.1" fill="#525252" transform="matrix(1.00, 0.00, -0.00, -1.00, 411.7, 185.0)">w</text><text xml:space="preserve" font-family="GillSans-Light" font-size="45.1" fill="#525252" transform="matrix(1.00, 0.00, -0.00, -1.00, 443.6, 185.0)"> </text><text xml:space="preserve" font-family="GillSans-Light" font-size="45.1" fill="#525252" transform="matrix(1.00, 0.00, -0.00, -1.00, 456.2, 185.0)">s</text><text xml:space="preserve" font-family="GillSans-Light" font-size="45.1" fill="#525252" transform="matrix(1.00, 0.00, -0.00, -1.00, 472.1, 185.0)">y</text><text xml:space="preserve" font-family="GillSans-Light" font-size="45.1" fill="#525252" transform="matrix(1.00, 0.00, -0.00, -1.00, 490.9, 185.0)">m</text><text xml:space="preserve" font-family="GillSans-Light" font-size="45.1" fill="#525252" transform="matrix(1.00, 0.00, -0.00, -1.00, 525.7, 185.0)">b</text><text xml:space="preserve" font-family="GillSans-Light" font-size="45.1" fill="#525252" transform="matrix(1.00, 0.00, -0.00, -1.00, 548.6, 185.0)">o</text><text xml:space="preserve" font-family="GillSans-Light" font-size="45.1" fill="#525252" transform="matrix(1.00, 0.00, -0.00, -1.00, 573.1, 185.0)">l</text><text xml:space="preserve" font-family="GillSans-Light" font-size="45.1" fill="#525252" transform="matrix(1.00, 0.00, -0.00, -1.00, 581.5, 185.0)">s</text><text xml:space="preserve" font-family="GillSans-Light" font-size="45.1" fill="#525252" transform="matrix(1.00, 0.00, -0.00, -1.00, 597.5, 185.0)"> </text><text xml:space="preserve" font-family="GillSans-Light" font-size="45.1" fill="#525252" transform="matrix(1.00, 0.00, -0.00, -1.00, 610.0, 185.0)">p</text><text xml:space="preserve" font-family="GillSans-Light" font-size="45.1" fill="#525252" transform="matrix(1.00, 0.00, -0.00, -1.00, 633.0, 185.0)">e</text><text xml:space="preserve" font-family="GillSans-Light" font-size="45.1" fill="#525252" transform="matrix(1.00, 0.00, -0.00, -1.00, 654.6, 185.0)">r</text><text xml:space="preserve" font-family="GillSans-Light" font-size="45.1" fill="#525252" transform="matrix(1.00, 0.00, -0.00, -1.00, 669.6, 185.0)"> </text><text xml:space="preserve" font-family="GillSans-Light" font-size="45.1" fill="#525252" transform="matrix(1.00, 0.00, -0.00, -1.00, 682.1, 185.0)">c</text><text xml:space="preserve" font-family="GillSans-Light" font-size="45.1" fill="#525252" transform="matrix(1.00, 0.00, -0.00, -1.00, 700.9, 185.0)">o</text><text xml:space="preserve" font-family="GillSans-Light" font-size="45.1" fill="#525252" transform="matrix(1.00, 0.00, -0.00, -1.00, 725.3, 185.0)">n</text><text xml:space="preserve" font-family="GillSans-Light" font-size="45.1" fill="#525252" transform="matrix(1.00, 0.00, -0.00, -1.00, 747.5, 185.0)">t</text><text xml:space="preserve" font-family="GillSans-Light" font-size="45.1" fill="#525252" transform="matrix(1.00, 0.00, -0.00, -1.00, 761.0, 185.0)">e</text><text xml:space="preserve" font-family="GillSans-Light" font-size="45.1" fill="#525252" transform="matrix(1.00, 0.00, -0.00, -1.00, 782.6, 185.0)">x</text><text xml:space="preserve" font-family="GillSans-Light" font-size="45.1" fill="#525252" transform="matrix(1.00, 0.00, -0.00, -1.00, 804.2, 185.0)">t</text><text xml:space="preserve" font-family="LucidaGrande" font-size="45.1" fill="#525252" transform="matrix(1.00, 0.00, -0.00, -1.00, 817.9, 185.0)"> </text><text xml:space="preserve" font-family="GillSans-Light" font-size="41.2" fill="#525252" transform="matrix(1.00, 0.00, -0.00, -1.00, 113.0, 127.0)">(</text><text xml:space="preserve" font-family="GillSans-Light" font-size="41.2" fill="#525252" transform="matrix(1.00, 0.00, -0.00, -1.00, 126.7, 127.0)">s</text><text xml:space="preserve" font-family="GillSans-Light" font-size="41.2" fill="#525252" transform="matrix(1.00, 0.00, -0.00, -1.00, 141.3, 127.0)">i</text><text xml:space="preserve" font-family="GillSans-Light" font-size="41.2" fill="#525252" transform="matrix(1.00, 0.00, -0.00, -1.00, 149.0, 127.0)">m</text><text xml:space="preserve" font-family="GillSans-Light" font-size="41.2" fill="#525252" transform="matrix(1.00, 0.00, -0.00, -1.00, 180.7, 127.0)">i</text><text xml:space="preserve" font-family="GillSans-Light" font-size="41.2" fill="#525252" transform="matrix(1.00, 0.00, -0.00, -1.00, 188.5, 127.0)">l</text><text xml:space="preserve" font-family="GillSans-Light" font-size="41.2" fill="#525252" transform="matrix(1.00, 0.00, -0.00, -1.00, 196.2, 127.0)">a</text><text xml:space="preserve" font-family="GillSans-Light" font-size="41.2" fill="#525252" transform="matrix(1.00, 0.00, -0.00, -1.00, 213.8, 127.0)">r</text><text xml:space="preserve" font-family="GillSans-Light" font-size="41.2" fill="#525252" transform="matrix(1.00, 0.00, -0.00, -1.00, 227.5, 127.0)"> </text><text xml:space="preserve" font-family="GillSans-Light" font-size="41.2" fill="#525252" transform="matrix(1.00, 0.00, -0.00, -1.00, 238.9, 127.0)">c</text><text xml:space="preserve" font-family="GillSans-Light" font-size="41.2" fill="#525252" transform="matrix(1.00, 0.00, -0.00, -1.00, 256.1, 127.0)">o</text><text xml:space="preserve" font-family="GillSans-Light" font-size="41.2" fill="#525252" transform="matrix(1.00, 0.00, -0.00, -1.00, 278.4, 127.0)">n</text><text xml:space="preserve" font-family="GillSans-Light" font-size="41.2" fill="#525252" transform="matrix(1.00, 0.00, -0.00, -1.00, 298.6, 127.0)">t</text><text xml:space="preserve" font-family="GillSans-Light" font-size="41.2" fill="#525252" transform="matrix(1.00, 0.00, -0.00, -1.00, 311.0, 127.0)">e</text><text xml:space="preserve" font-family="GillSans-Light" font-size="41.2" fill="#525252" transform="matrix(1.00, 0.00, -0.00, -1.00, 330.7, 127.0)">x</text><text xml:space="preserve" font-family="GillSans-Light" font-size="41.2" fill="#525252" transform="matrix(1.00, 0.00, -0.00, -1.00, 350.4, 127.0)">t</text><text xml:space="preserve" font-family="GillSans-Light" font-size="41.2" fill="#525252" transform="matrix(1.00, 0.00, -0.00, -1.00, 362.8, 127.0)">s</text><text xml:space="preserve" font-family="GillSans-Light" font-size="41.2" fill="#525252" transform="matrix(1.00, 0.00, -0.00, -1.00, 377.4, 127.0)"> </text><text xml:space="preserve" font-family="GillSans-Light" font-size="41.2" fill="#525252" transform="matrix(1.00, 0.00, -0.00, -1.00, 388.8, 127.0)">g</text><text xml:space="preserve" font-family="GillSans-Light" font-size="41.2" fill="#525252" transform="matrix(1.00, 0.00, -0.00, -1.00, 406.4, 127.0)">e</text><text xml:space="preserve" font-family="GillSans-Light" font-size="41.2" fill="#525252" transform="matrix(1.00, 0.00, -0.00, -1.00, 426.1, 127.0)">t</text><text xml:space="preserve" font-family="GillSans-Light" font-size="41.2" fill="#525252" transform="matrix(1.00, 0.00, -0.00, -1.00, 438.5, 127.0)"> </text><text xml:space="preserve" font-family="GillSans-Light" font-size="41.2" fill="#525252" transform="matrix(1.00, 0.00, -0.00, -1.00, 449.9, 127.0)">u</text><text xml:space="preserve" font-family="GillSans-Light" font-size="41.2" fill="#525252" transform="matrix(1.00, 0.00, -0.00, -1.00, 470.1, 127.0)">p</text><text xml:space="preserve" font-family="GillSans-Light" font-size="41.2" fill="#525252" transform="matrix(1.00, 0.00, -0.00, -1.00, 491.1, 127.0)">d</text><text xml:space="preserve" font-family="GillSans-Light" font-size="41.2" fill="#525252" transform="matrix(1.00, 0.00, -0.00, -1.00, 512.1, 127.0)">a</text><text xml:space="preserve" font-family="GillSans-Light" font-size="41.2" fill="#525252" transform="matrix(1.00, 0.00, -0.00, -1.00, 529.6, 127.0)">t</text><text xml:space="preserve" font-family="GillSans-Light" font-size="41.2" fill="#525252" transform="matrix(1.00, 0.00, -0.00, -1.00, 542.0, 127.0)">e</text><text xml:space="preserve" font-family="GillSans-Light" font-size="41.2" fill="#525252" transform="matrix(1.00, 0.00, -0.00, -1.00, 561.8, 127.0)">d</text><text xml:space="preserve" font-family="GillSans-Light" font-size="41.2" fill="#525252" transform="matrix(1.00, 0.00, -0.00, -1.00, 582.7, 127.0)"> </text><text xml:space="preserve" font-family="GillSans-Light" font-size="41.2" fill="#525252" transform="matrix(1.00, 0.00, -0.00, -1.00, 594.2, 127.0)">s</text><text xml:space="preserve" font-family="GillSans-Light" font-size="41.2" fill="#525252" transform="matrix(1.00, 0.00, -0.00, -1.00, 608.7, 127.0)">e</text><text xml:space="preserve" font-family="GillSans-Light" font-size="41.2" fill="#525252" transform="matrix(1.00, 0.00, -0.00, -1.00, 628.4, 127.0)">p</text><text xml:space="preserve" font-family="GillSans-Light" font-size="41.2" fill="#525252" transform="matrix(1.00, 0.00, -0.00, -1.00, 649.4, 127.0)">a</text><text xml:space="preserve" font-family="GillSans-Light" font-size="41.2" fill="#525252" transform="matrix(1.00, 0.00, -0.00, -1.00, 667.0, 127.0)">r</text><text xml:space="preserve" font-family="GillSans-Light" font-size="41.2" fill="#525252" transform="matrix(1.00, 0.00, -0.00, -1.00, 681.7, 127.0)">a</text><text xml:space="preserve" font-family="GillSans-Light" font-size="41.2" fill="#525252" transform="matrix(1.00, 0.00, -0.00, -1.00, 699.3, 127.0)">t</text><text xml:space="preserve" font-family="GillSans-Light" font-size="41.2" fill="#525252" transform="matrix(1.00, 0.00, -0.00, -1.00, 711.7, 127.0)">e</text><text xml:space="preserve" font-family="GillSans-Light" font-size="41.2" fill="#525252" transform="matrix(1.00, 0.00, -0.00, -1.00, 731.4, 127.0)">l</text><text xml:space="preserve" font-family="GillSans-Light" font-size="41.2" fill="#525252" transform="matrix(1.00, 0.00, -0.00, -1.00, 738.7, 127.0)">y</text><text xml:space="preserve" font-family="GillSans-Light" font-size="41.2" fill="#525252" transform="matrix(1.00, 0.00, -0.00, -1.00, 755.9, 127.0)">)</text></g></svg>