<?xml version="1.0" encoding="UTF-8" standalone="no"?><svg xmlns="http://www.w3.org/2000/svg" xmlns:xlink="http://www.w3.org/1999/xlink" clip-rule="evenodd" stroke-miterlimit="4.00" viewBox="0 0 1024 768"><desc>SVG generated by Keynote</desc><defs></defs><g transform="matrix(1.00, 0.00, -0.00, -1.00, 0.0, 768.0)"><g><clipPath id="clip-1555"><path d="M 0.0 768.0 L 1024.0 768.0 L 1024.0 0.0 L 0.0 0.0 Z M 0.0 768.0 "></path></clipPath><g clip-path="url(#clip-1555)"><image xlink:href="../../293415CD-D1BA-41BB-8703-BAEDA9FFCE27/assets/D3CB8578D364082F6943B53F933CCC32.jpeg" width="1024.00" height="768.00" transform="matrix(1.00, 0.00, -0.00, -1.00, 0.0, 768.0)"></image></g></g><text xml:space="preserve" font-family="GillSans-Light" font-size="72.0" fill="#525252" transform="matrix(1.00, 0.00, -0.00, -1.00, 245.0, 635.0)">F</text><text xml:space="preserve" font-family="GillSans-Light" font-size="72.0" fill="#525252" transform="matrix(1.00, 0.00, -0.00, -1.00, 276.5, 635.0)">L</text><text xml:space="preserve" font-family="GillSans-Light" font-size="72.0" fill="#525252" transform="matrix(1.00, 0.00, -0.00, -1.00, 310.3, 635.0)">I</text><text xml:space="preserve" font-family="GillSans-Light" font-size="72.0" fill="#525252" transform="matrix(1.00, 0.00, -0.00, -1.00, 325.3, 635.0)">F</text><text xml:space="preserve" font-family="GillSans-Light" font-size="72.0" fill="#525252" transform="matrix(1.00, 0.00, -0.00, -1.00, 356.8, 635.0)"> </text><text xml:space="preserve" font-family="GillSans-Light" font-size="72.0" fill="#525252" transform="matrix(1.00, 0.00, -0.00, -1.00, 376.8, 635.0)">P</text><text xml:space="preserve" font-family="GillSans-Light" font-size="72.0" fill="#525252" transform="matrix(1.00, 0.00, -0.00, -1.00, 413.5, 635.0)">R</text><text xml:space="preserve" font-family="GillSans-Light" font-size="72.0" fill="#525252" transform="matrix(1.00, 0.00, -0.00, -1.00, 454.8, 635.0)">E</text><text xml:space="preserve" font-family="GillSans-Light" font-size="72.0" fill="#525252" transform="matrix(1.00, 0.00, -0.00, -1.00, 490.1, 635.0)">D</text><text xml:space="preserve" font-family="GillSans-Light" font-size="72.0" fill="#525252" transform="matrix(1.00, 0.00, -0.00, -1.00, 543.4, 635.0)">I</text><text xml:space="preserve" font-family="GillSans-Light" font-size="72.0" fill="#525252" transform="matrix(1.00, 0.00, -0.00, -1.00, 558.4, 635.0)">C</text><text xml:space="preserve" font-family="GillSans-Light" font-size="72.0" fill="#525252" transform="matrix(1.00, 0.00, -0.00, -1.00, 607.1, 635.0)">T</text><text xml:space="preserve" font-family="GillSans-Light" font-size="72.0" fill="#525252" transform="matrix(1.00, 0.00, -0.00, -1.00, 648.4, 635.0)">I</text><text xml:space="preserve" font-family="GillSans-Light" font-size="72.0" fill="#525252" transform="matrix(1.00, 0.00, -0.00, -1.00, 663.4, 635.0)">O</text><text xml:space="preserve" font-family="GillSans-Light" font-size="72.0" fill="#525252" transform="matrix(1.00, 0.00, -0.00, -1.00, 722.7, 635.0)">N</text><g><clipPath id="clip-1556"><path d="M 151.5 552.5 L 842.7 552.5 L 842.7 56.5 L 151.5 56.5 Z M 151.5 552.5 "></path></clipPath><g clip-path="url(#clip-1556)"><path d="M 497.1 552.0 L 546.4 552.0 L 546.4 502.5 L 497.1 502.5 Z M 497.1 552.0 " fill="#C0BC95"></path><path d="M 447.8 453.0 L 497.1 453.0 L 497.1 403.5 L 447.8 403.5 Z M 447.8 453.0 " fill="#9CCDD5"></path><path d="M 497.1 453.0 L 546.4 453.0 L 546.4 403.5 L 497.1 403.5 Z M 497.1 453.0 " fill="#9CCDD5"></path><path d="M 546.4 453.0 L 595.7 453.0 L 595.7 403.5 L 546.4 403.5 Z M 546.4 453.0 " fill="#9CCDD5"></path><path d="M 398.5 354.0 L 447.8 354.0 L 447.8 304.5 L 398.5 304.5 Z M 398.5 354.0 " fill="#C0BC95"></path><path d="M 447.8 354.0 L 497.1 354.0 L 497.1 304.5 L 447.8 304.5 Z M 447.8 354.0 " fill="#9CCDD5"></path><path d="M 497.1 354.0 L 546.4 354.0 L 546.4 304.5 L 497.1 304.5 Z M 497.1 354.0 " fill="#FFCD56"></path><path d="M 546.4 354.0 L 595.7 354.0 L 595.7 304.5 L 546.4 304.5 Z M 546.4 354.0 " fill="#9CCDD5"></path><path d="M 447.8 255.0 L 497.1 255.0 L 497.1 205.5 L 447.8 205.5 Z M 447.8 255.0 " fill="#C0BC95"></path><path d="M 546.4 255.0 L 595.7 255.0 L 595.7 205.5 L 546.4 205.5 Z M 546.4 255.0 " fill="#C0BC95"></path></g></g><g><clipPath id="clip-1557"><path d="M 151.5 552.5 L 842.7 552.5 L 842.7 56.5 L 151.5 56.5 Z M 151.5 552.5 "></path></clipPath><g clip-path="url(#clip-1557)"><g><clipPath id="clip-1558"><path d="M 152.5 503.0 L 200.8 503.0 L 200.8 551.5 L 152.5 551.5 Z M 152.5 503.0 "></path></clipPath><g clip-path="url(#clip-1558)"><text xml:space="preserve" font-family="GillSans-Light" font-size="30.0" fill="#595E5D" transform="matrix(1.00, 0.00, -0.00, -1.00, 169.0, 518.0)">1</text></g></g></g></g><g><clipPath id="clip-1559"><path d="M 151.5 552.5 L 842.7 552.5 L 842.7 56.5 L 151.5 56.5 Z M 151.5 552.5 "></path></clipPath><g clip-path="url(#clip-1559)"><g><clipPath id="clip-1560"><path d="M 201.8 503.0 L 250.1 503.0 L 250.1 551.5 L 201.8 551.5 Z M 201.8 503.0 "></path></clipPath><g clip-path="url(#clip-1560)"><text xml:space="preserve" font-family="GillSans-Light" font-size="30.0" fill="#595E5D" transform="matrix(1.00, 0.00, -0.00, -1.00, 218.0, 518.0)">8</text></g></g></g></g><g><clipPath id="clip-1561"><path d="M 151.5 552.5 L 842.7 552.5 L 842.7 56.5 L 151.5 56.5 Z M 151.5 552.5 "></path></clipPath><g clip-path="url(#clip-1561)"><g><clipPath id="clip-1562"><path d="M 251.1 503.0 L 299.4 503.0 L 299.4 551.5 L 251.1 551.5 Z M 251.1 503.0 "></path></clipPath><g clip-path="url(#clip-1562)"><text xml:space="preserve" font-family="GillSans-Light" font-size="30.0" fill="#595E5D" transform="matrix(1.00, 0.00, -0.00, -1.00, 268.0, 518.0)">6</text></g></g></g></g><g><clipPath id="clip-1563"><path d="M 151.5 552.5 L 842.7 552.5 L 842.7 56.5 L 151.5 56.5 Z M 151.5 552.5 "></path></clipPath><g clip-path="url(#clip-1563)"><g><clipPath id="clip-1564"><path d="M 300.4 503.0 L 348.7 503.0 L 348.7 551.5 L 300.4 551.5 Z M 300.4 503.0 "></path></clipPath><g clip-path="url(#clip-1564)"><text xml:space="preserve" font-family="GillSans-Light" font-size="30.0" fill="#595E5D" transform="matrix(1.00, 0.00, -0.00, -1.00, 317.0, 518.0)">8</text></g></g></g></g><g><clipPath id="clip-1565"><path d="M 151.5 552.5 L 842.7 552.5 L 842.7 56.5 L 151.5 56.5 Z M 151.5 552.5 "></path></clipPath><g clip-path="url(#clip-1565)"><g><clipPath id="clip-1566"><path d="M 349.7 503.0 L 398.0 503.0 L 398.0 551.5 L 349.7 551.5 Z M 349.7 503.0 "></path></clipPath><g clip-path="url(#clip-1566)"><text xml:space="preserve" font-family="GillSans-Light" font-size="30.0" fill="#595E5D" transform="matrix(1.00, 0.00, -0.00, -1.00, 366.0, 518.0)">4</text></g></g></g></g><g><clipPath id="clip-1567"><path d="M 151.5 552.5 L 842.7 552.5 L 842.7 56.5 L 151.5 56.5 Z M 151.5 552.5 "></path></clipPath><g clip-path="url(#clip-1567)"><g><clipPath id="clip-1568"><path d="M 399.0 503.0 L 447.3 503.0 L 447.3 551.5 L 399.0 551.5 Z M 399.0 503.0 "></path></clipPath><g clip-path="url(#clip-1568)"><text xml:space="preserve" font-family="GillSans-Light" font-size="30.0" fill="#595E5D" transform="matrix(1.00, 0.00, -0.00, -1.00, 416.0, 518.0)">8</text></g></g></g></g><g><clipPath id="clip-1569"><path d="M 151.5 552.5 L 842.7 552.5 L 842.7 56.5 L 151.5 56.5 Z M 151.5 552.5 "></path></clipPath><g clip-path="url(#clip-1569)"><g><clipPath id="clip-1570"><path d="M 448.3 503.0 L 496.6 503.0 L 496.6 551.5 L 448.3 551.5 Z M 448.3 503.0 "></path></clipPath><g clip-path="url(#clip-1570)"><text xml:space="preserve" font-family="GillSans-Light" font-size="30.0" fill="#595E5D" transform="matrix(1.00, 0.00, -0.00, -1.00, 465.0, 518.0)">6</text></g></g></g></g><g><clipPath id="clip-1571"><path d="M 151.5 552.5 L 842.7 552.5 L 842.7 56.5 L 151.5 56.5 Z M 151.5 552.5 "></path></clipPath><g clip-path="url(#clip-1571)"><g><clipPath id="clip-1572"><path d="M 497.6 503.0 L 545.9 503.0 L 545.9 551.5 L 497.6 551.5 Z M 497.6 503.0 "></path></clipPath><g clip-path="url(#clip-1572)"><text xml:space="preserve" font-family="GillSans-Light" font-size="30.0" fill="#595E5D" transform="matrix(1.00, 0.00, -0.00, -1.00, 514.0, 518.0)">8</text></g></g></g></g><g><clipPath id="clip-1573"><path d="M 151.5 552.5 L 842.7 552.5 L 842.7 56.5 L 151.5 56.5 Z M 151.5 552.5 "></path></clipPath><g clip-path="url(#clip-1573)"><g><clipPath id="clip-1574"><path d="M 546.9 503.0 L 595.2 503.0 L 595.2 551.5 L 546.9 551.5 Z M 546.9 503.0 "></path></clipPath><g clip-path="url(#clip-1574)"><text xml:space="preserve" font-family="GillSans-Light" font-size="30.0" fill="#595E5D" transform="matrix(1.00, 0.00, -0.00, -1.00, 564.0, 518.0)">2</text></g></g></g></g><g><clipPath id="clip-1575"><path d="M 151.5 552.5 L 842.7 552.5 L 842.7 56.5 L 151.5 56.5 Z M 151.5 552.5 "></path></clipPath><g clip-path="url(#clip-1575)"><g><clipPath id="clip-1576"><path d="M 596.2 503.0 L 644.5 503.0 L 644.5 551.5 L 596.2 551.5 Z M 596.2 503.0 "></path></clipPath><g clip-path="url(#clip-1576)"><text xml:space="preserve" font-family="GillSans-Light" font-size="30.0" fill="#595E5D" transform="matrix(1.00, 0.00, -0.00, -1.00, 613.0, 518.0)">8</text></g></g></g></g><g><clipPath id="clip-1577"><path d="M 151.5 552.5 L 842.7 552.5 L 842.7 56.5 L 151.5 56.5 Z M 151.5 552.5 "></path></clipPath><g clip-path="url(#clip-1577)"><g><clipPath id="clip-1578"><path d="M 645.5 503.0 L 693.8 503.0 L 693.8 551.5 L 645.5 551.5 Z M 645.5 503.0 "></path></clipPath><g clip-path="url(#clip-1578)"><text xml:space="preserve" font-family="GillSans-Light" font-size="30.0" fill="#595E5D" transform="matrix(1.00, 0.00, -0.00, -1.00, 662.0, 518.0)">6</text></g></g></g></g><g><clipPath id="clip-1579"><path d="M 151.5 552.5 L 842.7 552.5 L 842.7 56.5 L 151.5 56.5 Z M 151.5 552.5 "></path></clipPath><g clip-path="url(#clip-1579)"><g><clipPath id="clip-1580"><path d="M 694.8 503.0 L 743.1 503.0 L 743.1 551.5 L 694.8 551.5 Z M 694.8 503.0 "></path></clipPath><g clip-path="url(#clip-1580)"><text xml:space="preserve" font-family="GillSans-Light" font-size="30.0" fill="#595E5D" transform="matrix(1.00, 0.00, -0.00, -1.00, 711.0, 518.0)">8</text></g></g></g></g><g><clipPath id="clip-1581"><path d="M 151.5 552.5 L 842.7 552.5 L 842.7 56.5 L 151.5 56.5 Z M 151.5 552.5 "></path></clipPath><g clip-path="url(#clip-1581)"><g><clipPath id="clip-1582"><path d="M 744.1 503.0 L 792.4 503.0 L 792.4 551.5 L 744.1 551.5 Z M 744.1 503.0 "></path></clipPath><g clip-path="url(#clip-1582)"><text xml:space="preserve" font-family="GillSans-Light" font-size="30.0" fill="#595E5D" transform="matrix(1.00, 0.00, -0.00, -1.00, 761.0, 518.0)">4</text></g></g></g></g><g><clipPath id="clip-1583"><path d="M 151.5 552.5 L 842.7 552.5 L 842.7 56.5 L 151.5 56.5 Z M 151.5 552.5 "></path></clipPath><g clip-path="url(#clip-1583)"><g><clipPath id="clip-1584"><path d="M 793.4 503.0 L 841.7 503.0 L 841.7 551.5 L 793.4 551.5 Z M 793.4 503.0 "></path></clipPath><g clip-path="url(#clip-1584)"><text xml:space="preserve" font-family="GillSans-Light" font-size="30.0" fill="#595E5D" transform="matrix(1.00, 0.00, -0.00, -1.00, 810.0, 518.0)">8</text></g></g></g></g><g><clipPath id="clip-1585"><path d="M 151.5 552.5 L 842.7 552.5 L 842.7 56.5 L 151.5 56.5 Z M 151.5 552.5 "></path></clipPath><g clip-path="url(#clip-1585)"><g><clipPath id="clip-1586"><path d="M 152.5 404.0 L 200.8 404.0 L 200.8 452.5 L 152.5 452.5 Z M 152.5 404.0 "></path></clipPath><g clip-path="url(#clip-1586)"><text xml:space="preserve" font-family="GillSans-Light" font-size="30.0" fill="#595E5D" transform="matrix(1.00, 0.00, -0.00, -1.00, 169.0, 419.0)">7</text></g></g></g></g><g><clipPath id="clip-1587"><path d="M 151.5 552.5 L 842.7 552.5 L 842.7 56.5 L 151.5 56.5 Z M 151.5 552.5 "></path></clipPath><g clip-path="url(#clip-1587)"><g><clipPath id="clip-1588"><path d="M 201.8 404.0 L 250.1 404.0 L 250.1 452.5 L 201.8 452.5 Z M 201.8 404.0 "></path></clipPath><g clip-path="url(#clip-1588)"><text xml:space="preserve" font-family="GillSans-Light" font-size="30.0" fill="#595E5D" transform="matrix(1.00, 0.00, -0.00, -1.00, 218.0, 419.0)">8</text></g></g></g></g><g><clipPath id="clip-1589"><path d="M 151.5 552.5 L 842.7 552.5 L 842.7 56.5 L 151.5 56.5 Z M 151.5 552.5 "></path></clipPath><g clip-path="url(#clip-1589)"><g><clipPath id="clip-1590"><path d="M 251.1 404.0 L 299.4 404.0 L 299.4 452.5 L 251.1 452.5 Z M 251.1 404.0 "></path></clipPath><g clip-path="url(#clip-1590)"><text xml:space="preserve" font-family="GillSans-Light" font-size="30.0" fill="#595E5D" transform="matrix(1.00, 0.00, -0.00, -1.00, 268.0, 419.0)">7</text></g></g></g></g><g><clipPath id="clip-1591"><path d="M 151.5 552.5 L 842.7 552.5 L 842.7 56.5 L 151.5 56.5 Z M 151.5 552.5 "></path></clipPath><g clip-path="url(#clip-1591)"><g><clipPath id="clip-1592"><path d="M 300.4 404.0 L 348.7 404.0 L 348.7 452.5 L 300.4 452.5 Z M 300.4 404.0 "></path></clipPath><g clip-path="url(#clip-1592)"><text xml:space="preserve" font-family="GillSans-Light" font-size="30.0" fill="#595E5D" transform="matrix(1.00, 0.00, -0.00, -1.00, 317.0, 419.0)">8</text></g></g></g></g><g><clipPath id="clip-1593"><path d="M 151.5 552.5 L 842.7 552.5 L 842.7 56.5 L 151.5 56.5 Z M 151.5 552.5 "></path></clipPath><g clip-path="url(#clip-1593)"><g><clipPath id="clip-1594"><path d="M 349.7 404.0 L 398.0 404.0 L 398.0 452.5 L 349.7 452.5 Z M 349.7 404.0 "></path></clipPath><g clip-path="url(#clip-1594)"><text xml:space="preserve" font-family="GillSans-Light" font-size="30.0" fill="#595E5D" transform="matrix(1.00, 0.00, -0.00, -1.00, 366.0, 419.0)">7</text></g></g></g></g><g><clipPath id="clip-1595"><path d="M 151.5 552.5 L 842.7 552.5 L 842.7 56.5 L 151.5 56.5 Z M 151.5 552.5 "></path></clipPath><g clip-path="url(#clip-1595)"><g><clipPath id="clip-1596"><path d="M 399.0 404.0 L 447.3 404.0 L 447.3 452.5 L 399.0 452.5 Z M 399.0 404.0 "></path></clipPath><g clip-path="url(#clip-1596)"><text xml:space="preserve" font-family="GillSans-Light" font-size="30.0" fill="#595E5D" transform="matrix(1.00, 0.00, -0.00, -1.00, 416.0, 419.0)">8</text></g></g></g></g><g><clipPath id="clip-1597"><path d="M 151.5 552.5 L 842.7 552.5 L 842.7 56.5 L 151.5 56.5 Z M 151.5 552.5 "></path></clipPath><g clip-path="url(#clip-1597)"><g><clipPath id="clip-1598"><path d="M 448.3 404.0 L 496.6 404.0 L 496.6 452.5 L 448.3 452.5 Z M 448.3 404.0 "></path></clipPath><g clip-path="url(#clip-1598)"><text xml:space="preserve" font-family="GillSans-Light" font-size="30.0" fill="#595E5D" transform="matrix(1.00, 0.00, -0.00, -1.00, 465.0, 419.0)">7</text></g></g></g></g><g><clipPath id="clip-1599"><path d="M 151.5 552.5 L 842.7 552.5 L 842.7 56.5 L 151.5 56.5 Z M 151.5 552.5 "></path></clipPath><g clip-path="url(#clip-1599)"><g><clipPath id="clip-1600"><path d="M 497.6 404.0 L 545.9 404.0 L 545.9 452.5 L 497.6 452.5 Z M 497.6 404.0 "></path></clipPath><g clip-path="url(#clip-1600)"><text xml:space="preserve" font-family="GillSans-Light" font-size="30.0" fill="#595E5D" transform="matrix(1.00, 0.00, -0.00, -1.00, 514.0, 419.0)">8</text></g></g></g></g><g><clipPath id="clip-1601"><path d="M 151.5 552.5 L 842.7 552.5 L 842.7 56.5 L 151.5 56.5 Z M 151.5 552.5 "></path></clipPath><g clip-path="url(#clip-1601)"><g><clipPath id="clip-1602"><path d="M 546.9 404.0 L 595.2 404.0 L 595.2 452.5 L 546.9 452.5 Z M 546.9 404.0 "></path></clipPath><g clip-path="url(#clip-1602)"><text xml:space="preserve" font-family="GillSans-Light" font-size="30.0" fill="#595E5D" transform="matrix(1.00, 0.00, -0.00, -1.00, 564.0, 419.0)">7</text></g></g></g></g><g><clipPath id="clip-1603"><path d="M 151.5 552.5 L 842.7 552.5 L 842.7 56.5 L 151.5 56.5 Z M 151.5 552.5 "></path></clipPath><g clip-path="url(#clip-1603)"><g><clipPath id="clip-1604"><path d="M 596.2 404.0 L 644.5 404.0 L 644.5 452.5 L 596.2 452.5 Z M 596.2 404.0 "></path></clipPath><g clip-path="url(#clip-1604)"><text xml:space="preserve" font-family="GillSans-Light" font-size="30.0" fill="#595E5D" transform="matrix(1.00, 0.00, -0.00, -1.00, 613.0, 419.0)">8</text></g></g></g></g><g><clipPath id="clip-1605"><path d="M 151.5 552.5 L 842.7 552.5 L 842.7 56.5 L 151.5 56.5 Z M 151.5 552.5 "></path></clipPath><g clip-path="url(#clip-1605)"><g><clipPath id="clip-1606"><path d="M 645.5 404.0 L 693.8 404.0 L 693.8 452.5 L 645.5 452.5 Z M 645.5 404.0 "></path></clipPath><g clip-path="url(#clip-1606)"><text xml:space="preserve" font-family="GillSans-Light" font-size="30.0" fill="#595E5D" transform="matrix(1.00, 0.00, -0.00, -1.00, 662.0, 419.0)">7</text></g></g></g></g><g><clipPath id="clip-1607"><path d="M 151.5 552.5 L 842.7 552.5 L 842.7 56.5 L 151.5 56.5 Z M 151.5 552.5 "></path></clipPath><g clip-path="url(#clip-1607)"><g><clipPath id="clip-1608"><path d="M 694.8 404.0 L 743.1 404.0 L 743.1 452.5 L 694.8 452.5 Z M 694.8 404.0 "></path></clipPath><g clip-path="url(#clip-1608)"><text xml:space="preserve" font-family="GillSans-Light" font-size="30.0" fill="#595E5D" transform="matrix(1.00, 0.00, -0.00, -1.00, 711.0, 419.0)">8</text></g></g></g></g><g><clipPath id="clip-1609"><path d="M 151.5 552.5 L 842.7 552.5 L 842.7 56.5 L 151.5 56.5 Z M 151.5 552.5 "></path></clipPath><g clip-path="url(#clip-1609)"><g><clipPath id="clip-1610"><path d="M 744.1 404.0 L 792.4 404.0 L 792.4 452.5 L 744.1 452.5 Z M 744.1 404.0 "></path></clipPath><g clip-path="url(#clip-1610)"><text xml:space="preserve" font-family="GillSans-Light" font-size="30.0" fill="#595E5D" transform="matrix(1.00, 0.00, -0.00, -1.00, 761.0, 419.0)">7</text></g></g></g></g><g><clipPath id="clip-1611"><path d="M 151.5 552.5 L 842.7 552.5 L 842.7 56.5 L 151.5 56.5 Z M 151.5 552.5 "></path></clipPath><g clip-path="url(#clip-1611)"><g><clipPath id="clip-1612"><path d="M 793.4 404.0 L 841.7 404.0 L 841.7 452.5 L 793.4 452.5 Z M 793.4 404.0 "></path></clipPath><g clip-path="url(#clip-1612)"><text xml:space="preserve" font-family="GillSans-Light" font-size="30.0" fill="#595E5D" transform="matrix(1.00, 0.00, -0.00, -1.00, 810.0, 419.0)">8</text></g></g></g></g><g><clipPath id="clip-1613"><path d="M 151.5 552.5 L 842.7 552.5 L 842.7 56.5 L 151.5 56.5 Z M 151.5 552.5 "></path></clipPath><g clip-path="url(#clip-1613)"><g><clipPath id="clip-1614"><path d="M 152.5 305.0 L 200.8 305.0 L 200.8 353.5 L 152.5 353.5 Z M 152.5 305.0 "></path></clipPath><g clip-path="url(#clip-1614)"><text xml:space="preserve" font-family="GillSans-Light" font-size="30.0" fill="#595E5D" transform="matrix(1.00, 0.00, -0.00, -1.00, 169.0, 320.0)">5</text></g></g></g></g><g><clipPath id="clip-1615"><path d="M 151.5 552.5 L 842.7 552.5 L 842.7 56.5 L 151.5 56.5 Z M 151.5 552.5 "></path></clipPath><g clip-path="url(#clip-1615)"><g><clipPath id="clip-1616"><path d="M 201.8 305.0 L 250.1 305.0 L 250.1 353.5 L 201.8 353.5 Z M 201.8 305.0 "></path></clipPath><g clip-path="url(#clip-1616)"><text xml:space="preserve" font-family="GillSans-Light" font-size="30.0" fill="#595E5D" transform="matrix(1.00, 0.00, -0.00, -1.00, 218.0, 320.0)">8</text></g></g></g></g><g><clipPath id="clip-1617"><path d="M 151.5 552.5 L 842.7 552.5 L 842.7 56.5 L 151.5 56.5 Z M 151.5 552.5 "></path></clipPath><g clip-path="url(#clip-1617)"><g><clipPath id="clip-1618"><path d="M 251.1 305.0 L 299.4 305.0 L 299.4 353.5 L 251.1 353.5 Z M 251.1 305.0 "></path></clipPath><g clip-path="url(#clip-1618)"><text xml:space="preserve" font-family="GillSans-Light" font-size="30.0" fill="#595E5D" transform="matrix(1.00, 0.00, -0.00, -1.00, 268.0, 320.0)">6</text></g></g></g></g><g><clipPath id="clip-1619"><path d="M 151.5 552.5 L 842.7 552.5 L 842.7 56.5 L 151.5 56.5 Z M 151.5 552.5 "></path></clipPath><g clip-path="url(#clip-1619)"><g><clipPath id="clip-1620"><path d="M 300.4 305.0 L 348.7 305.0 L 348.7 353.5 L 300.4 353.5 Z M 300.4 305.0 "></path></clipPath><g clip-path="url(#clip-1620)"><text xml:space="preserve" font-family="GillSans-Light" font-size="30.0" fill="#595E5D" transform="matrix(1.00, 0.00, -0.00, -1.00, 317.0, 320.0)">8</text></g></g></g></g><g><clipPath id="clip-1621"><path d="M 151.5 552.5 L 842.7 552.5 L 842.7 56.5 L 151.5 56.5 Z M 151.5 552.5 "></path></clipPath><g clip-path="url(#clip-1621)"><g><clipPath id="clip-1622"><path d="M 349.7 305.0 L 398.0 305.0 L 398.0 353.5 L 349.7 353.5 Z M 349.7 305.0 "></path></clipPath><g clip-path="url(#clip-1622)"><text xml:space="preserve" font-family="GillSans-Light" font-size="30.0" fill="#595E5D" transform="matrix(1.00, 0.00, -0.00, -1.00, 366.0, 320.0)">5</text></g></g></g></g><g><clipPath id="clip-1623"><path d="M 151.5 552.5 L 842.7 552.5 L 842.7 56.5 L 151.5 56.5 Z M 151.5 552.5 "></path></clipPath><g clip-path="url(#clip-1623)"><g><clipPath id="clip-1624"><path d="M 399.0 305.0 L 447.3 305.0 L 447.3 353.5 L 399.0 353.5 Z M 399.0 305.0 "></path></clipPath><g clip-path="url(#clip-1624)"><text xml:space="preserve" font-family="GillSans-Light" font-size="30.0" fill="#595E5D" transform="matrix(1.00, 0.00, -0.00, -1.00, 416.0, 320.0)">8</text></g></g></g></g><g><clipPath id="clip-1625"><path d="M 151.5 552.5 L 842.7 552.5 L 842.7 56.5 L 151.5 56.5 Z M 151.5 552.5 "></path></clipPath><g clip-path="url(#clip-1625)"><g><clipPath id="clip-1626"><path d="M 448.3 305.0 L 496.6 305.0 L 496.6 353.5 L 448.3 353.5 Z M 448.3 305.0 "></path></clipPath><g clip-path="url(#clip-1626)"><text xml:space="preserve" font-family="GillSans-Light" font-size="30.0" fill="#595E5D" transform="matrix(1.00, 0.00, -0.00, -1.00, 465.0, 320.0)">6</text></g></g></g></g><g><clipPath id="clip-1627"><path d="M 151.5 552.5 L 842.7 552.5 L 842.7 56.5 L 151.5 56.5 Z M 151.5 552.5 "></path></clipPath><g clip-path="url(#clip-1627)"><g><clipPath id="clip-1628"><path d="M 497.6 305.0 L 545.9 305.0 L 545.9 353.5 L 497.6 353.5 Z M 497.6 305.0 "></path></clipPath><g clip-path="url(#clip-1628)"><text xml:space="preserve" font-family="GillSans-Light" font-size="30.0" fill="#595E5D" transform="matrix(1.00, 0.00, -0.00, -1.00, 518.0, 320.0)">?</text></g></g></g></g><g><clipPath id="clip-1629"><path d="M 151.5 552.5 L 842.7 552.5 L 842.7 56.5 L 151.5 56.5 Z M 151.5 552.5 "></path></clipPath><g clip-path="url(#clip-1629)"><g><clipPath id="clip-1630"><path d="M 546.9 305.0 L 595.2 305.0 L 595.2 353.5 L 546.9 353.5 Z M 546.9 305.0 "></path></clipPath><g clip-path="url(#clip-1630)"><text xml:space="preserve" font-family="GillSans-Light" font-size="30.0" fill="#595E5D" transform="matrix(1.00, 0.00, -0.00, -1.00, 564.0, 320.0)">5</text></g></g></g></g><g><clipPath id="clip-1631"><path d="M 151.5 552.5 L 842.7 552.5 L 842.7 56.5 L 151.5 56.5 Z M 151.5 552.5 "></path></clipPath><g clip-path="url(#clip-1631)"><g><clipPath id="clip-1632"><path d="M 645.5 305.0 L 693.8 305.0 L 693.8 353.5 L 645.5 353.5 Z M 645.5 305.0 "></path></clipPath><g clip-path="url(#clip-1632)"><text xml:space="preserve" font-family="GillSans-Light" font-size="30.0" fill="#595E5D" transform="matrix(1.00, 0.00, -0.00, -1.00, 662.0, 320.0)">6</text></g></g></g></g><g><clipPath id="clip-1633"><path d="M 151.5 552.5 L 842.7 552.5 L 842.7 56.5 L 151.5 56.5 Z M 151.5 552.5 "></path></clipPath><g clip-path="url(#clip-1633)"><g><clipPath id="clip-1634"><path d="M 744.1 305.0 L 792.4 305.0 L 792.4 353.5 L 744.1 353.5 Z M 744.1 305.0 "></path></clipPath><g clip-path="url(#clip-1634)"><text xml:space="preserve" font-family="GillSans-Light" font-size="30.0" fill="#595E5D" transform="matrix(1.00, 0.00, -0.00, -1.00, 761.0, 320.0)">5</text></g></g></g></g><g><clipPath id="clip-1635"><path d="M 151.5 552.5 L 842.7 552.5 L 842.7 56.5 L 151.5 56.5 Z M 151.5 552.5 "></path></clipPath><g clip-path="url(#clip-1635)"><g><clipPath id="clip-1636"><path d="M 152.5 206.0 L 200.8 206.0 L 200.8 254.5 L 152.5 254.5 Z M 152.5 206.0 "></path></clipPath><g clip-path="url(#clip-1636)"><text xml:space="preserve" font-family="GillSans-Light" font-size="30.0" fill="#595E5D" transform="matrix(1.00, 0.00, -0.00, -1.00, 169.0, 221.0)">7</text></g></g></g></g><g><clipPath id="clip-1637"><path d="M 151.5 552.5 L 842.7 552.5 L 842.7 56.5 L 151.5 56.5 Z M 151.5 552.5 "></path></clipPath><g clip-path="url(#clip-1637)"><g><clipPath id="clip-1638"><path d="M 251.1 206.0 L 299.4 206.0 L 299.4 254.5 L 251.1 254.5 Z M 251.1 206.0 "></path></clipPath><g clip-path="url(#clip-1638)"><text xml:space="preserve" font-family="GillSans-Light" font-size="30.0" fill="#595E5D" transform="matrix(1.00, 0.00, -0.00, -1.00, 268.0, 221.0)">7</text></g></g></g></g><g><clipPath id="clip-1639"><path d="M 151.5 552.5 L 842.7 552.5 L 842.7 56.5 L 151.5 56.5 Z M 151.5 552.5 "></path></clipPath><g clip-path="url(#clip-1639)"><g><clipPath id="clip-1640"><path d="M 349.7 206.0 L 398.0 206.0 L 398.0 254.5 L 349.7 254.5 Z M 349.7 206.0 "></path></clipPath><g clip-path="url(#clip-1640)"><text xml:space="preserve" font-family="GillSans-Light" font-size="30.0" fill="#595E5D" transform="matrix(1.00, 0.00, -0.00, -1.00, 366.0, 221.0)">7</text></g></g></g></g><g><clipPath id="clip-1641"><path d="M 151.5 552.5 L 842.7 552.5 L 842.7 56.5 L 151.5 56.5 Z M 151.5 552.5 "></path></clipPath><g clip-path="url(#clip-1641)"><g><clipPath id="clip-1642"><path d="M 448.3 206.0 L 496.6 206.0 L 496.6 254.5 L 448.3 254.5 Z M 448.3 206.0 "></path></clipPath><g clip-path="url(#clip-1642)"><text xml:space="preserve" font-family="GillSans-Light" font-size="30.0" fill="#595E5D" transform="matrix(1.00, 0.00, -0.00, -1.00, 465.0, 221.0)">7</text></g></g></g></g><g><clipPath id="clip-1643"><path d="M 151.5 552.5 L 842.7 552.5 L 842.7 56.5 L 151.5 56.5 Z M 151.5 552.5 "></path></clipPath><g clip-path="url(#clip-1643)"><g><clipPath id="clip-1644"><path d="M 546.9 206.0 L 595.2 206.0 L 595.2 254.5 L 546.9 254.5 Z M 546.9 206.0 "></path></clipPath><g clip-path="url(#clip-1644)"><text xml:space="preserve" font-family="GillSans-Light" font-size="30.0" fill="#595E5D" transform="matrix(1.00, 0.00, -0.00, -1.00, 564.0, 221.0)">7</text></g></g></g></g><g><clipPath id="clip-1645"><path d="M 151.5 552.5 L 842.7 552.5 L 842.7 56.5 L 151.5 56.5 Z M 151.5 552.5 "></path></clipPath><g clip-path="url(#clip-1645)"><g><clipPath id="clip-1646"><path d="M 645.5 206.0 L 693.8 206.0 L 693.8 254.5 L 645.5 254.5 Z M 645.5 206.0 "></path></clipPath><g clip-path="url(#clip-1646)"><text xml:space="preserve" font-family="GillSans-Light" font-size="30.0" fill="#595E5D" transform="matrix(1.00, 0.00, -0.00, -1.00, 662.0, 221.0)">7</text></g></g></g></g><g><clipPath id="clip-1647"><path d="M 151.5 552.5 L 842.7 552.5 L 842.7 56.5 L 151.5 56.5 Z M 151.5 552.5 "></path></clipPath><g clip-path="url(#clip-1647)"><g><clipPath id="clip-1648"><path d="M 744.1 206.0 L 792.4 206.0 L 792.4 254.5 L 744.1 254.5 Z M 744.1 206.0 "></path></clipPath><g clip-path="url(#clip-1648)"><text xml:space="preserve" font-family="GillSans-Light" font-size="30.0" fill="#595E5D" transform="matrix(1.00, 0.00, -0.00, -1.00, 761.0, 221.0)">7</text></g></g></g></g><g><clipPath id="clip-1649"><path d="M 151.5 552.5 L 842.7 552.5 L 842.7 56.5 L 151.5 56.5 Z M 151.5 552.5 "></path></clipPath><g clip-path="url(#clip-1649)"><g><clipPath id="clip-1650"><path d="M 152.5 107.0 L 200.8 107.0 L 200.8 155.5 L 152.5 155.5 Z M 152.5 107.0 "></path></clipPath><g clip-path="url(#clip-1650)"><text xml:space="preserve" font-family="GillSans-Light" font-size="30.0" fill="#595E5D" transform="matrix(1.00, 0.00, -0.00, -1.00, 169.0, 122.0)">3</text></g></g></g></g><g><clipPath id="clip-1651"><path d="M 151.5 552.5 L 842.7 552.5 L 842.7 56.5 L 151.5 56.5 Z M 151.5 552.5 "></path></clipPath><g clip-path="url(#clip-1651)"><g><clipPath id="clip-1652"><path d="M 251.1 107.0 L 299.4 107.0 L 299.4 155.5 L 251.1 155.5 Z M 251.1 107.0 "></path></clipPath><g clip-path="url(#clip-1652)"><text xml:space="preserve" font-family="GillSans-Light" font-size="30.0" fill="#595E5D" transform="matrix(1.00, 0.00, -0.00, -1.00, 268.0, 122.0)">6</text></g></g></g></g><g><clipPath id="clip-1653"><path d="M 151.5 552.5 L 842.7 552.5 L 842.7 56.5 L 151.5 56.5 Z M 151.5 552.5 "></path></clipPath><g clip-path="url(#clip-1653)"><g><clipPath id="clip-1654"><path d="M 349.7 107.0 L 398.0 107.0 L 398.0 155.5 L 349.7 155.5 Z M 349.7 107.0 "></path></clipPath><g clip-path="url(#clip-1654)"><text xml:space="preserve" font-family="GillSans-Light" font-size="30.0" fill="#595E5D" transform="matrix(1.00, 0.00, -0.00, -1.00, 366.0, 122.0)">4</text></g></g></g></g><g><clipPath id="clip-1655"><path d="M 151.5 552.5 L 842.7 552.5 L 842.7 56.5 L 151.5 56.5 Z M 151.5 552.5 "></path></clipPath><g clip-path="url(#clip-1655)"><g><clipPath id="clip-1656"><path d="M 448.3 107.0 L 496.6 107.0 L 496.6 155.5 L 448.3 155.5 Z M 448.3 107.0 "></path></clipPath><g clip-path="url(#clip-1656)"><text xml:space="preserve" font-family="GillSans-Light" font-size="30.0" fill="#595E5D" transform="matrix(1.00, 0.00, -0.00, -1.00, 465.0, 122.0)">6</text></g></g></g></g><g><clipPath id="clip-1657"><path d="M 151.5 552.5 L 842.7 552.5 L 842.7 56.5 L 151.5 56.5 Z M 151.5 552.5 "></path></clipPath><g clip-path="url(#clip-1657)"><g><clipPath id="clip-1658"><path d="M 546.9 107.0 L 595.2 107.0 L 595.2 155.5 L 546.9 155.5 Z M 546.9 107.0 "></path></clipPath><g clip-path="url(#clip-1658)"><text xml:space="preserve" font-family="GillSans-Light" font-size="30.0" fill="#595E5D" transform="matrix(1.00, 0.00, -0.00, -1.00, 564.0, 122.0)">3</text></g></g></g></g><g><clipPath id="clip-1659"><path d="M 151.5 552.5 L 842.7 552.5 L 842.7 56.5 L 151.5 56.5 Z M 151.5 552.5 "></path></clipPath><g clip-path="url(#clip-1659)"><g><clipPath id="clip-1660"><path d="M 645.5 107.0 L 693.8 107.0 L 693.8 155.5 L 645.5 155.5 Z M 645.5 107.0 "></path></clipPath><g clip-path="url(#clip-1660)"><text xml:space="preserve" font-family="GillSans-Light" font-size="30.0" fill="#595E5D" transform="matrix(1.00, 0.00, -0.00, -1.00, 662.0, 122.0)">6</text></g></g></g></g><g><clipPath id="clip-1661"><path d="M 151.5 552.5 L 842.7 552.5 L 842.7 56.5 L 151.5 56.5 Z M 151.5 552.5 "></path></clipPath><g clip-path="url(#clip-1661)"><g><clipPath id="clip-1662"><path d="M 744.1 107.0 L 792.4 107.0 L 792.4 155.5 L 744.1 155.5 Z M 744.1 107.0 "></path></clipPath><g clip-path="url(#clip-1662)"><text xml:space="preserve" font-family="GillSans-Light" font-size="30.0" fill="#595E5D" transform="matrix(1.00, 0.00, -0.00, -1.00, 761.0, 122.0)">4</text></g></g></g></g><g><clipPath id="clip-1663"><path d="M 151.5 552.5 L 842.7 552.5 L 842.7 56.5 L 151.5 56.5 Z M 151.5 552.5 "></path></clipPath><g clip-path="url(#clip-1663)"><path d="M 51.3 1.5 L 51.3 497.5 " fill="none" stroke="#B4B4B4" stroke-width="1.00" transform="matrix(1.00, 0.00, 0.00, -1.00, 150.0, 554.0)"></path><path d="M 100.6 1.5 L 100.6 497.5 " fill="none" stroke="#B4B4B4" stroke-width="1.00" transform="matrix(1.00, 0.00, 0.00, -1.00, 150.0, 554.0)"></path><path d="M 149.9 1.5 L 149.9 497.5 " fill="none" stroke="#B4B4B4" stroke-width="1.00" transform="matrix(1.00, 0.00, 0.00, -1.00, 150.0, 554.0)"></path><path d="M 199.2 1.5 L 199.2 497.5 " fill="none" stroke="#B4B4B4" stroke-width="1.00" transform="matrix(1.00, 0.00, 0.00, -1.00, 150.0, 554.0)"></path><path d="M 248.5 1.5 L 248.5 497.5 " fill="none" stroke="#B4B4B4" stroke-width="1.00" transform="matrix(1.00, 0.00, 0.00, -1.00, 150.0, 554.0)"></path><path d="M 297.8 1.5 L 297.8 497.5 " fill="none" stroke="#B4B4B4" stroke-width="1.00" transform="matrix(1.00, 0.00, 0.00, -1.00, 150.0, 554.0)"></path><path d="M 347.1 1.5 L 347.1 497.5 " fill="none" stroke="#B4B4B4" stroke-width="1.00" transform="matrix(1.00, 0.00, 0.00, -1.00, 150.0, 554.0)"></path><path d="M 396.4 1.5 L 396.4 497.5 " fill="none" stroke="#B4B4B4" stroke-width="1.00" transform="matrix(1.00, 0.00, 0.00, -1.00, 150.0, 554.0)"></path><path d="M 445.7 1.5 L 445.7 497.5 " fill="none" stroke="#B4B4B4" stroke-width="1.00" transform="matrix(1.00, 0.00, 0.00, -1.00, 150.0, 554.0)"></path><path d="M 495.0 1.5 L 495.0 497.5 " fill="none" stroke="#B4B4B4" stroke-width="1.00" transform="matrix(1.00, 0.00, 0.00, -1.00, 150.0, 554.0)"></path><path d="M 544.3 1.5 L 544.3 497.5 " fill="none" stroke="#B4B4B4" stroke-width="1.00" transform="matrix(1.00, 0.00, 0.00, -1.00, 150.0, 554.0)"></path><path d="M 593.6 1.5 L 593.6 497.5 " fill="none" stroke="#B4B4B4" stroke-width="1.00" transform="matrix(1.00, 0.00, 0.00, -1.00, 150.0, 554.0)"></path><path d="M 642.9 1.5 L 642.9 497.5 " fill="none" stroke="#B4B4B4" stroke-width="1.00" transform="matrix(1.00, 0.00, 0.00, -1.00, 150.0, 554.0)"></path><path d="M 1.5 51.5 L 692.7 51.5 " fill="none" stroke="#B4B4B4" stroke-width="1.00" transform="matrix(1.00, 0.00, 0.00, -1.00, 150.0, 554.0)"></path><path d="M 1.5 101.0 L 692.7 101.0 " fill="none" stroke="#B4B4B4" stroke-width="1.00" transform="matrix(1.00, 0.00, 0.00, -1.00, 150.0, 554.0)"></path><path d="M 1.5 150.5 L 692.7 150.5 " fill="none" stroke="#B4B4B4" stroke-width="1.00" transform="matrix(1.00, 0.00, 0.00, -1.00, 150.0, 554.0)"></path><path d="M 1.5 200.0 L 692.7 200.0 " fill="none" stroke="#B4B4B4" stroke-width="1.00" transform="matrix(1.00, 0.00, 0.00, -1.00, 150.0, 554.0)"></path><path d="M 1.5 249.5 L 692.7 249.5 " fill="none" stroke="#B4B4B4" stroke-width="1.00" transform="matrix(1.00, 0.00, 0.00, -1.00, 150.0, 554.0)"></path><path d="M 1.5 299.0 L 692.7 299.0 " fill="none" stroke="#B4B4B4" stroke-width="1.00" transform="matrix(1.00, 0.00, 0.00, -1.00, 150.0, 554.0)"></path><path d="M 1.5 348.5 L 692.7 348.5 " fill="none" stroke="#B4B4B4" stroke-width="1.00" transform="matrix(1.00, 0.00, 0.00, -1.00, 150.0, 554.0)"></path><path d="M 1.5 398.0 L 692.7 398.0 " fill="none" stroke="#B4B4B4" stroke-width="1.00" transform="matrix(1.00, 0.00, 0.00, -1.00, 150.0, 554.0)"></path><path d="M 1.5 447.5 L 692.7 447.5 " fill="none" stroke="#B4B4B4" stroke-width="1.00" transform="matrix(1.00, 0.00, 0.00, -1.00, 150.0, 554.0)"></path><path d="M 2.0 1.5 L 2.0 497.5 " fill="none" stroke="#B4B4B4" stroke-width="1.00" transform="matrix(1.00, 0.00, 0.00, -1.00, 150.0, 554.0)"></path><path d="M 692.2 1.5 L 692.2 497.5 " fill="none" stroke="#B4B4B4" stroke-width="1.00" transform="matrix(1.00, 0.00, 0.00, -1.00, 150.0, 554.0)"></path><path d="M 1.5 2.0 L 692.7 2.0 " fill="none" stroke="#B4B4B4" stroke-width="1.00" transform="matrix(1.00, 0.00, 0.00, -1.00, 150.0, 554.0)"></path><path d="M 1.5 497.0 L 692.7 497.0 " fill="none" stroke="#B4B4B4" stroke-width="1.00" transform="matrix(1.00, 0.00, 0.00, -1.00, 150.0, 554.0)"></path></g></g></g></svg>