<?xml version="1.0" encoding="UTF-8" standalone="no"?><svg xmlns="http://www.w3.org/2000/svg" xmlns:xlink="http://www.w3.org/1999/xlink" clip-rule="evenodd" stroke-miterlimit="4.00" viewBox="0 0 1024 768"><desc>SVG generated by Keynote</desc><defs></defs><g transform="matrix(1.00, 0.00, -0.00, -1.00, 0.0, 768.0)"><g><clipPath id="clip-1895"><path d="M 0.0 768.0 L 1024.0 768.0 L 1024.0 0.0 L 0.0 0.0 Z M 0.0 768.0 "></path></clipPath><g clip-path="url(#clip-1895)"><image xlink:href="../../293415CD-D1BA-41BB-8703-BAEDA9FFCE27/assets/D3CB8578D364082F6943B53F933CCC32.jpeg" width="1024.00" height="768.00" transform="matrix(1.00, 0.00, -0.00, -1.00, 0.0, 768.0)"></image></g></g><text xml:space="preserve" font-family="GillSans-Light" font-size="72.0" fill="#525252" transform="matrix(1.00, 0.00, -0.00, -1.00, 85.0, 659.0)">D</text><text xml:space="preserve" font-family="GillSans-Light" font-size="72.0" fill="#525252" transform="matrix(1.00, 0.00, -0.00, -1.00, 138.3, 659.0)">O</text><text xml:space="preserve" font-family="GillSans-Light" font-size="72.0" fill="#525252" transform="matrix(1.00, 0.00, -0.00, -1.00, 197.6, 659.0)"> </text><text xml:space="preserve" font-family="GillSans-Light" font-size="72.0" fill="#525252" transform="matrix(1.00, 0.00, -0.00, -1.00, 210.4, 659.0)">W</text><text xml:space="preserve" font-family="GillSans-Light" font-size="72.0" fill="#525252" transform="matrix(1.00, 0.00, -0.00, -1.00, 284.6, 659.0)">E</text><text xml:space="preserve" font-family="GillSans-Light" font-size="72.0" fill="#525252" transform="matrix(1.00, 0.00, -0.00, -1.00, 319.9, 659.0)"> </text><text xml:space="preserve" font-family="GillSans-Light" font-size="72.0" fill="#525252" transform="matrix(1.00, 0.00, -0.00, -1.00, 339.9, 659.0)">S</text><text xml:space="preserve" font-family="GillSans-Light" font-size="72.0" fill="#525252" transform="matrix(1.00, 0.00, -0.00, -1.00, 373.7, 659.0)">T</text><text xml:space="preserve" font-family="GillSans-Light" font-size="72.0" fill="#525252" transform="matrix(1.00, 0.00, -0.00, -1.00, 415.0, 659.0)">I</text><text xml:space="preserve" font-family="GillSans-Light" font-size="72.0" fill="#525252" transform="matrix(1.00, 0.00, -0.00, -1.00, 429.9, 659.0)">L</text><text xml:space="preserve" font-family="GillSans-Light" font-size="72.0" fill="#525252" transform="matrix(1.00, 0.00, -0.00, -1.00, 463.7, 659.0)">L</text><text xml:space="preserve" font-family="GillSans-Light" font-size="72.0" fill="#525252" transform="matrix(1.00, 0.00, -0.00, -1.00, 497.5, 659.0)"> </text><text xml:space="preserve" font-family="GillSans-Light" font-size="72.0" fill="#525252" transform="matrix(1.00, 0.00, -0.00, -1.00, 517.5, 659.0)">N</text><text xml:space="preserve" font-family="GillSans-Light" font-size="72.0" fill="#525252" transform="matrix(1.00, 0.00, -0.00, -1.00, 573.0, 659.0)">E</text><text xml:space="preserve" font-family="GillSans-Light" font-size="72.0" fill="#525252" transform="matrix(1.00, 0.00, -0.00, -1.00, 608.4, 659.0)">E</text><text xml:space="preserve" font-family="GillSans-Light" font-size="72.0" fill="#525252" transform="matrix(1.00, 0.00, -0.00, -1.00, 643.7, 659.0)">D</text><text xml:space="preserve" font-family="GillSans-Light" font-size="72.0" fill="#525252" transform="matrix(1.00, 0.00, -0.00, -1.00, 697.0, 659.0)"> </text><text xml:space="preserve" font-family="GillSans-Light" font-size="72.0" fill="#525252" transform="matrix(1.00, 0.00, -0.00, -1.00, 717.0, 659.0)">L</text><text xml:space="preserve" font-family="GillSans-Light" font-size="72.0" fill="#525252" transform="matrix(1.00, 0.00, -0.00, -1.00, 750.8, 659.0)">O</text><text xml:space="preserve" font-family="GillSans-Light" font-size="72.0" fill="#525252" transform="matrix(1.00, 0.00, -0.00, -1.00, 810.1, 659.0)">S</text><text xml:space="preserve" font-family="GillSans-Light" font-size="72.0" fill="#525252" transform="matrix(1.00, 0.00, -0.00, -1.00, 843.9, 659.0)">S</text><text xml:space="preserve" font-family="GillSans-Light" font-size="72.0" fill="#525252" transform="matrix(1.00, 0.00, -0.00, -1.00, 877.7, 659.0)">Y</text><text xml:space="preserve" font-family="GillSans-Light" font-size="72.0" fill="#525252" transform="matrix(1.00, 0.00, -0.00, -1.00, 919.6, 659.0)">?</text><text xml:space="preserve" font-family="GillSans-Light" font-size="25.7" fill="#525252" transform="matrix(1.00, 0.00, -0.00, -1.00, 32.0, 608.6)">•</text><text xml:space="preserve" font-family="GillSans-Light" font-size="31.4" fill="#525252" transform="matrix(1.00, 0.00, -0.00, -1.00, 55.0, 606.0)">M</text><text xml:space="preserve" font-family="GillSans-Light" font-size="31.4" fill="#525252" transform="matrix(1.00, 0.00, -0.00, -1.00, 79.5, 606.0)">a</text><text xml:space="preserve" font-family="GillSans-Light" font-size="31.4" fill="#525252" transform="matrix(1.00, 0.00, -0.00, -1.00, 92.4, 606.0)">y</text><text xml:space="preserve" font-family="GillSans-Light" font-size="31.4" fill="#525252" transform="matrix(1.00, 0.00, -0.00, -1.00, 105.5, 606.0)">b</text><text xml:space="preserve" font-family="GillSans-Light" font-size="31.4" fill="#525252" transform="matrix(1.00, 0.00, -0.00, -1.00, 121.4, 606.0)">e</text><text xml:space="preserve" font-family="GillSans-Light" font-size="31.4" fill="#525252" transform="matrix(1.00, 0.00, -0.00, -1.00, 136.5, 606.0)"> </text><text xml:space="preserve" font-family="GillSans-Light" font-size="31.4" fill="#525252" transform="matrix(1.00, 0.00, -0.00, -1.00, 145.2, 606.0)">w</text><text xml:space="preserve" font-family="GillSans-Light" font-size="31.4" fill="#525252" transform="matrix(1.00, 0.00, -0.00, -1.00, 166.9, 606.0)">e</text><text xml:space="preserve" font-family="GillSans-Light" font-size="31.4" fill="#525252" transform="matrix(1.00, 0.00, -0.00, -1.00, 181.9, 606.0)"> </text><text xml:space="preserve" font-family="GillSans-Light" font-size="31.4" fill="#525252" transform="matrix(1.00, 0.00, -0.00, -1.00, 190.6, 606.0)">d</text><text xml:space="preserve" font-family="GillSans-Light" font-size="31.4" fill="#525252" transform="matrix(1.00, 0.00, -0.00, -1.00, 206.6, 606.0)">o</text><text xml:space="preserve" font-family="GillSans-Light" font-size="31.4" fill="#525252" transform="matrix(1.00, 0.00, -0.00, -1.00, 223.6, 606.0)">n</text><text xml:space="preserve" font-family="GillSans-Light" font-size="31.4" fill="#525252" transform="matrix(1.00, 0.00, -0.00, -1.00, 239.0, 606.0)">’</text><text xml:space="preserve" font-family="GillSans-Light" font-size="31.4" fill="#525252" transform="matrix(1.00, 0.00, -0.00, -1.00, 244.5, 606.0)">t</text><text xml:space="preserve" font-family="GillSans-Light" font-size="31.4" fill="#525252" transform="matrix(1.00, 0.00, -0.00, -1.00, 254.0, 606.0)"> </text><text xml:space="preserve" font-family="GillSans-Light" font-size="31.4" fill="#525252" transform="matrix(1.00, 0.00, -0.00, -1.00, 262.7, 606.0)">n</text><text xml:space="preserve" font-family="GillSans-Light" font-size="31.4" fill="#525252" transform="matrix(1.00, 0.00, -0.00, -1.00, 278.1, 606.0)">e</text><text xml:space="preserve" font-family="GillSans-Light" font-size="31.4" fill="#525252" transform="matrix(1.00, 0.00, -0.00, -1.00, 293.1, 606.0)">e</text><text xml:space="preserve" font-family="GillSans-Light" font-size="31.4" fill="#525252" transform="matrix(1.00, 0.00, -0.00, -1.00, 308.1, 606.0)">d</text><text xml:space="preserve" font-family="GillSans-Light" font-size="31.4" fill="#525252" transform="matrix(1.00, 0.00, -0.00, -1.00, 324.1, 606.0)"> </text><text xml:space="preserve" font-family="GillSans-Light" font-size="31.4" fill="#525252" transform="matrix(1.00, 0.00, -0.00, -1.00, 332.8, 606.0)">(</text><text xml:space="preserve" font-family="GillSans-Light" font-size="31.4" fill="#525252" transform="matrix(1.00, 0.00, -0.00, -1.00, 343.2, 606.0)">i</text><text xml:space="preserve" font-family="GillSans-Light" font-size="31.4" fill="#525252" transform="matrix(1.00, 0.00, -0.00, -1.00, 349.1, 606.0)">n</text><text xml:space="preserve" font-family="GillSans-Light" font-size="31.4" fill="#525252" transform="matrix(1.00, 0.00, -0.00, -1.00, 364.5, 606.0)">h</text><text xml:space="preserve" font-family="GillSans-Light" font-size="31.4" fill="#525252" transform="matrix(1.00, 0.00, -0.00, -1.00, 379.9, 606.0)">e</text><text xml:space="preserve" font-family="GillSans-Light" font-size="31.4" fill="#525252" transform="matrix(1.00, 0.00, -0.00, -1.00, 394.9, 606.0)">r</text><text xml:space="preserve" font-family="GillSans-Light" font-size="31.4" fill="#525252" transform="matrix(1.00, 0.00, -0.00, -1.00, 405.4, 606.0)">e</text><text xml:space="preserve" font-family="GillSans-Light" font-size="31.4" fill="#525252" transform="matrix(1.00, 0.00, -0.00, -1.00, 420.4, 606.0)">n</text><text xml:space="preserve" font-family="GillSans-Light" font-size="31.4" fill="#525252" transform="matrix(1.00, 0.00, -0.00, -1.00, 435.8, 606.0)">t</text><text xml:space="preserve" font-family="GillSans-Light" font-size="31.4" fill="#525252" transform="matrix(1.00, 0.00, -0.00, -1.00, 445.2, 606.0)">l</text><text xml:space="preserve" font-family="GillSans-Light" font-size="31.4" fill="#525252" transform="matrix(1.00, 0.00, -0.00, -1.00, 450.8, 606.0)">y</text><text xml:space="preserve" font-family="GillSans-Light" font-size="31.4" fill="#525252" transform="matrix(1.00, 0.00, -0.00, -1.00, 463.9, 606.0)">)</text><text xml:space="preserve" font-family="GillSans-Light" font-size="31.4" fill="#525252" transform="matrix(1.00, 0.00, -0.00, -1.00, 474.3, 606.0)"> </text><text xml:space="preserve" font-family="GillSans-Light" font-size="31.4" fill="#525252" transform="matrix(1.00, 0.00, -0.00, -1.00, 483.0, 606.0)">l</text><text xml:space="preserve" font-family="GillSans-Light" font-size="31.4" fill="#525252" transform="matrix(1.00, 0.00, -0.00, -1.00, 488.9, 606.0)">o</text><text xml:space="preserve" font-family="GillSans-Light" font-size="31.4" fill="#525252" transform="matrix(1.00, 0.00, -0.00, -1.00, 505.9, 606.0)">s</text><text xml:space="preserve" font-family="GillSans-Light" font-size="31.4" fill="#525252" transform="matrix(1.00, 0.00, -0.00, -1.00, 517.0, 606.0)">s</text><text xml:space="preserve" font-family="GillSans-Light" font-size="31.4" fill="#525252" transform="matrix(1.00, 0.00, -0.00, -1.00, 528.1, 606.0)">y</text><text xml:space="preserve" font-family="GillSans-Light" font-size="31.4" fill="#525252" transform="matrix(1.00, 0.00, -0.00, -1.00, 541.2, 606.0)"> </text><text xml:space="preserve" font-family="GillSans-SemiBold" font-weight="bold" font-size="31.4" fill="#525252" transform="matrix(1.00, 0.00, -0.00, -1.00, 550.0, 606.0)">f</text><text xml:space="preserve" font-family="GillSans-SemiBold" font-weight="bold" font-size="31.4" fill="#525252" transform="matrix(1.00, 0.00, -0.00, -1.00, 558.5, 606.0)">o</text><text xml:space="preserve" font-family="GillSans-SemiBold" font-weight="bold" font-size="31.4" fill="#525252" transform="matrix(1.00, 0.00, -0.00, -1.00, 576.5, 606.0)">r</text><text xml:space="preserve" font-family="GillSans-SemiBold" font-weight="bold" font-size="31.4" fill="#525252" transform="matrix(1.00, 0.00, -0.00, -1.00, 589.6, 606.0)">m</text><text xml:space="preserve" font-family="GillSans-SemiBold" font-weight="bold" font-size="31.4" fill="#525252" transform="matrix(1.00, 0.00, -0.00, -1.00, 616.2, 606.0)">a</text><text xml:space="preserve" font-family="GillSans-SemiBold" font-weight="bold" font-size="31.4" fill="#525252" transform="matrix(1.00, 0.00, -0.00, -1.00, 631.3, 606.0)">t</text><text xml:space="preserve" font-family="GillSans-SemiBold" font-weight="bold" font-size="31.4" fill="#525252" transform="matrix(1.00, 0.00, -0.00, -1.00, 642.9, 606.0)">s</text><text xml:space="preserve" font-family="GillSans-Light" font-size="31.4" fill="#525252" transform="matrix(1.00, 0.00, -0.00, -1.00, 655.5, 606.0)"> </text><text xml:space="preserve" font-family="GillSans-Light" font-size="31.4" fill="#525252" transform="matrix(1.00, 0.00, -0.00, -1.00, 664.2, 606.0)">a</text><text xml:space="preserve" font-family="GillSans-Light" font-size="31.4" fill="#525252" transform="matrix(1.00, 0.00, -0.00, -1.00, 677.6, 606.0)">n</text><text xml:space="preserve" font-family="GillSans-Light" font-size="31.4" fill="#525252" transform="matrix(1.00, 0.00, -0.00, -1.00, 692.5, 606.0)">y</text><text xml:space="preserve" font-family="GillSans-Light" font-size="31.4" fill="#525252" transform="matrix(1.00, 0.00, -0.00, -1.00, 705.6, 606.0)">m</text><text xml:space="preserve" font-family="GillSans-Light" font-size="31.4" fill="#525252" transform="matrix(1.00, 0.00, -0.00, -1.00, 729.8, 606.0)">o</text><text xml:space="preserve" font-family="GillSans-Light" font-size="31.4" fill="#525252" transform="matrix(1.00, 0.00, -0.00, -1.00, 746.8, 606.0)">r</text><text xml:space="preserve" font-family="GillSans-Light" font-size="31.4" fill="#525252" transform="matrix(1.00, 0.00, -0.00, -1.00, 757.2, 606.0)">e</text><text xml:space="preserve" font-family="GillSans-Light" font-size="31.4" fill="#525252" transform="matrix(1.00, 0.00, -0.00, -1.00, 772.2, 606.0)">?</text><text xml:space="preserve" font-family="GillSans-Light" font-size="21.1" fill="#525252" transform="matrix(1.00, 0.00, -0.00, -1.00, 73.0, 550.8)">•</text><text xml:space="preserve" font-family="GillSans-Light" font-size="25.8" fill="#525252" transform="matrix(1.00, 0.00, -0.00, -1.00, 96.0, 549.0)">L</text><text xml:space="preserve" font-family="GillSans-Light" font-size="25.8" fill="#525252" transform="matrix(1.00, 0.00, -0.00, -1.00, 108.1, 549.0)">o</text><text xml:space="preserve" font-family="GillSans-Light" font-size="25.8" fill="#525252" transform="matrix(1.00, 0.00, -0.00, -1.00, 122.1, 549.0)">s</text><text xml:space="preserve" font-family="GillSans-Light" font-size="25.8" fill="#525252" transform="matrix(1.00, 0.00, -0.00, -1.00, 131.2, 549.0)">s</text><text xml:space="preserve" font-family="GillSans-Light" font-size="25.8" fill="#525252" transform="matrix(1.00, 0.00, -0.00, -1.00, 140.3, 549.0)">y</text><text xml:space="preserve" font-family="GillSans-Light" font-size="25.8" fill="#525252" transform="matrix(1.00, 0.00, -0.00, -1.00, 151.0, 549.0)"> </text><text xml:space="preserve" font-family="GillSans-Light" font-size="25.8" fill="#525252" transform="matrix(1.00, 0.00, -0.00, -1.00, 158.2, 549.0)">i</text><text xml:space="preserve" font-family="GillSans-Light" font-size="25.8" fill="#525252" transform="matrix(1.00, 0.00, -0.00, -1.00, 163.0, 549.0)">s</text><text xml:space="preserve" font-family="GillSans-Light" font-size="25.8" fill="#525252" transform="matrix(1.00, 0.00, -0.00, -1.00, 172.1, 549.0)"> </text><text xml:space="preserve" font-family="GillSans-Light" font-size="25.8" fill="#525252" transform="matrix(1.00, 0.00, -0.00, -1.00, 179.3, 549.0)">s</text><text xml:space="preserve" font-family="GillSans-Light" font-size="25.8" fill="#525252" transform="matrix(1.00, 0.00, -0.00, -1.00, 188.4, 549.0)">t</text><text xml:space="preserve" font-family="GillSans-Light" font-size="25.8" fill="#525252" transform="matrix(1.00, 0.00, -0.00, -1.00, 196.2, 549.0)">i</text><text xml:space="preserve" font-family="GillSans-Light" font-size="25.8" fill="#525252" transform="matrix(1.00, 0.00, -0.00, -1.00, 201.0, 549.0)">l</text><text xml:space="preserve" font-family="GillSans-Light" font-size="25.8" fill="#525252" transform="matrix(1.00, 0.00, -0.00, -1.00, 205.9, 549.0)">l</text><text xml:space="preserve" font-family="GillSans-Light" font-size="25.8" fill="#525252" transform="matrix(1.00, 0.00, -0.00, -1.00, 210.7, 549.0)"> </text><text xml:space="preserve" font-family="GillSans-Light" font-size="25.8" fill="#525252" transform="matrix(1.00, 0.00, -0.00, -1.00, 217.9, 549.0)">u</text><text xml:space="preserve" font-family="GillSans-Light" font-size="25.8" fill="#525252" transform="matrix(1.00, 0.00, -0.00, -1.00, 230.5, 549.0)">s</text><text xml:space="preserve" font-family="GillSans-Light" font-size="25.8" fill="#525252" transform="matrix(1.00, 0.00, -0.00, -1.00, 239.6, 549.0)">e</text><text xml:space="preserve" font-family="GillSans-Light" font-size="25.8" fill="#525252" transform="matrix(1.00, 0.00, -0.00, -1.00, 252.0, 549.0)">f</text><text xml:space="preserve" font-family="GillSans-Light" font-size="25.8" fill="#525252" transform="matrix(1.00, 0.00, -0.00, -1.00, 258.2, 549.0)">u</text><text xml:space="preserve" font-family="GillSans-Light" font-size="25.8" fill="#525252" transform="matrix(1.00, 0.00, -0.00, -1.00, 270.8, 549.0)">l</text><text xml:space="preserve" font-family="GillSans-Light" font-size="25.8" fill="#525252" transform="matrix(1.00, 0.00, -0.00, -1.00, 275.6, 549.0)">,</text><text xml:space="preserve" font-family="GillSans-Light" font-size="25.8" fill="#525252" transform="matrix(1.00, 0.00, -0.00, -1.00, 278.1, 549.0)"> </text><text xml:space="preserve" font-family="GillSans-Light" font-size="25.8" fill="#525252" transform="matrix(1.00, 0.00, -0.00, -1.00, 285.3, 549.0)">b</text><text xml:space="preserve" font-family="GillSans-Light" font-size="25.8" fill="#525252" transform="matrix(1.00, 0.00, -0.00, -1.00, 298.1, 549.0)">u</text><text xml:space="preserve" font-family="GillSans-Light" font-size="25.8" fill="#525252" transform="matrix(1.00, 0.00, -0.00, -1.00, 310.8, 549.0)">t</text><text xml:space="preserve" font-family="GillSans-Light" font-size="25.8" fill="#525252" transform="matrix(1.00, 0.00, -0.00, -1.00, 318.5, 549.0)"> </text><text xml:space="preserve" font-family="GillSans-Light" font-size="25.8" fill="#525252" transform="matrix(1.00, 0.00, -0.00, -1.00, 325.7, 549.0)">m</text><text xml:space="preserve" font-family="GillSans-Light" font-size="25.8" fill="#525252" transform="matrix(1.00, 0.00, -0.00, -1.00, 345.6, 549.0)">a</text><text xml:space="preserve" font-family="GillSans-Light" font-size="25.8" fill="#525252" transform="matrix(1.00, 0.00, -0.00, -1.00, 356.1, 549.0)">y</text><text xml:space="preserve" font-family="GillSans-Light" font-size="25.8" fill="#525252" transform="matrix(1.00, 0.00, -0.00, -1.00, 366.9, 549.0)">b</text><text xml:space="preserve" font-family="GillSans-Light" font-size="25.8" fill="#525252" transform="matrix(1.00, 0.00, -0.00, -1.00, 380.0, 549.0)">e</text><text xml:space="preserve" font-family="GillSans-Light" font-size="25.8" fill="#525252" transform="matrix(1.00, 0.00, -0.00, -1.00, 392.4, 549.0)"> </text><text xml:space="preserve" font-family="GillSans-Light" font-size="25.8" fill="#525252" transform="matrix(1.00, 0.00, -0.00, -1.00, 399.5, 549.0)">l</text><text xml:space="preserve" font-family="GillSans-Light" font-size="25.8" fill="#525252" transform="matrix(1.00, 0.00, -0.00, -1.00, 404.4, 549.0)">o</text><text xml:space="preserve" font-family="GillSans-Light" font-size="25.8" fill="#525252" transform="matrix(1.00, 0.00, -0.00, -1.00, 418.3, 549.0)">s</text><text xml:space="preserve" font-family="GillSans-Light" font-size="25.8" fill="#525252" transform="matrix(1.00, 0.00, -0.00, -1.00, 427.4, 549.0)">s</text><text xml:space="preserve" font-family="GillSans-Light" font-size="25.8" fill="#525252" transform="matrix(1.00, 0.00, -0.00, -1.00, 436.6, 549.0)">y</text><text xml:space="preserve" font-family="GillSans-Light" font-size="25.8" fill="#525252" transform="matrix(1.00, 0.00, -0.00, -1.00, 447.3, 549.0)"> </text><text xml:space="preserve" font-family="GillSans-Light" font-size="25.8" fill="#525252" transform="matrix(1.00, 0.00, -0.00, -1.00, 454.4, 549.0)">e</text><text xml:space="preserve" font-family="GillSans-Light" font-size="25.8" fill="#525252" transform="matrix(1.00, 0.00, -0.00, -1.00, 466.8, 549.0)">n</text><text xml:space="preserve" font-family="GillSans-Light" font-size="25.8" fill="#525252" transform="matrix(1.00, 0.00, -0.00, -1.00, 479.4, 549.0)">c</text><text xml:space="preserve" font-family="GillSans-Light" font-size="25.8" fill="#525252" transform="matrix(1.00, 0.00, -0.00, -1.00, 490.2, 549.0)">o</text><text xml:space="preserve" font-family="GillSans-Light" font-size="25.8" fill="#525252" transform="matrix(1.00, 0.00, -0.00, -1.00, 504.1, 549.0)">d</text><text xml:space="preserve" font-family="GillSans-Light" font-size="25.8" fill="#525252" transform="matrix(1.00, 0.00, -0.00, -1.00, 517.2, 549.0)">i</text><text xml:space="preserve" font-family="GillSans-Light" font-size="25.8" fill="#525252" transform="matrix(1.00, 0.00, -0.00, -1.00, 522.1, 549.0)">n</text><text xml:space="preserve" font-family="GillSans-Light" font-size="25.8" fill="#525252" transform="matrix(1.00, 0.00, -0.00, -1.00, 534.7, 549.0)">g</text><text xml:space="preserve" font-family="GillSans-Light" font-size="25.8" fill="#525252" transform="matrix(1.00, 0.00, -0.00, -1.00, 545.7, 549.0)"> </text><text xml:space="preserve" font-family="GillSans-Light" font-size="25.8" fill="#525252" transform="matrix(1.00, 0.00, -0.00, -1.00, 552.9, 549.0)">t</text><text xml:space="preserve" font-family="GillSans-Light" font-size="25.8" fill="#525252" transform="matrix(1.00, 0.00, -0.00, -1.00, 560.6, 549.0)">o</text><text xml:space="preserve" font-family="GillSans-Light" font-size="25.8" fill="#525252" transform="matrix(1.00, 0.00, -0.00, -1.00, 574.6, 549.0)"> </text><text xml:space="preserve" font-family="GillSans-Light" font-size="25.8" fill="#525252" transform="matrix(1.00, 0.00, -0.00, -1.00, 581.7, 549.0)">l</text><text xml:space="preserve" font-family="GillSans-Light" font-size="25.8" fill="#525252" transform="matrix(1.00, 0.00, -0.00, -1.00, 586.6, 549.0)">o</text><text xml:space="preserve" font-family="GillSans-Light" font-size="25.8" fill="#525252" transform="matrix(1.00, 0.00, -0.00, -1.00, 600.5, 549.0)">s</text><text xml:space="preserve" font-family="GillSans-Light" font-size="25.8" fill="#525252" transform="matrix(1.00, 0.00, -0.00, -1.00, 609.7, 549.0)">s</text><text xml:space="preserve" font-family="GillSans-Light" font-size="25.8" fill="#525252" transform="matrix(1.00, 0.00, -0.00, -1.00, 618.8, 549.0)">l</text><text xml:space="preserve" font-family="GillSans-Light" font-size="25.8" fill="#525252" transform="matrix(1.00, 0.00, -0.00, -1.00, 623.6, 549.0)">e</text><text xml:space="preserve" font-family="GillSans-Light" font-size="25.8" fill="#525252" transform="matrix(1.00, 0.00, -0.00, -1.00, 636.0, 549.0)">s</text><text xml:space="preserve" font-family="GillSans-Light" font-size="25.8" fill="#525252" transform="matrix(1.00, 0.00, -0.00, -1.00, 645.1, 549.0)">s</text><text xml:space="preserve" font-family="GillSans-Light" font-size="25.8" fill="#525252" transform="matrix(1.00, 0.00, -0.00, -1.00, 654.2, 549.0)"> </text><text xml:space="preserve" font-family="GillSans-Light" font-size="25.8" fill="#525252" transform="matrix(1.00, 0.00, -0.00, -1.00, 661.4, 549.0)">t</text><text xml:space="preserve" font-family="GillSans-Light" font-size="25.8" fill="#525252" transform="matrix(1.00, 0.00, -0.00, -1.00, 669.1, 549.0)">a</text><text xml:space="preserve" font-family="GillSans-Light" font-size="25.8" fill="#525252" transform="matrix(1.00, 0.00, -0.00, -1.00, 680.1, 549.0)">r</text><text xml:space="preserve" font-family="GillSans-Light" font-size="25.8" fill="#525252" transform="matrix(1.00, 0.00, -0.00, -1.00, 689.3, 549.0)">g</text><text xml:space="preserve" font-family="GillSans-Light" font-size="25.8" fill="#525252" transform="matrix(1.00, 0.00, -0.00, -1.00, 700.3, 549.0)">e</text><text xml:space="preserve" font-family="GillSans-Light" font-size="25.8" fill="#525252" transform="matrix(1.00, 0.00, -0.00, -1.00, 712.7, 549.0)">t</text><text xml:space="preserve" font-family="GillSans-Light" font-size="25.8" fill="#525252" transform="matrix(1.00, 0.00, -0.00, -1.00, 720.4, 549.0)"> </text><text xml:space="preserve" font-family="GillSans-Light" font-size="25.8" fill="#525252" transform="matrix(1.00, 0.00, -0.00, -1.00, 727.6, 549.0)">f</text><text xml:space="preserve" font-family="GillSans-Light" font-size="25.8" fill="#525252" transform="matrix(1.00, 0.00, -0.00, -1.00, 733.5, 549.0)">o</text><text xml:space="preserve" font-family="GillSans-Light" font-size="25.8" fill="#525252" transform="matrix(1.00, 0.00, -0.00, -1.00, 747.5, 549.0)">r</text><text xml:space="preserve" font-family="GillSans-Light" font-size="25.8" fill="#525252" transform="matrix(1.00, 0.00, -0.00, -1.00, 756.7, 549.0)">m</text><text xml:space="preserve" font-family="GillSans-Light" font-size="25.8" fill="#525252" transform="matrix(1.00, 0.00, -0.00, -1.00, 776.6, 549.0)">a</text><text xml:space="preserve" font-family="GillSans-Light" font-size="25.8" fill="#525252" transform="matrix(1.00, 0.00, -0.00, -1.00, 787.6, 549.0)">t</text><text xml:space="preserve" font-family="GillSans-Light" font-size="25.8" fill="#525252" transform="matrix(1.00, 0.00, -0.00, -1.00, 795.3, 549.0)">s</text><text xml:space="preserve" font-family="GillSans-Light" font-size="25.8" fill="#525252" transform="matrix(1.00, 0.00, -0.00, -1.00, 804.4, 549.0)"> </text><text xml:space="preserve" font-family="GillSans-Light" font-size="25.8" fill="#525252" transform="matrix(1.00, 0.00, -0.00, -1.00, 811.6, 549.0)">i</text><text xml:space="preserve" font-family="GillSans-Light" font-size="25.8" fill="#525252" transform="matrix(1.00, 0.00, -0.00, -1.00, 816.4, 549.0)">s</text><text xml:space="preserve" font-family="GillSans-Light" font-size="25.8" fill="#525252" transform="matrix(1.00, 0.00, -0.00, -1.00, 825.6, 549.0)"> </text><text xml:space="preserve" font-family="GillSans-Light" font-size="25.8" fill="#525252" transform="matrix(1.00, 0.00, -0.00, -1.00, 832.7, 549.0)">g</text><text xml:space="preserve" font-family="GillSans-Light" font-size="25.8" fill="#525252" transform="matrix(1.00, 0.00, -0.00, -1.00, 843.7, 549.0)">o</text><text xml:space="preserve" font-family="GillSans-Light" font-size="25.8" fill="#525252" transform="matrix(1.00, 0.00, -0.00, -1.00, 857.7, 549.0)">o</text><text xml:space="preserve" font-family="GillSans-Light" font-size="25.8" fill="#525252" transform="matrix(1.00, 0.00, -0.00, -1.00, 871.6, 549.0)">d</text><text xml:space="preserve" font-family="GillSans-Light" font-size="25.8" fill="#525252" transform="matrix(1.00, 0.00, -0.00, -1.00, 884.7, 549.0)"> </text><text xml:space="preserve" font-family="GillSans-Light" font-size="25.8" fill="#525252" transform="matrix(1.00, 0.00, -0.00, -1.00, 891.9, 549.0)">e</text><text xml:space="preserve" font-family="GillSans-Light" font-size="25.8" fill="#525252" transform="matrix(1.00, 0.00, -0.00, -1.00, 904.2, 549.0)">n</text><text xml:space="preserve" font-family="GillSans-Light" font-size="25.8" fill="#525252" transform="matrix(1.00, 0.00, -0.00, -1.00, 916.9, 549.0)">o</text><text xml:space="preserve" font-family="GillSans-Light" font-size="25.8" fill="#525252" transform="matrix(1.00, 0.00, -0.00, -1.00, 930.8, 549.0)">u</text><text xml:space="preserve" font-family="GillSans-Light" font-size="25.8" fill="#525252" transform="matrix(1.00, 0.00, -0.00, -1.00, 943.5, 549.0)">g</text><text xml:space="preserve" font-family="GillSans-Light" font-size="25.8" fill="#525252" transform="matrix(1.00, 0.00, -0.00, -1.00, 954.5, 549.0)">h</text><text xml:space="preserve" font-family="GillSans-Light" font-size="25.8" fill="#525252" transform="matrix(1.00, 0.00, -0.00, -1.00, 967.1, 549.0)">?</text><image xlink:href="B040EF431F958FA5D6A7CC011329A724.png" width="1920.00" height="1080.00" transform="matrix(0.50, 0.00, -0.00, -0.50, 29.0, 529.0)"></image></g></svg>