<?xml version="1.0" encoding="UTF-8" standalone="no"?><svg xmlns="http://www.w3.org/2000/svg" xmlns:xlink="http://www.w3.org/1999/xlink" clip-rule="evenodd" stroke-miterlimit="4.00" viewBox="0 0 1024 768"><desc>SVG generated by Keynote</desc><defs></defs><g transform="matrix(1.00, 0.00, -0.00, -1.00, 0.0, 768.0)"><g><clipPath id="clip-1879"><path d="M 0.0 768.0 L 1024.0 768.0 L 1024.0 0.0 L 0.0 0.0 Z M 0.0 768.0 "></path></clipPath><g clip-path="url(#clip-1879)"><image xlink:href="../../293415CD-D1BA-41BB-8703-BAEDA9FFCE27/assets/D3CB8578D364082F6943B53F933CCC32.jpeg" width="1024.00" height="768.00" transform="matrix(1.00, 0.00, -0.00, -1.00, 0.0, 768.0)"></image></g></g><image xlink:href="../../2EC40B3E-586A-428A-B3B8-E926AA9DE369/assets/4B188598EDFA7F51788DF979EDD54E6B.png" width="512.00" height="288.00" transform="matrix(2.00, 0.00, -0.00, -2.00, 0.0, 672.0)"></image><text xml:space="preserve" font-family="GillSans-Light" font-size="36.0" fill="#525252" transform="matrix(1.00, 0.00, -0.00, -1.00, 23.0, 712.0)">A</text><text xml:space="preserve" font-family="GillSans-Light" font-size="36.0" fill="#525252" transform="matrix(1.00, 0.00, -0.00, -1.00, 47.0, 712.0)">P</text><text xml:space="preserve" font-family="GillSans-Light" font-size="36.0" fill="#525252" transform="matrix(1.00, 0.00, -0.00, -1.00, 65.4, 712.0)">N</text><text xml:space="preserve" font-family="GillSans-Light" font-size="36.0" fill="#525252" transform="matrix(1.00, 0.00, -0.00, -1.00, 93.1, 712.0)">G</text><text xml:space="preserve" font-family="GillSans-Light" font-size="36.0" fill="#525252" transform="matrix(1.00, 0.00, -0.00, -1.00, 119.0, 712.0)">:</text><text xml:space="preserve" font-family="GillSans-Light" font-size="36.0" fill="#525252" transform="matrix(1.00, 0.00, -0.00, -1.00, 122.5, 712.0)"> </text><text xml:space="preserve" font-family="GillSans-Light" font-size="36.0" fill="#525252" transform="matrix(1.00, 0.00, -0.00, -1.00, 132.5, 712.0)"> </text><text xml:space="preserve" font-family="GillSans-Light" font-size="36.0" fill="#525252" transform="matrix(1.00, 0.00, -0.00, -1.00, 142.5, 712.0)">9</text><text xml:space="preserve" font-family="GillSans-Light" font-size="36.0" fill="#525252" transform="matrix(1.00, 0.00, -0.00, -1.00, 160.5, 712.0)">6</text><text xml:space="preserve" font-family="GillSans-Light" font-size="36.0" fill="#525252" transform="matrix(1.00, 0.00, -0.00, -1.00, 178.5, 712.0)">2</text><text xml:space="preserve" font-family="GillSans-Light" font-size="36.0" fill="#525252" transform="matrix(1.00, 0.00, -0.00, -1.00, 196.5, 712.0)">K</text><text xml:space="preserve" font-family="GillSans-Light" font-size="36.0" fill="#525252" transform="matrix(1.00, 0.00, -0.00, -1.00, 215.6, 712.0)">B</text><path d="M 0.0 0.0 L 713.6 0.0 " fill="none" stroke="#000000" stroke-width="5.00" transform="matrix(0.00, 1.00, 1.00, 0.00, 773.9, 27.2)"></path><text xml:space="preserve" font-family="GillSans-Light" font-size="36.0" fill="#525252" transform="matrix(1.00, 0.00, -0.00, -1.00, 20.0, 32.0)">F</text><text xml:space="preserve" font-family="GillSans-Light" font-size="36.0" fill="#525252" transform="matrix(1.00, 0.00, -0.00, -1.00, 35.8, 32.0)">L</text><text xml:space="preserve" font-family="GillSans-Light" font-size="36.0" fill="#525252" transform="matrix(1.00, 0.00, -0.00, -1.00, 52.7, 32.0)">I</text><text xml:space="preserve" font-family="GillSans-Light" font-size="36.0" fill="#525252" transform="matrix(1.00, 0.00, -0.00, -1.00, 60.2, 32.0)">F</text><text xml:space="preserve" font-family="GillSans-Light" font-size="36.0" fill="#525252" transform="matrix(1.00, 0.00, -0.00, -1.00, 75.9, 32.0)">:</text><text xml:space="preserve" font-family="GillSans-Light" font-size="36.0" fill="#525252" transform="matrix(1.00, 0.00, -0.00, -1.00, 79.4, 32.0)"> </text><text xml:space="preserve" font-family="GillSans-Light" font-size="36.0" fill="#525252" transform="matrix(1.00, 0.00, -0.00, -1.00, 89.4, 32.0)"> </text><text xml:space="preserve" font-family="GillSans-Light" font-size="36.0" fill="#525252" transform="matrix(1.00, 0.00, -0.00, -1.00, 99.4, 32.0)">5</text><text xml:space="preserve" font-family="GillSans-Light" font-size="36.0" fill="#525252" transform="matrix(1.00, 0.00, -0.00, -1.00, 117.4, 32.0)">2</text><text xml:space="preserve" font-family="GillSans-Light" font-size="36.0" fill="#525252" transform="matrix(1.00, 0.00, -0.00, -1.00, 135.4, 32.0)">6</text><text xml:space="preserve" font-family="GillSans-Light" font-size="36.0" fill="#525252" transform="matrix(1.00, 0.00, -0.00, -1.00, 153.4, 32.0)">K</text><text xml:space="preserve" font-family="GillSans-Light" font-size="36.0" fill="#525252" transform="matrix(1.00, 0.00, -0.00, -1.00, 172.5, 32.0)">B</text><text xml:space="preserve" font-family="GillSans-Light" font-size="36.0" fill="#525252" transform="matrix(1.00, 0.00, -0.00, -1.00, 801.0, 53.0)">F</text><text xml:space="preserve" font-family="GillSans-Light" font-size="36.0" fill="#525252" transform="matrix(1.00, 0.00, -0.00, -1.00, 816.8, 53.0)">u</text><text xml:space="preserve" font-family="GillSans-Light" font-size="36.0" fill="#525252" transform="matrix(1.00, 0.00, -0.00, -1.00, 834.4, 53.0)">l</text><text xml:space="preserve" font-family="GillSans-Light" font-size="36.0" fill="#525252" transform="matrix(1.00, 0.00, -0.00, -1.00, 841.2, 53.0)">l</text><text xml:space="preserve" font-family="GillSans-Light" font-size="36.0" fill="#525252" transform="matrix(1.00, 0.00, -0.00, -1.00, 847.6, 53.0)">y</text><text xml:space="preserve" font-family="GillSans-Light" font-size="36.0" fill="#525252" transform="matrix(1.00, 0.00, -0.00, -1.00, 862.6, 53.0)"> </text><text xml:space="preserve" font-family="GillSans-Light" font-size="36.0" fill="#525252" transform="matrix(1.00, 0.00, -0.00, -1.00, 872.6, 53.0)">d</text><text xml:space="preserve" font-family="GillSans-Light" font-size="36.0" fill="#525252" transform="matrix(1.00, 0.00, -0.00, -1.00, 891.0, 53.0)">e</text><text xml:space="preserve" font-family="GillSans-Light" font-size="36.0" fill="#525252" transform="matrix(1.00, 0.00, -0.00, -1.00, 908.2, 53.0)">c</text><text xml:space="preserve" font-family="GillSans-Light" font-size="36.0" fill="#525252" transform="matrix(1.00, 0.00, -0.00, -1.00, 923.2, 53.0)">o</text><text xml:space="preserve" font-family="GillSans-Light" font-size="36.0" fill="#525252" transform="matrix(1.00, 0.00, -0.00, -1.00, 942.7, 53.0)">d</text><text xml:space="preserve" font-family="GillSans-Light" font-size="36.0" fill="#525252" transform="matrix(1.00, 0.00, -0.00, -1.00, 961.1, 53.0)">e</text><text xml:space="preserve" font-family="GillSans-Light" font-size="36.0" fill="#525252" transform="matrix(1.00, 0.00, -0.00, -1.00, 978.3, 53.0)">d</text><text xml:space="preserve" font-family="LucidaGrande" font-size="36.0" fill="#525252" transform="matrix(1.00, 0.00, -0.00, -1.00, 996.7, 53.0)"> </text><text xml:space="preserve" font-family="GillSans-Light" font-size="36.0" fill="#525252" transform="matrix(1.00, 0.00, -0.00, -1.00, 797.0, 12.0)">A</text><text xml:space="preserve" font-family="GillSans-Light" font-size="36.0" fill="#525252" transform="matrix(1.00, 0.00, -0.00, -1.00, 821.0, 12.0)">P</text><text xml:space="preserve" font-family="GillSans-Light" font-size="36.0" fill="#525252" transform="matrix(1.00, 0.00, -0.00, -1.00, 839.4, 12.0)">N</text><text xml:space="preserve" font-family="GillSans-Light" font-size="36.0" fill="#525252" transform="matrix(1.00, 0.00, -0.00, -1.00, 867.1, 12.0)">G</text><text xml:space="preserve" font-family="GillSans-Light" font-size="36.0" fill="#525252" transform="matrix(1.00, 0.00, -0.00, -1.00, 893.0, 12.0)"> </text><text xml:space="preserve" font-family="GillSans-Light" font-size="36.0" fill="#525252" transform="matrix(1.00, 0.00, -0.00, -1.00, 903.0, 12.0)">o</text><text xml:space="preserve" font-family="GillSans-Light" font-size="36.0" fill="#525252" transform="matrix(1.00, 0.00, -0.00, -1.00, 922.5, 12.0)">r</text><text xml:space="preserve" font-family="GillSans-Light" font-size="36.0" fill="#525252" transform="matrix(1.00, 0.00, -0.00, -1.00, 934.5, 12.0)"> </text><text xml:space="preserve" font-family="GillSans-Light" font-size="36.0" fill="#525252" transform="matrix(1.00, 0.00, -0.00, -1.00, 944.5, 12.0)">F</text><text xml:space="preserve" font-family="GillSans-Light" font-size="36.0" fill="#525252" transform="matrix(1.00, 0.00, -0.00, -1.00, 960.3, 12.0)">L</text><text xml:space="preserve" font-family="GillSans-Light" font-size="36.0" fill="#525252" transform="matrix(1.00, 0.00, -0.00, -1.00, 977.2, 12.0)">I</text><text xml:space="preserve" font-family="GillSans-Light" font-size="36.0" fill="#525252" transform="matrix(1.00, 0.00, -0.00, -1.00, 984.7, 12.0)">F</text><text xml:space="preserve" font-family="GillSans-Light" font-size="36.0" fill="#525252" transform="matrix(1.00, 0.00, -0.00, -1.00, 817.0, 716.0)">G</text><text xml:space="preserve" font-family="GillSans-Light" font-size="36.0" fill="#525252" transform="matrix(1.00, 0.00, -0.00, -1.00, 842.9, 716.0)">I</text><text xml:space="preserve" font-family="GillSans-Light" font-size="36.0" fill="#525252" transform="matrix(1.00, 0.00, -0.00, -1.00, 850.4, 716.0)">F</text><text xml:space="preserve" font-family="GillSans-Light" font-size="36.0" fill="#525252" transform="matrix(1.00, 0.00, -0.00, -1.00, 866.2, 716.0)">:</text><text xml:space="preserve" font-family="GillSans-Light" font-size="36.0" fill="#525252" transform="matrix(1.00, 0.00, -0.00, -1.00, 869.6, 716.0)"> </text><text xml:space="preserve" font-family="GillSans-Light" font-size="36.0" fill="#525252" transform="matrix(1.00, 0.00, -0.00, -1.00, 879.6, 716.0)"> </text><text xml:space="preserve" font-family="GillSans-Light" font-size="36.0" fill="#525252" transform="matrix(1.00, 0.00, -0.00, -1.00, 889.6, 716.0)">4</text><text xml:space="preserve" font-family="GillSans-Light" font-size="36.0" fill="#525252" transform="matrix(1.00, 0.00, -0.00, -1.00, 907.6, 716.0)">3</text><text xml:space="preserve" font-family="GillSans-Light" font-size="36.0" fill="#525252" transform="matrix(1.00, 0.00, -0.00, -1.00, 925.6, 716.0)">6</text><text xml:space="preserve" font-family="GillSans-Light" font-size="36.0" fill="#525252" transform="matrix(1.00, 0.00, -0.00, -1.00, 943.6, 716.0)">K</text><text xml:space="preserve" font-family="GillSans-Light" font-size="36.0" fill="#525252" transform="matrix(1.00, 0.00, -0.00, -1.00, 962.7, 716.0)">B</text><text xml:space="preserve" font-family="LucidaGrande" font-size="36.0" fill="#525252" transform="matrix(1.00, 0.00, -0.00, -1.00, 981.8, 716.0)"> </text><text xml:space="preserve" font-family="GillSans-Light" font-size="21.0" fill="#525252" transform="matrix(1.00, 0.00, -0.00, -1.00, 794.0, 688.0)">(</text><text xml:space="preserve" font-family="GillSans-Light" font-size="21.0" fill="#525252" transform="matrix(1.00, 0.00, -0.00, -1.00, 801.0, 688.0)">2</text><text xml:space="preserve" font-family="GillSans-Light" font-size="21.0" fill="#525252" transform="matrix(1.00, 0.00, -0.00, -1.00, 811.5, 688.0)">5</text><text xml:space="preserve" font-family="GillSans-Light" font-size="21.0" fill="#525252" transform="matrix(1.00, 0.00, -0.00, -1.00, 822.0, 688.0)">6</text><text xml:space="preserve" font-family="GillSans-Light" font-size="21.0" fill="#525252" transform="matrix(1.00, 0.00, -0.00, -1.00, 832.5, 688.0)"> </text><text xml:space="preserve" font-family="GillSans-Light" font-size="21.0" fill="#525252" transform="matrix(1.00, 0.00, -0.00, -1.00, 838.3, 688.0)">c</text><text xml:space="preserve" font-family="GillSans-Light" font-size="21.0" fill="#525252" transform="matrix(1.00, 0.00, -0.00, -1.00, 847.1, 688.0)">o</text><text xml:space="preserve" font-family="GillSans-Light" font-size="21.0" fill="#525252" transform="matrix(1.00, 0.00, -0.00, -1.00, 858.5, 688.0)">l</text><text xml:space="preserve" font-family="GillSans-Light" font-size="21.0" fill="#525252" transform="matrix(1.00, 0.00, -0.00, -1.00, 862.4, 688.0)">o</text><text xml:space="preserve" font-family="GillSans-Light" font-size="21.0" fill="#525252" transform="matrix(1.00, 0.00, -0.00, -1.00, 873.8, 688.0)">r</text><text xml:space="preserve" font-family="GillSans-Light" font-size="21.0" fill="#525252" transform="matrix(1.00, 0.00, -0.00, -1.00, 881.6, 688.0)">s</text><text xml:space="preserve" font-family="GillSans-Light" font-size="21.0" fill="#525252" transform="matrix(1.00, 0.00, -0.00, -1.00, 889.1, 688.0)">,</text><text xml:space="preserve" font-family="GillSans-Light" font-size="21.0" fill="#525252" transform="matrix(1.00, 0.00, -0.00, -1.00, 891.1, 688.0)"> </text><text xml:space="preserve" font-family="GillSans-Light" font-size="21.0" fill="#525252" transform="matrix(1.00, 0.00, -0.00, -1.00, 896.9, 688.0)">n</text><text xml:space="preserve" font-family="GillSans-Light" font-size="21.0" fill="#525252" transform="matrix(1.00, 0.00, -0.00, -1.00, 907.2, 688.0)">o</text><text xml:space="preserve" font-family="GillSans-Light" font-size="21.0" fill="#525252" transform="matrix(1.00, 0.00, -0.00, -1.00, 918.6, 688.0)"> </text><text xml:space="preserve" font-family="GillSans-Light" font-size="21.0" fill="#525252" transform="matrix(1.00, 0.00, -0.00, -1.00, 924.4, 688.0)">f</text><text xml:space="preserve" font-family="GillSans-Light" font-size="21.0" fill="#525252" transform="matrix(1.00, 0.00, -0.00, -1.00, 929.5, 688.0)">u</text><text xml:space="preserve" font-family="GillSans-Light" font-size="21.0" fill="#525252" transform="matrix(1.00, 0.00, -0.00, -1.00, 939.8, 688.0)">l</text><text xml:space="preserve" font-family="GillSans-Light" font-size="21.0" fill="#525252" transform="matrix(1.00, 0.00, -0.00, -1.00, 943.7, 688.0)">l</text><text xml:space="preserve" font-family="GillSans-Light" font-size="21.0" fill="#525252" transform="matrix(1.00, 0.00, -0.00, -1.00, 947.7, 688.0)"> </text><text xml:space="preserve" font-family="GillSans-Light" font-size="21.0" fill="#525252" transform="matrix(1.00, 0.00, -0.00, -1.00, 953.5, 688.0)">a</text><text xml:space="preserve" font-family="GillSans-Light" font-size="21.0" fill="#525252" transform="matrix(1.00, 0.00, -0.00, -1.00, 962.5, 688.0)">l</text><text xml:space="preserve" font-family="GillSans-Light" font-size="21.0" fill="#525252" transform="matrix(1.00, 0.00, -0.00, -1.00, 966.4, 688.0)">p</text><text xml:space="preserve" font-family="GillSans-Light" font-size="21.0" fill="#525252" transform="matrix(1.00, 0.00, -0.00, -1.00, 977.1, 688.0)">h</text><text xml:space="preserve" font-family="GillSans-Light" font-size="21.0" fill="#525252" transform="matrix(1.00, 0.00, -0.00, -1.00, 987.4, 688.0)">a</text><text xml:space="preserve" font-family="GillSans-Light" font-size="21.0" fill="#525252" transform="matrix(1.00, 0.00, -0.00, -1.00, 996.4, 688.0)">)</text><text xml:space="preserve" font-family="GillSans-Light" font-size="36.0" fill="#A4A4A4" transform="matrix(1.00, 0.00, -0.00, -1.00, 92.0, 372.0)">5</text><text xml:space="preserve" font-family="GillSans-Light" font-size="36.0" fill="#A4A4A4" transform="matrix(1.00, 0.00, -0.00, -1.00, 110.0, 372.0)">0</text><text xml:space="preserve" font-family="GillSans-Light" font-size="36.0" fill="#A4A4A4" transform="matrix(1.00, 0.00, -0.00, -1.00, 128.0, 372.0)">K</text><text xml:space="preserve" font-family="GillSans-Light" font-size="36.0" fill="#A4A4A4" transform="matrix(1.00, 0.00, -0.00, -1.00, 147.1, 372.0)">B</text><text xml:space="preserve" font-family="GillSans-Light" font-size="36.0" fill="#A4A4A4" transform="matrix(1.00, 0.00, -0.00, -1.00, 339.0, 372.0)">1</text><text xml:space="preserve" font-family="GillSans-Light" font-size="36.0" fill="#A4A4A4" transform="matrix(1.00, 0.00, -0.00, -1.00, 357.0, 372.0)">5</text><text xml:space="preserve" font-family="GillSans-Light" font-size="36.0" fill="#A4A4A4" transform="matrix(1.00, 0.00, -0.00, -1.00, 375.0, 372.0)">0</text><text xml:space="preserve" font-family="GillSans-Light" font-size="36.0" fill="#A4A4A4" transform="matrix(1.00, 0.00, -0.00, -1.00, 393.0, 372.0)">K</text><text xml:space="preserve" font-family="GillSans-Light" font-size="36.0" fill="#A4A4A4" transform="matrix(1.00, 0.00, -0.00, -1.00, 412.1, 372.0)">B</text><text xml:space="preserve" font-family="GillSans-Light" font-size="36.0" fill="#A4A4A4" transform="matrix(1.00, 0.00, -0.00, -1.00, 591.0, 372.0)">2</text><text xml:space="preserve" font-family="GillSans-Light" font-size="36.0" fill="#A4A4A4" transform="matrix(1.00, 0.00, -0.00, -1.00, 609.0, 372.0)">5</text><text xml:space="preserve" font-family="GillSans-Light" font-size="36.0" fill="#A4A4A4" transform="matrix(1.00, 0.00, -0.00, -1.00, 627.0, 372.0)">0</text><text xml:space="preserve" font-family="GillSans-Light" font-size="36.0" fill="#A4A4A4" transform="matrix(1.00, 0.00, -0.00, -1.00, 645.0, 372.0)">K</text><text xml:space="preserve" font-family="GillSans-Light" font-size="36.0" fill="#A4A4A4" transform="matrix(1.00, 0.00, -0.00, -1.00, 664.1, 372.0)">B</text></g></svg>