<?xml version="1.0" encoding="UTF-8" standalone="no"?><svg xmlns="http://www.w3.org/2000/svg" xmlns:xlink="http://www.w3.org/1999/xlink" clip-rule="evenodd" stroke-miterlimit="4.00" viewBox="0 0 1024 768"><desc>SVG generated by Keynote</desc><defs></defs><g transform="matrix(1.00, 0.00, -0.00, -1.00, 0.0, 768.0)"><g><clipPath id="clip-18"><path d="M 0.0 768.0 L 1024.0 768.0 L 1024.0 0.0 L 0.0 0.0 Z M 0.0 768.0 "></path></clipPath><g clip-path="url(#clip-18)"><image xlink:href="../../293415CD-D1BA-41BB-8703-BAEDA9FFCE27/assets/D3CB8578D364082F6943B53F933CCC32.jpeg" width="1024.00" height="768.00" transform="matrix(1.00, 0.00, -0.00, -1.00, 0.0, 768.0)"></image></g></g><text xml:space="preserve" font-family="GillSans-Light" font-size="72.0" fill="#525252" transform="matrix(1.00, 0.00, -0.00, -1.00, 174.0, 661.0)">G</text><text xml:space="preserve" font-family="GillSans-Light" font-size="72.0" fill="#525252" transform="matrix(1.00, 0.00, -0.00, -1.00, 225.8, 661.0)">O</text><text xml:space="preserve" font-family="GillSans-Light" font-size="72.0" fill="#525252" transform="matrix(1.00, 0.00, -0.00, -1.00, 281.5, 661.0)">A</text><text xml:space="preserve" font-family="GillSans-Light" font-size="72.0" fill="#525252" transform="matrix(1.00, 0.00, -0.00, -1.00, 329.5, 661.0)">L</text><text xml:space="preserve" font-family="GillSans-Light" font-size="72.0" fill="#525252" transform="matrix(1.00, 0.00, -0.00, -1.00, 363.3, 661.0)">:</text><text xml:space="preserve" font-family="GillSans-Light" font-size="72.0" fill="#525252" transform="matrix(1.00, 0.00, -0.00, -1.00, 370.3, 661.0)"> </text><text xml:space="preserve" font-family="GillSans-Light" font-size="72.0" fill="#525252" transform="matrix(1.00, 0.00, -0.00, -1.00, 390.3, 661.0)"> </text><text xml:space="preserve" font-family="GillSans-Light" font-size="72.0" fill="#525252" transform="matrix(1.00, 0.00, -0.00, -1.00, 410.2, 661.0)">O</text><text xml:space="preserve" font-family="GillSans-Light" font-size="72.0" fill="#525252" transform="matrix(1.00, 0.00, -0.00, -1.00, 469.5, 661.0)">N</text><text xml:space="preserve" font-family="GillSans-Light" font-size="72.0" fill="#525252" transform="matrix(1.00, 0.00, -0.00, -1.00, 525.0, 661.0)">E</text><text xml:space="preserve" font-family="GillSans-Light" font-size="72.0" fill="#525252" transform="matrix(1.00, 0.00, -0.00, -1.00, 560.4, 661.0)"> </text><text xml:space="preserve" font-family="GillSans-Light" font-size="72.0" fill="#525252" transform="matrix(1.00, 0.00, -0.00, -1.00, 580.3, 661.0)">F</text><text xml:space="preserve" font-family="GillSans-Light" font-size="72.0" fill="#525252" transform="matrix(1.00, 0.00, -0.00, -1.00, 611.9, 661.0)">O</text><text xml:space="preserve" font-family="GillSans-Light" font-size="72.0" fill="#525252" transform="matrix(1.00, 0.00, -0.00, -1.00, 671.2, 661.0)">R</text><text xml:space="preserve" font-family="GillSans-Light" font-size="72.0" fill="#525252" transform="matrix(1.00, 0.00, -0.00, -1.00, 712.5, 661.0)">M</text><text xml:space="preserve" font-family="GillSans-Light" font-size="72.0" fill="#525252" transform="matrix(1.00, 0.00, -0.00, -1.00, 768.7, 661.0)">A</text><text xml:space="preserve" font-family="GillSans-Light" font-size="72.0" fill="#525252" transform="matrix(1.00, 0.00, -0.00, -1.00, 809.5, 661.0)">T</text><text xml:space="preserve" font-family="GillSans-Light" font-size="57.6" fill="#525252" transform="matrix(1.00, 0.00, -0.00, -1.00, 37.0, 592.0)">T</text><text xml:space="preserve" font-family="GillSans-Light" font-size="57.6" fill="#525252" transform="matrix(1.00, 0.00, -0.00, -1.00, 70.0, 592.0)">H</text><text xml:space="preserve" font-family="GillSans-Light" font-size="57.6" fill="#525252" transform="matrix(1.00, 0.00, -0.00, -1.00, 111.5, 592.0)">A</text><text xml:space="preserve" font-family="GillSans-Light" font-size="57.6" fill="#525252" transform="matrix(1.00, 0.00, -0.00, -1.00, 144.1, 592.0)">T</text><text xml:space="preserve" font-family="GillSans-Light" font-size="57.6" fill="#525252" transform="matrix(1.00, 0.00, -0.00, -1.00, 177.2, 592.0)"> </text><text xml:space="preserve" font-family="GillSans-Light" font-size="57.6" fill="#525252" transform="matrix(1.00, 0.00, -0.00, -1.00, 193.1, 592.0)">C</text><text xml:space="preserve" font-family="GillSans-Light" font-size="57.6" fill="#525252" transform="matrix(1.00, 0.00, -0.00, -1.00, 232.1, 592.0)">O</text><text xml:space="preserve" font-family="GillSans-Light" font-size="57.6" fill="#525252" transform="matrix(1.00, 0.00, -0.00, -1.00, 279.5, 592.0)">M</text><text xml:space="preserve" font-family="GillSans-Light" font-size="57.6" fill="#525252" transform="matrix(1.00, 0.00, -0.00, -1.00, 324.5, 592.0)">P</text><text xml:space="preserve" font-family="GillSans-Light" font-size="57.6" fill="#525252" transform="matrix(1.00, 0.00, -0.00, -1.00, 353.9, 592.0)">R</text><text xml:space="preserve" font-family="GillSans-Light" font-size="57.6" fill="#525252" transform="matrix(1.00, 0.00, -0.00, -1.00, 386.9, 592.0)">E</text><text xml:space="preserve" font-family="GillSans-Light" font-size="57.6" fill="#525252" transform="matrix(1.00, 0.00, -0.00, -1.00, 415.1, 592.0)">S</text><text xml:space="preserve" font-family="GillSans-Light" font-size="57.6" fill="#525252" transform="matrix(1.00, 0.00, -0.00, -1.00, 442.2, 592.0)">S</text><text xml:space="preserve" font-family="GillSans-Light" font-size="57.6" fill="#525252" transform="matrix(1.00, 0.00, -0.00, -1.00, 469.2, 592.0)">E</text><text xml:space="preserve" font-family="GillSans-Light" font-size="57.6" fill="#525252" transform="matrix(1.00, 0.00, -0.00, -1.00, 497.5, 592.0)">S</text><text xml:space="preserve" font-family="GillSans-Light" font-size="57.6" fill="#525252" transform="matrix(1.00, 0.00, -0.00, -1.00, 524.5, 592.0)"> </text><text xml:space="preserve" font-family="GillSans-Light" font-size="57.6" fill="#525252" transform="matrix(1.00, 0.00, -0.00, -1.00, 537.0, 592.0)">A</text><text xml:space="preserve" font-family="GillSans-Light" font-size="57.6" fill="#525252" transform="matrix(1.00, 0.00, -0.00, -1.00, 575.5, 592.0)">L</text><text xml:space="preserve" font-family="GillSans-Light" font-size="57.6" fill="#525252" transform="matrix(1.00, 0.00, -0.00, -1.00, 602.5, 592.0)">L</text><text xml:space="preserve" font-family="GillSans-Light" font-size="57.6" fill="#525252" transform="matrix(1.00, 0.00, -0.00, -1.00, 629.5, 592.0)"> </text><text xml:space="preserve" font-family="GillSans-Light" font-size="57.6" fill="#525252" transform="matrix(1.00, 0.00, -0.00, -1.00, 645.5, 592.0)">I</text><text xml:space="preserve" font-family="GillSans-Light" font-size="57.6" fill="#525252" transform="matrix(1.00, 0.00, -0.00, -1.00, 657.5, 592.0)">M</text><text xml:space="preserve" font-family="GillSans-Light" font-size="57.6" fill="#525252" transform="matrix(1.00, 0.00, -0.00, -1.00, 702.5, 592.0)">A</text><text xml:space="preserve" font-family="GillSans-Light" font-size="57.6" fill="#525252" transform="matrix(1.00, 0.00, -0.00, -1.00, 738.0, 592.0)">G</text><text xml:space="preserve" font-family="GillSans-Light" font-size="57.6" fill="#525252" transform="matrix(1.00, 0.00, -0.00, -1.00, 779.5, 592.0)">E</text><text xml:space="preserve" font-family="GillSans-Light" font-size="57.6" fill="#525252" transform="matrix(1.00, 0.00, -0.00, -1.00, 807.7, 592.0)">S</text><text xml:space="preserve" font-family="GillSans-Light" font-size="57.6" fill="#525252" transform="matrix(1.00, 0.00, -0.00, -1.00, 834.7, 592.0)"> </text><text xml:space="preserve" font-family="GillSans-Light" font-size="57.6" fill="#525252" transform="matrix(1.00, 0.00, -0.00, -1.00, 845.0, 592.0)">W</text><text xml:space="preserve" font-family="GillSans-Light" font-size="57.6" fill="#525252" transform="matrix(1.00, 0.00, -0.00, -1.00, 904.3, 592.0)">E</text><text xml:space="preserve" font-family="GillSans-Light" font-size="57.6" fill="#525252" transform="matrix(1.00, 0.00, -0.00, -1.00, 932.6, 592.0)">L</text><text xml:space="preserve" font-family="GillSans-Light" font-size="57.6" fill="#525252" transform="matrix(1.00, 0.00, -0.00, -1.00, 959.6, 592.0)">L</text><image xlink:href="../../70C5CCE6-536A-4311-A28C-A7785A2146E4/assets/5F8A05A5CCEF63890D1B3255D5C28E66.png" width="308.00" height="425.00" transform="matrix(1.11, 0.00, -0.00, -1.11, 657.0, 541.0)"></image><image xlink:href="../../293415CD-D1BA-41BB-8703-BAEDA9FFCE27/assets/1C16030AB97DB6B2EA8A2F3B2C44DE4F.png" width="372.00" height="324.00" transform="matrix(1.00, 0.00, -0.00, -1.00, 126.3, 491.6)" opacity="0.60"></image><g><clipPath id="clip-19"><path d="M 123.0 489.0 L 475.0 489.0 L 475.0 185.0 L 123.0 185.0 Z M 123.0 488.5 "></path></clipPath><g clip-path="url(#clip-19)"><image xlink:href="../../293415CD-D1BA-41BB-8703-BAEDA9FFCE27/assets/EE5A29ED83170CBA14CB40F05B9F6452.png" width="352.00" height="304.00" transform="matrix(1.00, 0.00, -0.00, -1.00, 123.0, 489.0)"></image></g></g></g></svg>