<?xml version="1.0" encoding="UTF-8" standalone="no"?><svg xmlns="http://www.w3.org/2000/svg" xmlns:xlink="http://www.w3.org/1999/xlink" clip-rule="evenodd" stroke-miterlimit="4.00" viewBox="0 0 296 115"><desc>SVG generated by Keynote</desc><defs></defs><g transform="matrix(1.00, 0.00, -0.00, -1.00, 0.0, 115.0)"><path d="M 23.3 114.0 L 272.3 114.0 C 278.5 114.0 281.7 114.0 285.1 112.9 C 288.7 111.6 291.7 108.7 293.0 105.0 C 294.1 101.6 294.1 98.5 294.1 92.1 L 294.1 23.1 C 294.1 16.9 294.1 13.7 293.0 10.3 C 291.7 6.6 288.7 3.7 285.1 2.4 C 281.7 1.3 278.5 1.3 272.2 1.3 L 23.3 1.3 C 17.0 1.3 13.8 1.3 10.5 2.4 C 6.8 3.7 3.9 6.6 2.5 10.3 C 1.5 13.7 1.5 16.9 1.5 23.2 L 1.5 92.2 C 1.5 98.5 1.5 101.6 2.5 105.0 C 3.9 108.7 6.8 111.6 10.5 112.9 C 13.8 114.0 17.0 114.0 23.4 114.0 Z M 23.3 114.0 " fill="#FF534A"></path></g></svg>