<?xml version="1.0" encoding="UTF-8" standalone="no"?><svg xmlns="http://www.w3.org/2000/svg" xmlns:xlink="http://www.w3.org/1999/xlink" clip-rule="evenodd" stroke-miterlimit="4.00" viewBox="0 0 1024 768"><desc>SVG generated by Keynote</desc><defs></defs><g transform="matrix(1.00, 0.00, -0.00, -1.00, 0.0, 768.0)"><g><clipPath id="clip-231"><path d="M 0.0 768.0 L 1024.0 768.0 L 1024.0 0.0 L 0.0 0.0 Z M 0.0 768.0 "></path></clipPath><g clip-path="url(#clip-231)"><image xlink:href="../../293415CD-D1BA-41BB-8703-BAEDA9FFCE27/assets/D3CB8578D364082F6943B53F933CCC32.jpeg" width="1024.00" height="768.00" transform="matrix(1.00, 0.00, -0.00, -1.00, 0.0, 768.0)"></image></g></g><text xml:space="preserve" font-family="GillSans-Light" font-size="72.0" fill="#525252" transform="matrix(1.00, 0.00, -0.00, -1.00, 137.0, 632.0)">I</text><text xml:space="preserve" font-family="GillSans-Light" font-size="72.0" fill="#525252" transform="matrix(1.00, 0.00, -0.00, -1.00, 152.0, 632.0)">N</text><text xml:space="preserve" font-family="GillSans-Light" font-size="72.0" fill="#525252" transform="matrix(1.00, 0.00, -0.00, -1.00, 207.5, 632.0)">T</text><text xml:space="preserve" font-family="GillSans-Light" font-size="72.0" fill="#525252" transform="matrix(1.00, 0.00, -0.00, -1.00, 248.8, 632.0)">E</text><text xml:space="preserve" font-family="GillSans-Light" font-size="72.0" fill="#525252" transform="matrix(1.00, 0.00, -0.00, -1.00, 284.1, 632.0)">R</text><text xml:space="preserve" font-family="GillSans-Light" font-size="72.0" fill="#525252" transform="matrix(1.00, 0.00, -0.00, -1.00, 325.4, 632.0)">L</text><text xml:space="preserve" font-family="GillSans-Light" font-size="72.0" fill="#525252" transform="matrix(1.00, 0.00, -0.00, -1.00, 359.2, 632.0)">A</text><text xml:space="preserve" font-family="GillSans-Light" font-size="72.0" fill="#525252" transform="matrix(1.00, 0.00, -0.00, -1.00, 403.6, 632.0)">C</text><text xml:space="preserve" font-family="GillSans-Light" font-size="72.0" fill="#525252" transform="matrix(1.00, 0.00, -0.00, -1.00, 452.3, 632.0)">I</text><text xml:space="preserve" font-family="GillSans-Light" font-size="72.0" fill="#525252" transform="matrix(1.00, 0.00, -0.00, -1.00, 467.3, 632.0)">N</text><text xml:space="preserve" font-family="GillSans-Light" font-size="72.0" fill="#525252" transform="matrix(1.00, 0.00, -0.00, -1.00, 522.8, 632.0)">G</text><text xml:space="preserve" font-family="GillSans-Light" font-size="72.0" fill="#525252" transform="matrix(1.00, 0.00, -0.00, -1.00, 574.6, 632.0)">:</text><text xml:space="preserve" font-family="GillSans-Light" font-size="72.0" fill="#525252" transform="matrix(1.00, 0.00, -0.00, -1.00, 581.6, 632.0)"> </text><text xml:space="preserve" font-family="GillSans-Light" font-size="72.0" fill="#525252" transform="matrix(1.00, 0.00, -0.00, -1.00, 601.5, 632.0)"> </text><text xml:space="preserve" font-family="GillSans-Light" font-size="72.0" fill="#525252" transform="matrix(1.00, 0.00, -0.00, -1.00, 617.2, 632.0)">A</text><text xml:space="preserve" font-family="GillSans-Light" font-size="72.0" fill="#525252" transform="matrix(1.00, 0.00, -0.00, -1.00, 665.2, 632.0)">D</text><text xml:space="preserve" font-family="GillSans-Light" font-size="72.0" fill="#525252" transform="matrix(1.00, 0.00, -0.00, -1.00, 715.7, 632.0)">A</text><text xml:space="preserve" font-family="GillSans-Light" font-size="72.0" fill="#525252" transform="matrix(1.00, 0.00, -0.00, -1.00, 763.7, 632.0)">M</text><text xml:space="preserve" font-family="LucidaGrande" font-size="72.0" fill="#525252" transform="matrix(1.00, 0.00, -0.00, -1.00, 819.9, 632.0)">∞</text><text xml:space="preserve" font-family="GillSans-Light" font-size="72.0" fill="#525252" transform="matrix(1.00, 0.00, -0.00, -1.00, 887.6, 632.0)"> </text><g><clipPath id="clip-232"><path d="M 151.5 552.5 L 842.7 552.5 L 842.7 56.5 L 151.5 56.5 Z M 151.5 552.5 "></path></clipPath><g clip-path="url(#clip-232)"><g><clipPath id="clip-233"><path d="M 152.5 503.0 L 200.8 503.0 L 200.8 551.5 L 152.5 551.5 Z M 152.5 503.0 "></path></clipPath><g clip-path="url(#clip-233)"><text xml:space="preserve" font-family="GillSans-Light" font-size="30.0" fill="#595E5D" transform="matrix(1.00, 0.00, -0.00, -1.00, 169.0, 518.0)">1</text></g></g></g></g><g><clipPath id="clip-234"><path d="M 151.5 552.5 L 842.7 552.5 L 842.7 56.5 L 151.5 56.5 Z M 151.5 552.5 "></path></clipPath><g clip-path="url(#clip-234)"><g><clipPath id="clip-235"><path d="M 251.1 503.0 L 299.4 503.0 L 299.4 551.5 L 251.1 551.5 Z M 251.1 503.0 "></path></clipPath><g clip-path="url(#clip-235)"><text xml:space="preserve" font-family="GillSans-Light" font-size="30.0" fill="#595E5D" transform="matrix(1.00, 0.00, -0.00, -1.00, 268.0, 518.0)">6</text></g></g></g></g><g><clipPath id="clip-236"><path d="M 151.5 552.5 L 842.7 552.5 L 842.7 56.5 L 151.5 56.5 Z M 151.5 552.5 "></path></clipPath><g clip-path="url(#clip-236)"><g><clipPath id="clip-237"><path d="M 349.7 503.0 L 398.0 503.0 L 398.0 551.5 L 349.7 551.5 Z M 349.7 503.0 "></path></clipPath><g clip-path="url(#clip-237)"><text xml:space="preserve" font-family="GillSans-Light" font-size="30.0" fill="#595E5D" transform="matrix(1.00, 0.00, -0.00, -1.00, 366.0, 518.0)">4</text></g></g></g></g><g><clipPath id="clip-238"><path d="M 151.5 552.5 L 842.7 552.5 L 842.7 56.5 L 151.5 56.5 Z M 151.5 552.5 "></path></clipPath><g clip-path="url(#clip-238)"><g><clipPath id="clip-239"><path d="M 448.3 503.0 L 496.6 503.0 L 496.6 551.5 L 448.3 551.5 Z M 448.3 503.0 "></path></clipPath><g clip-path="url(#clip-239)"><text xml:space="preserve" font-family="GillSans-Light" font-size="30.0" fill="#595E5D" transform="matrix(1.00, 0.00, -0.00, -1.00, 465.0, 518.0)">6</text></g></g></g></g><g><clipPath id="clip-240"><path d="M 151.5 552.5 L 842.7 552.5 L 842.7 56.5 L 151.5 56.5 Z M 151.5 552.5 "></path></clipPath><g clip-path="url(#clip-240)"><g><clipPath id="clip-241"><path d="M 546.9 503.0 L 595.2 503.0 L 595.2 551.5 L 546.9 551.5 Z M 546.9 503.0 "></path></clipPath><g clip-path="url(#clip-241)"><text xml:space="preserve" font-family="GillSans-Light" font-size="30.0" fill="#595E5D" transform="matrix(1.00, 0.00, -0.00, -1.00, 564.0, 518.0)">2</text></g></g></g></g><g><clipPath id="clip-242"><path d="M 151.5 552.5 L 842.7 552.5 L 842.7 56.5 L 151.5 56.5 Z M 151.5 552.5 "></path></clipPath><g clip-path="url(#clip-242)"><g><clipPath id="clip-243"><path d="M 645.5 503.0 L 693.8 503.0 L 693.8 551.5 L 645.5 551.5 Z M 645.5 503.0 "></path></clipPath><g clip-path="url(#clip-243)"><text xml:space="preserve" font-family="GillSans-Light" font-size="30.0" fill="#595E5D" transform="matrix(1.00, 0.00, -0.00, -1.00, 662.0, 518.0)">6</text></g></g></g></g><g><clipPath id="clip-244"><path d="M 151.5 552.5 L 842.7 552.5 L 842.7 56.5 L 151.5 56.5 Z M 151.5 552.5 "></path></clipPath><g clip-path="url(#clip-244)"><g><clipPath id="clip-245"><path d="M 744.1 503.0 L 792.4 503.0 L 792.4 551.5 L 744.1 551.5 Z M 744.1 503.0 "></path></clipPath><g clip-path="url(#clip-245)"><text xml:space="preserve" font-family="GillSans-Light" font-size="30.0" fill="#595E5D" transform="matrix(1.00, 0.00, -0.00, -1.00, 761.0, 518.0)">4</text></g></g></g></g><g><clipPath id="clip-246"><path d="M 151.5 552.5 L 842.7 552.5 L 842.7 56.5 L 151.5 56.5 Z M 151.5 552.5 "></path></clipPath><g clip-path="url(#clip-246)"><g><clipPath id="clip-247"><path d="M 152.5 404.0 L 200.8 404.0 L 200.8 452.5 L 152.5 452.5 Z M 152.5 404.0 "></path></clipPath><g clip-path="url(#clip-247)"><text xml:space="preserve" font-family="GillSans-Light" font-size="30.0" fill="#595E5D" transform="matrix(1.00, 0.00, -0.00, -1.00, 169.0, 419.0)">7</text></g></g></g></g><g><clipPath id="clip-248"><path d="M 151.5 552.5 L 842.7 552.5 L 842.7 56.5 L 151.5 56.5 Z M 151.5 552.5 "></path></clipPath><g clip-path="url(#clip-248)"><g><clipPath id="clip-249"><path d="M 251.1 404.0 L 299.4 404.0 L 299.4 452.5 L 251.1 452.5 Z M 251.1 404.0 "></path></clipPath><g clip-path="url(#clip-249)"><text xml:space="preserve" font-family="GillSans-Light" font-size="30.0" fill="#595E5D" transform="matrix(1.00, 0.00, -0.00, -1.00, 268.0, 419.0)">7</text></g></g></g></g><g><clipPath id="clip-250"><path d="M 151.5 552.5 L 842.7 552.5 L 842.7 56.5 L 151.5 56.5 Z M 151.5 552.5 "></path></clipPath><g clip-path="url(#clip-250)"><g><clipPath id="clip-251"><path d="M 349.7 404.0 L 398.0 404.0 L 398.0 452.5 L 349.7 452.5 Z M 349.7 404.0 "></path></clipPath><g clip-path="url(#clip-251)"><text xml:space="preserve" font-family="GillSans-Light" font-size="30.0" fill="#595E5D" transform="matrix(1.00, 0.00, -0.00, -1.00, 366.0, 419.0)">7</text></g></g></g></g><g><clipPath id="clip-252"><path d="M 151.5 552.5 L 842.7 552.5 L 842.7 56.5 L 151.5 56.5 Z M 151.5 552.5 "></path></clipPath><g clip-path="url(#clip-252)"><g><clipPath id="clip-253"><path d="M 448.3 404.0 L 496.6 404.0 L 496.6 452.5 L 448.3 452.5 Z M 448.3 404.0 "></path></clipPath><g clip-path="url(#clip-253)"><text xml:space="preserve" font-family="GillSans-Light" font-size="30.0" fill="#595E5D" transform="matrix(1.00, 0.00, -0.00, -1.00, 465.0, 419.0)">7</text></g></g></g></g><g><clipPath id="clip-254"><path d="M 151.5 552.5 L 842.7 552.5 L 842.7 56.5 L 151.5 56.5 Z M 151.5 552.5 "></path></clipPath><g clip-path="url(#clip-254)"><g><clipPath id="clip-255"><path d="M 546.9 404.0 L 595.2 404.0 L 595.2 452.5 L 546.9 452.5 Z M 546.9 404.0 "></path></clipPath><g clip-path="url(#clip-255)"><text xml:space="preserve" font-family="GillSans-Light" font-size="30.0" fill="#595E5D" transform="matrix(1.00, 0.00, -0.00, -1.00, 564.0, 419.0)">7</text></g></g></g></g><g><clipPath id="clip-256"><path d="M 151.5 552.5 L 842.7 552.5 L 842.7 56.5 L 151.5 56.5 Z M 151.5 552.5 "></path></clipPath><g clip-path="url(#clip-256)"><g><clipPath id="clip-257"><path d="M 645.5 404.0 L 693.8 404.0 L 693.8 452.5 L 645.5 452.5 Z M 645.5 404.0 "></path></clipPath><g clip-path="url(#clip-257)"><text xml:space="preserve" font-family="GillSans-Light" font-size="30.0" fill="#595E5D" transform="matrix(1.00, 0.00, -0.00, -1.00, 662.0, 419.0)">7</text></g></g></g></g><g><clipPath id="clip-258"><path d="M 151.5 552.5 L 842.7 552.5 L 842.7 56.5 L 151.5 56.5 Z M 151.5 552.5 "></path></clipPath><g clip-path="url(#clip-258)"><g><clipPath id="clip-259"><path d="M 744.1 404.0 L 792.4 404.0 L 792.4 452.5 L 744.1 452.5 Z M 744.1 404.0 "></path></clipPath><g clip-path="url(#clip-259)"><text xml:space="preserve" font-family="GillSans-Light" font-size="30.0" fill="#595E5D" transform="matrix(1.00, 0.00, -0.00, -1.00, 761.0, 419.0)">7</text></g></g></g></g><g><clipPath id="clip-260"><path d="M 151.5 552.5 L 842.7 552.5 L 842.7 56.5 L 151.5 56.5 Z M 151.5 552.5 "></path></clipPath><g clip-path="url(#clip-260)"><g><clipPath id="clip-261"><path d="M 152.5 305.0 L 200.8 305.0 L 200.8 353.5 L 152.5 353.5 Z M 152.5 305.0 "></path></clipPath><g clip-path="url(#clip-261)"><text xml:space="preserve" font-family="GillSans-Light" font-size="30.0" fill="#595E5D" transform="matrix(1.00, 0.00, -0.00, -1.00, 169.0, 320.0)">5</text></g></g></g></g><g><clipPath id="clip-262"><path d="M 151.5 552.5 L 842.7 552.5 L 842.7 56.5 L 151.5 56.5 Z M 151.5 552.5 "></path></clipPath><g clip-path="url(#clip-262)"><g><clipPath id="clip-263"><path d="M 251.1 305.0 L 299.4 305.0 L 299.4 353.5 L 251.1 353.5 Z M 251.1 305.0 "></path></clipPath><g clip-path="url(#clip-263)"><text xml:space="preserve" font-family="GillSans-Light" font-size="30.0" fill="#595E5D" transform="matrix(1.00, 0.00, -0.00, -1.00, 268.0, 320.0)">6</text></g></g></g></g><g><clipPath id="clip-264"><path d="M 151.5 552.5 L 842.7 552.5 L 842.7 56.5 L 151.5 56.5 Z M 151.5 552.5 "></path></clipPath><g clip-path="url(#clip-264)"><g><clipPath id="clip-265"><path d="M 349.7 305.0 L 398.0 305.0 L 398.0 353.5 L 349.7 353.5 Z M 349.7 305.0 "></path></clipPath><g clip-path="url(#clip-265)"><text xml:space="preserve" font-family="GillSans-Light" font-size="30.0" fill="#595E5D" transform="matrix(1.00, 0.00, -0.00, -1.00, 366.0, 320.0)">5</text></g></g></g></g><g><clipPath id="clip-266"><path d="M 151.5 552.5 L 842.7 552.5 L 842.7 56.5 L 151.5 56.5 Z M 151.5 552.5 "></path></clipPath><g clip-path="url(#clip-266)"><g><clipPath id="clip-267"><path d="M 448.3 305.0 L 496.6 305.0 L 496.6 353.5 L 448.3 353.5 Z M 448.3 305.0 "></path></clipPath><g clip-path="url(#clip-267)"><text xml:space="preserve" font-family="GillSans-Light" font-size="30.0" fill="#595E5D" transform="matrix(1.00, 0.00, -0.00, -1.00, 465.0, 320.0)">6</text></g></g></g></g><g><clipPath id="clip-268"><path d="M 151.5 552.5 L 842.7 552.5 L 842.7 56.5 L 151.5 56.5 Z M 151.5 552.5 "></path></clipPath><g clip-path="url(#clip-268)"><g><clipPath id="clip-269"><path d="M 546.9 305.0 L 595.2 305.0 L 595.2 353.5 L 546.9 353.5 Z M 546.9 305.0 "></path></clipPath><g clip-path="url(#clip-269)"><text xml:space="preserve" font-family="GillSans-Light" font-size="30.0" fill="#595E5D" transform="matrix(1.00, 0.00, -0.00, -1.00, 564.0, 320.0)">5</text></g></g></g></g><g><clipPath id="clip-270"><path d="M 151.5 552.5 L 842.7 552.5 L 842.7 56.5 L 151.5 56.5 Z M 151.5 552.5 "></path></clipPath><g clip-path="url(#clip-270)"><g><clipPath id="clip-271"><path d="M 645.5 305.0 L 693.8 305.0 L 693.8 353.5 L 645.5 353.5 Z M 645.5 305.0 "></path></clipPath><g clip-path="url(#clip-271)"><text xml:space="preserve" font-family="GillSans-Light" font-size="30.0" fill="#595E5D" transform="matrix(1.00, 0.00, -0.00, -1.00, 662.0, 320.0)">6</text></g></g></g></g><g><clipPath id="clip-272"><path d="M 151.5 552.5 L 842.7 552.5 L 842.7 56.5 L 151.5 56.5 Z M 151.5 552.5 "></path></clipPath><g clip-path="url(#clip-272)"><g><clipPath id="clip-273"><path d="M 744.1 305.0 L 792.4 305.0 L 792.4 353.5 L 744.1 353.5 Z M 744.1 305.0 "></path></clipPath><g clip-path="url(#clip-273)"><text xml:space="preserve" font-family="GillSans-Light" font-size="30.0" fill="#595E5D" transform="matrix(1.00, 0.00, -0.00, -1.00, 761.0, 320.0)">5</text></g></g></g></g><g><clipPath id="clip-274"><path d="M 151.5 552.5 L 842.7 552.5 L 842.7 56.5 L 151.5 56.5 Z M 151.5 552.5 "></path></clipPath><g clip-path="url(#clip-274)"><g><clipPath id="clip-275"><path d="M 152.5 206.0 L 200.8 206.0 L 200.8 254.5 L 152.5 254.5 Z M 152.5 206.0 "></path></clipPath><g clip-path="url(#clip-275)"><text xml:space="preserve" font-family="GillSans-Light" font-size="30.0" fill="#595E5D" transform="matrix(1.00, 0.00, -0.00, -1.00, 169.0, 221.0)">7</text></g></g></g></g><g><clipPath id="clip-276"><path d="M 151.5 552.5 L 842.7 552.5 L 842.7 56.5 L 151.5 56.5 Z M 151.5 552.5 "></path></clipPath><g clip-path="url(#clip-276)"><g><clipPath id="clip-277"><path d="M 251.1 206.0 L 299.4 206.0 L 299.4 254.5 L 251.1 254.5 Z M 251.1 206.0 "></path></clipPath><g clip-path="url(#clip-277)"><text xml:space="preserve" font-family="GillSans-Light" font-size="30.0" fill="#595E5D" transform="matrix(1.00, 0.00, -0.00, -1.00, 268.0, 221.0)">7</text></g></g></g></g><g><clipPath id="clip-278"><path d="M 151.5 552.5 L 842.7 552.5 L 842.7 56.5 L 151.5 56.5 Z M 151.5 552.5 "></path></clipPath><g clip-path="url(#clip-278)"><g><clipPath id="clip-279"><path d="M 349.7 206.0 L 398.0 206.0 L 398.0 254.5 L 349.7 254.5 Z M 349.7 206.0 "></path></clipPath><g clip-path="url(#clip-279)"><text xml:space="preserve" font-family="GillSans-Light" font-size="30.0" fill="#595E5D" transform="matrix(1.00, 0.00, -0.00, -1.00, 366.0, 221.0)">7</text></g></g></g></g><g><clipPath id="clip-280"><path d="M 151.5 552.5 L 842.7 552.5 L 842.7 56.5 L 151.5 56.5 Z M 151.5 552.5 "></path></clipPath><g clip-path="url(#clip-280)"><g><clipPath id="clip-281"><path d="M 448.3 206.0 L 496.6 206.0 L 496.6 254.5 L 448.3 254.5 Z M 448.3 206.0 "></path></clipPath><g clip-path="url(#clip-281)"><text xml:space="preserve" font-family="GillSans-Light" font-size="30.0" fill="#595E5D" transform="matrix(1.00, 0.00, -0.00, -1.00, 465.0, 221.0)">7</text></g></g></g></g><g><clipPath id="clip-282"><path d="M 151.5 552.5 L 842.7 552.5 L 842.7 56.5 L 151.5 56.5 Z M 151.5 552.5 "></path></clipPath><g clip-path="url(#clip-282)"><g><clipPath id="clip-283"><path d="M 546.9 206.0 L 595.2 206.0 L 595.2 254.5 L 546.9 254.5 Z M 546.9 206.0 "></path></clipPath><g clip-path="url(#clip-283)"><text xml:space="preserve" font-family="GillSans-Light" font-size="30.0" fill="#595E5D" transform="matrix(1.00, 0.00, -0.00, -1.00, 564.0, 221.0)">7</text></g></g></g></g><g><clipPath id="clip-284"><path d="M 151.5 552.5 L 842.7 552.5 L 842.7 56.5 L 151.5 56.5 Z M 151.5 552.5 "></path></clipPath><g clip-path="url(#clip-284)"><g><clipPath id="clip-285"><path d="M 645.5 206.0 L 693.8 206.0 L 693.8 254.5 L 645.5 254.5 Z M 645.5 206.0 "></path></clipPath><g clip-path="url(#clip-285)"><text xml:space="preserve" font-family="GillSans-Light" font-size="30.0" fill="#595E5D" transform="matrix(1.00, 0.00, -0.00, -1.00, 662.0, 221.0)">7</text></g></g></g></g><g><clipPath id="clip-286"><path d="M 151.5 552.5 L 842.7 552.5 L 842.7 56.5 L 151.5 56.5 Z M 151.5 552.5 "></path></clipPath><g clip-path="url(#clip-286)"><g><clipPath id="clip-287"><path d="M 744.1 206.0 L 792.4 206.0 L 792.4 254.5 L 744.1 254.5 Z M 744.1 206.0 "></path></clipPath><g clip-path="url(#clip-287)"><text xml:space="preserve" font-family="GillSans-Light" font-size="30.0" fill="#595E5D" transform="matrix(1.00, 0.00, -0.00, -1.00, 761.0, 221.0)">7</text></g></g></g></g><g><clipPath id="clip-288"><path d="M 151.5 552.5 L 842.7 552.5 L 842.7 56.5 L 151.5 56.5 Z M 151.5 552.5 "></path></clipPath><g clip-path="url(#clip-288)"><g><clipPath id="clip-289"><path d="M 152.5 107.0 L 200.8 107.0 L 200.8 155.5 L 152.5 155.5 Z M 152.5 107.0 "></path></clipPath><g clip-path="url(#clip-289)"><text xml:space="preserve" font-family="GillSans-Light" font-size="30.0" fill="#595E5D" transform="matrix(1.00, 0.00, -0.00, -1.00, 169.0, 122.0)">3</text></g></g></g></g><g><clipPath id="clip-290"><path d="M 151.5 552.5 L 842.7 552.5 L 842.7 56.5 L 151.5 56.5 Z M 151.5 552.5 "></path></clipPath><g clip-path="url(#clip-290)"><g><clipPath id="clip-291"><path d="M 251.1 107.0 L 299.4 107.0 L 299.4 155.5 L 251.1 155.5 Z M 251.1 107.0 "></path></clipPath><g clip-path="url(#clip-291)"><text xml:space="preserve" font-family="GillSans-Light" font-size="30.0" fill="#595E5D" transform="matrix(1.00, 0.00, -0.00, -1.00, 268.0, 122.0)">6</text></g></g></g></g><g><clipPath id="clip-292"><path d="M 151.5 552.5 L 842.7 552.5 L 842.7 56.5 L 151.5 56.5 Z M 151.5 552.5 "></path></clipPath><g clip-path="url(#clip-292)"><g><clipPath id="clip-293"><path d="M 349.7 107.0 L 398.0 107.0 L 398.0 155.5 L 349.7 155.5 Z M 349.7 107.0 "></path></clipPath><g clip-path="url(#clip-293)"><text xml:space="preserve" font-family="GillSans-Light" font-size="30.0" fill="#595E5D" transform="matrix(1.00, 0.00, -0.00, -1.00, 366.0, 122.0)">4</text></g></g></g></g><g><clipPath id="clip-294"><path d="M 151.5 552.5 L 842.7 552.5 L 842.7 56.5 L 151.5 56.5 Z M 151.5 552.5 "></path></clipPath><g clip-path="url(#clip-294)"><g><clipPath id="clip-295"><path d="M 448.3 107.0 L 496.6 107.0 L 496.6 155.5 L 448.3 155.5 Z M 448.3 107.0 "></path></clipPath><g clip-path="url(#clip-295)"><text xml:space="preserve" font-family="GillSans-Light" font-size="30.0" fill="#595E5D" transform="matrix(1.00, 0.00, -0.00, -1.00, 465.0, 122.0)">6</text></g></g></g></g><g><clipPath id="clip-296"><path d="M 151.5 552.5 L 842.7 552.5 L 842.7 56.5 L 151.5 56.5 Z M 151.5 552.5 "></path></clipPath><g clip-path="url(#clip-296)"><g><clipPath id="clip-297"><path d="M 546.9 107.0 L 595.2 107.0 L 595.2 155.5 L 546.9 155.5 Z M 546.9 107.0 "></path></clipPath><g clip-path="url(#clip-297)"><text xml:space="preserve" font-family="GillSans-Light" font-size="30.0" fill="#595E5D" transform="matrix(1.00, 0.00, -0.00, -1.00, 564.0, 122.0)">3</text></g></g></g></g><g><clipPath id="clip-298"><path d="M 151.5 552.5 L 842.7 552.5 L 842.7 56.5 L 151.5 56.5 Z M 151.5 552.5 "></path></clipPath><g clip-path="url(#clip-298)"><g><clipPath id="clip-299"><path d="M 645.5 107.0 L 693.8 107.0 L 693.8 155.5 L 645.5 155.5 Z M 645.5 107.0 "></path></clipPath><g clip-path="url(#clip-299)"><text xml:space="preserve" font-family="GillSans-Light" font-size="30.0" fill="#595E5D" transform="matrix(1.00, 0.00, -0.00, -1.00, 662.0, 122.0)">6</text></g></g></g></g><g><clipPath id="clip-300"><path d="M 151.5 552.5 L 842.7 552.5 L 842.7 56.5 L 151.5 56.5 Z M 151.5 552.5 "></path></clipPath><g clip-path="url(#clip-300)"><g><clipPath id="clip-301"><path d="M 744.1 107.0 L 792.4 107.0 L 792.4 155.5 L 744.1 155.5 Z M 744.1 107.0 "></path></clipPath><g clip-path="url(#clip-301)"><text xml:space="preserve" font-family="GillSans-Light" font-size="30.0" fill="#595E5D" transform="matrix(1.00, 0.00, -0.00, -1.00, 761.0, 122.0)">4</text></g></g></g></g><g><clipPath id="clip-302"><path d="M 151.5 552.5 L 842.7 552.5 L 842.7 56.5 L 151.5 56.5 Z M 151.5 552.5 "></path></clipPath><g clip-path="url(#clip-302)"><path d="M 51.3 1.5 L 51.3 497.5 " fill="none" stroke="#B4B4B4" stroke-width="1.00" transform="matrix(1.00, 0.00, 0.00, -1.00, 150.0, 554.0)"></path><path d="M 100.6 1.5 L 100.6 497.5 " fill="none" stroke="#B4B4B4" stroke-width="1.00" transform="matrix(1.00, 0.00, 0.00, -1.00, 150.0, 554.0)"></path><path d="M 149.9 1.5 L 149.9 497.5 " fill="none" stroke="#B4B4B4" stroke-width="1.00" transform="matrix(1.00, 0.00, 0.00, -1.00, 150.0, 554.0)"></path><path d="M 199.2 1.5 L 199.2 497.5 " fill="none" stroke="#B4B4B4" stroke-width="1.00" transform="matrix(1.00, 0.00, 0.00, -1.00, 150.0, 554.0)"></path><path d="M 248.5 1.5 L 248.5 497.5 " fill="none" stroke="#B4B4B4" stroke-width="1.00" transform="matrix(1.00, 0.00, 0.00, -1.00, 150.0, 554.0)"></path><path d="M 297.8 1.5 L 297.8 497.5 " fill="none" stroke="#B4B4B4" stroke-width="1.00" transform="matrix(1.00, 0.00, 0.00, -1.00, 150.0, 554.0)"></path><path d="M 347.1 1.5 L 347.1 497.5 " fill="none" stroke="#B4B4B4" stroke-width="1.00" transform="matrix(1.00, 0.00, 0.00, -1.00, 150.0, 554.0)"></path><path d="M 396.4 1.5 L 396.4 497.5 " fill="none" stroke="#B4B4B4" stroke-width="1.00" transform="matrix(1.00, 0.00, 0.00, -1.00, 150.0, 554.0)"></path><path d="M 445.7 1.5 L 445.7 497.5 " fill="none" stroke="#B4B4B4" stroke-width="1.00" transform="matrix(1.00, 0.00, 0.00, -1.00, 150.0, 554.0)"></path><path d="M 495.0 1.5 L 495.0 497.5 " fill="none" stroke="#B4B4B4" stroke-width="1.00" transform="matrix(1.00, 0.00, 0.00, -1.00, 150.0, 554.0)"></path><path d="M 544.3 1.5 L 544.3 497.5 " fill="none" stroke="#B4B4B4" stroke-width="1.00" transform="matrix(1.00, 0.00, 0.00, -1.00, 150.0, 554.0)"></path><path d="M 593.6 1.5 L 593.6 497.5 " fill="none" stroke="#B4B4B4" stroke-width="1.00" transform="matrix(1.00, 0.00, 0.00, -1.00, 150.0, 554.0)"></path><path d="M 642.9 1.5 L 642.9 497.5 " fill="none" stroke="#B4B4B4" stroke-width="1.00" transform="matrix(1.00, 0.00, 0.00, -1.00, 150.0, 554.0)"></path><path d="M 1.5 51.5 L 692.7 51.5 " fill="none" stroke="#B4B4B4" stroke-width="1.00" transform="matrix(1.00, 0.00, 0.00, -1.00, 150.0, 554.0)"></path><path d="M 1.5 101.0 L 692.7 101.0 " fill="none" stroke="#B4B4B4" stroke-width="1.00" transform="matrix(1.00, 0.00, 0.00, -1.00, 150.0, 554.0)"></path><path d="M 1.5 150.5 L 692.7 150.5 " fill="none" stroke="#B4B4B4" stroke-width="1.00" transform="matrix(1.00, 0.00, 0.00, -1.00, 150.0, 554.0)"></path><path d="M 1.5 200.0 L 692.7 200.0 " fill="none" stroke="#B4B4B4" stroke-width="1.00" transform="matrix(1.00, 0.00, 0.00, -1.00, 150.0, 554.0)"></path><path d="M 1.5 249.5 L 692.7 249.5 " fill="none" stroke="#B4B4B4" stroke-width="1.00" transform="matrix(1.00, 0.00, 0.00, -1.00, 150.0, 554.0)"></path><path d="M 1.5 299.0 L 692.7 299.0 " fill="none" stroke="#B4B4B4" stroke-width="1.00" transform="matrix(1.00, 0.00, 0.00, -1.00, 150.0, 554.0)"></path><path d="M 1.5 348.5 L 692.7 348.5 " fill="none" stroke="#B4B4B4" stroke-width="1.00" transform="matrix(1.00, 0.00, 0.00, -1.00, 150.0, 554.0)"></path><path d="M 1.5 398.0 L 692.7 398.0 " fill="none" stroke="#B4B4B4" stroke-width="1.00" transform="matrix(1.00, 0.00, 0.00, -1.00, 150.0, 554.0)"></path><path d="M 1.5 447.5 L 692.7 447.5 " fill="none" stroke="#B4B4B4" stroke-width="1.00" transform="matrix(1.00, 0.00, 0.00, -1.00, 150.0, 554.0)"></path><path d="M 2.0 1.5 L 2.0 497.5 " fill="none" stroke="#B4B4B4" stroke-width="1.00" transform="matrix(1.00, 0.00, 0.00, -1.00, 150.0, 554.0)"></path><path d="M 692.2 1.5 L 692.2 497.5 " fill="none" stroke="#B4B4B4" stroke-width="1.00" transform="matrix(1.00, 0.00, 0.00, -1.00, 150.0, 554.0)"></path><path d="M 1.5 2.0 L 692.7 2.0 " fill="none" stroke="#B4B4B4" stroke-width="1.00" transform="matrix(1.00, 0.00, 0.00, -1.00, 150.0, 554.0)"></path><path d="M 1.5 497.0 L 692.7 497.0 " fill="none" stroke="#B4B4B4" stroke-width="1.00" transform="matrix(1.00, 0.00, 0.00, -1.00, 150.0, 554.0)"></path></g></g></g></svg>