<?xml version="1.0" encoding="UTF-8" standalone="no"?><svg xmlns="http://www.w3.org/2000/svg" xmlns:xlink="http://www.w3.org/1999/xlink" clip-rule="evenodd" stroke-miterlimit="4.00" viewBox="0 0 1024 768"><desc>SVG generated by Keynote</desc><defs></defs><g transform="matrix(1.00, 0.00, -0.00, -1.00, 0.0, 768.0)"><g><clipPath id="clip-1666"><path d="M 0.0 768.0 L 1024.0 768.0 L 1024.0 0.0 L 0.0 0.0 Z M 0.0 768.0 "></path></clipPath><g clip-path="url(#clip-1666)"><image xlink:href="../../293415CD-D1BA-41BB-8703-BAEDA9FFCE27/assets/D3CB8578D364082F6943B53F933CCC32.jpeg" width="1024.00" height="768.00" transform="matrix(1.00, 0.00, -0.00, -1.00, 0.0, 768.0)"></image></g></g><image xlink:href="../../17B50D73-ABB3-4F5B-91D1-72978E4A1535/assets/F22C413DF5B5F3100B63363384918D4A.png" width="802.00" height="475.00" transform="matrix(1.00, 0.00, -0.00, -1.00, 111.0, 577.5)" opacity="0.50"></image><g><clipPath id="clip-1667"><path d="M 116.0 575.0 L 908.0 575.0 L 908.0 109.0 L 116.0 109.0 Z M 116.0 574.5 "></path></clipPath><g clip-path="url(#clip-1667)"><image xlink:href="../../17B50D73-ABB3-4F5B-91D1-72978E4A1535/assets/D1E42571220A3A17BFA74015548D0253.png" width="640.00" height="376.00" transform="matrix(1.24, 0.00, -0.00, -1.24, 116.0, 575.0)"></image></g></g><image xlink:href="../../17B50D73-ABB3-4F5B-91D1-72978E4A1535/assets/81CC83F04D25194AE7F73481F9CE6F96.png" width="913.00" height="71.00" transform="matrix(1.00, 0.00, -0.00, -1.00, 56.0, 709.0)"></image><text xml:space="preserve" font-family="GillSans-Light" font-size="72.0" fill="#525252" transform="matrix(1.00, 0.00, -0.00, -1.00, 61.0, 649.0)">M</text><text xml:space="preserve" font-family="GillSans-Light" font-size="72.0" fill="#525252" transform="matrix(1.00, 0.00, -0.00, -1.00, 117.2, 649.0)">A</text><text xml:space="preserve" font-family="GillSans-Light" font-size="72.0" fill="#525252" transform="matrix(1.00, 0.00, -0.00, -1.00, 165.2, 649.0)">N</text><text xml:space="preserve" font-family="GillSans-Light" font-size="72.0" fill="#525252" transform="matrix(1.00, 0.00, -0.00, -1.00, 220.7, 649.0)">I</text><text xml:space="preserve" font-family="GillSans-Light" font-size="72.0" fill="#525252" transform="matrix(1.00, 0.00, -0.00, -1.00, 235.7, 649.0)">A</text><text xml:space="preserve" font-family="GillSans-Light" font-size="72.0" fill="#525252" transform="matrix(1.00, 0.00, -0.00, -1.00, 280.1, 649.0)">C</text><text xml:space="preserve" font-family="GillSans-Light" font-size="72.0" fill="#525252" transform="matrix(1.00, 0.00, -0.00, -1.00, 328.9, 649.0)"> </text><text xml:space="preserve" font-family="GillSans-Light" font-size="72.0" fill="#525252" transform="matrix(1.00, 0.00, -0.00, -1.00, 348.9, 649.0)">E</text><text xml:space="preserve" font-family="GillSans-Light" font-size="72.0" fill="#525252" transform="matrix(1.00, 0.00, -0.00, -1.00, 384.2, 649.0)">N</text><text xml:space="preserve" font-family="GillSans-Light" font-size="72.0" fill="#525252" transform="matrix(1.00, 0.00, -0.00, -1.00, 439.7, 649.0)">T</text><text xml:space="preserve" font-family="GillSans-Light" font-size="72.0" fill="#525252" transform="matrix(1.00, 0.00, -0.00, -1.00, 481.0, 649.0)">R</text><text xml:space="preserve" font-family="GillSans-Light" font-size="72.0" fill="#525252" transform="matrix(1.00, 0.00, -0.00, -1.00, 521.2, 649.0)">O</text><text xml:space="preserve" font-family="GillSans-Light" font-size="72.0" fill="#525252" transform="matrix(1.00, 0.00, -0.00, -1.00, 580.5, 649.0)">P</text><text xml:space="preserve" font-family="GillSans-Light" font-size="72.0" fill="#525252" transform="matrix(1.00, 0.00, -0.00, -1.00, 617.1, 649.0)">Y</text><text xml:space="preserve" font-family="GillSans-Light" font-size="72.0" fill="#525252" transform="matrix(1.00, 0.00, -0.00, -1.00, 659.1, 649.0)"> </text><text xml:space="preserve" font-family="GillSans-Light" font-size="72.0" fill="#525252" transform="matrix(1.00, 0.00, -0.00, -1.00, 679.1, 649.0)">C</text><text xml:space="preserve" font-family="GillSans-Light" font-size="72.0" fill="#525252" transform="matrix(1.00, 0.00, -0.00, -1.00, 727.8, 649.0)">O</text><text xml:space="preserve" font-family="GillSans-Light" font-size="72.0" fill="#525252" transform="matrix(1.00, 0.00, -0.00, -1.00, 787.1, 649.0)">D</text><text xml:space="preserve" font-family="GillSans-Light" font-size="72.0" fill="#525252" transform="matrix(1.00, 0.00, -0.00, -1.00, 840.4, 649.0)">I</text><text xml:space="preserve" font-family="GillSans-Light" font-size="72.0" fill="#525252" transform="matrix(1.00, 0.00, -0.00, -1.00, 855.4, 649.0)">N</text><text xml:space="preserve" font-family="GillSans-Light" font-size="72.0" fill="#525252" transform="matrix(1.00, 0.00, -0.00, -1.00, 910.9, 649.0)">G</text><image xlink:href="../../17B50D73-ABB3-4F5B-91D1-72978E4A1535/assets/392197753B38A4A69CE6B7E81DFFC8E9.png" width="447.00" height="55.00" transform="matrix(1.00, 0.00, -0.00, -1.00, 289.0, 634.0)"></image><text xml:space="preserve" font-family="GillSans-Light" font-size="38.0" fill="#525252" transform="matrix(1.00, 0.00, -0.00, -1.00, 299.0, 598.0)">T</text><text xml:space="preserve" font-family="GillSans-Light" font-size="38.0" fill="#525252" transform="matrix(1.00, 0.00, -0.00, -1.00, 320.8, 598.0)">h</text><text xml:space="preserve" font-family="GillSans-Light" font-size="38.0" fill="#525252" transform="matrix(1.00, 0.00, -0.00, -1.00, 339.4, 598.0)">e</text><text xml:space="preserve" font-family="GillSans-Light" font-size="38.0" fill="#525252" transform="matrix(1.00, 0.00, -0.00, -1.00, 357.6, 598.0)"> </text><text xml:space="preserve" font-family="GillSans-Light" font-size="38.0" fill="#525252" transform="matrix(1.00, 0.00, -0.00, -1.00, 368.2, 598.0)">m</text><text xml:space="preserve" font-family="GillSans-Light" font-size="38.0" fill="#525252" transform="matrix(1.00, 0.00, -0.00, -1.00, 397.5, 598.0)">a</text><text xml:space="preserve" font-family="GillSans-Light" font-size="38.0" fill="#525252" transform="matrix(1.00, 0.00, -0.00, -1.00, 413.7, 598.0)">i</text><text xml:space="preserve" font-family="GillSans-Light" font-size="38.0" fill="#525252" transform="matrix(1.00, 0.00, -0.00, -1.00, 420.8, 598.0)">n</text><text xml:space="preserve" font-family="GillSans-Light" font-size="38.0" fill="#525252" transform="matrix(1.00, 0.00, -0.00, -1.00, 439.5, 598.0)"> </text><text xml:space="preserve" font-family="GillSans-Light" font-size="38.0" fill="#525252" transform="matrix(1.00, 0.00, -0.00, -1.00, 446.2, 598.0)">“</text><text xml:space="preserve" font-family="GillSans-Light" font-size="38.0" fill="#525252" transform="matrix(1.00, 0.00, -0.00, -1.00, 461.3, 598.0)">n</text><text xml:space="preserve" font-family="GillSans-Light" font-size="38.0" fill="#525252" transform="matrix(1.00, 0.00, -0.00, -1.00, 479.9, 598.0)">e</text><text xml:space="preserve" font-family="GillSans-Light" font-size="38.0" fill="#525252" transform="matrix(1.00, 0.00, -0.00, -1.00, 498.1, 598.0)">w</text><text xml:space="preserve" font-family="GillSans-Light" font-size="38.0" fill="#525252" transform="matrix(1.00, 0.00, -0.00, -1.00, 525.0, 598.0)"> </text><text xml:space="preserve" font-family="GillSans-Light" font-size="38.0" fill="#525252" transform="matrix(1.00, 0.00, -0.00, -1.00, 535.6, 598.0)">t</text><text xml:space="preserve" font-family="GillSans-Light" font-size="38.0" fill="#525252" transform="matrix(1.00, 0.00, -0.00, -1.00, 547.0, 598.0)">h</text><text xml:space="preserve" font-family="GillSans-Light" font-size="38.0" fill="#525252" transform="matrix(1.00, 0.00, -0.00, -1.00, 565.6, 598.0)">i</text><text xml:space="preserve" font-family="GillSans-Light" font-size="38.0" fill="#525252" transform="matrix(1.00, 0.00, -0.00, -1.00, 572.8, 598.0)">n</text><text xml:space="preserve" font-family="GillSans-Light" font-size="38.0" fill="#525252" transform="matrix(1.00, 0.00, -0.00, -1.00, 591.4, 598.0)">g</text><text xml:space="preserve" font-family="GillSans-Light" font-size="38.0" fill="#525252" transform="matrix(1.00, 0.00, -0.00, -1.00, 607.6, 598.0)">”</text><text xml:space="preserve" font-family="GillSans-Light" font-size="38.0" fill="#525252" transform="matrix(1.00, 0.00, -0.00, -1.00, 619.6, 598.0)"> </text><text xml:space="preserve" font-family="GillSans-Light" font-size="38.0" fill="#525252" transform="matrix(1.00, 0.00, -0.00, -1.00, 630.2, 598.0)">i</text><text xml:space="preserve" font-family="GillSans-Light" font-size="38.0" fill="#525252" transform="matrix(1.00, 0.00, -0.00, -1.00, 637.3, 598.0)">n</text><text xml:space="preserve" font-family="GillSans-Light" font-size="38.0" fill="#525252" transform="matrix(1.00, 0.00, -0.00, -1.00, 656.0, 598.0)"> </text><text xml:space="preserve" font-family="GillSans-Light" font-size="38.0" fill="#525252" transform="matrix(1.00, 0.00, -0.00, -1.00, 666.5, 598.0)">F</text><text xml:space="preserve" font-family="GillSans-Light" font-size="38.0" fill="#525252" transform="matrix(1.00, 0.00, -0.00, -1.00, 683.2, 598.0)">L</text><text xml:space="preserve" font-family="GillSans-Light" font-size="38.0" fill="#525252" transform="matrix(1.00, 0.00, -0.00, -1.00, 701.0, 598.0)">I</text><text xml:space="preserve" font-family="GillSans-Light" font-size="38.0" fill="#525252" transform="matrix(1.00, 0.00, -0.00, -1.00, 708.9, 598.0)">F</text><image xlink:href="../../17B50D73-ABB3-4F5B-91D1-72978E4A1535/assets/966159C6255D73D003F72A0DAD81658F.png" width="52.00" height="52.00" transform="matrix(1.00, 0.00, -0.00, -1.00, 25.0, 89.0)"></image><text xml:space="preserve" font-family="GillSans-SemiBold" font-weight="bold" font-size="45.5" fill="#525252" transform="matrix(1.00, 0.00, -0.00, -1.00, 32.0, 47.0)">M</text><image xlink:href="../../17B50D73-ABB3-4F5B-91D1-72978E4A1535/assets/9C5038E2ED8916499FCC7814D0E0D823.png" width="87.00" height="49.00" transform="matrix(1.00, 0.00, -0.00, -1.00, 61.0, 85.0)"></image><text xml:space="preserve" font-family="GillSans-Light" font-size="45.5" fill="#525252" transform="matrix(1.00, 0.00, -0.00, -1.00, 70.0, 47.0)">e</text><text xml:space="preserve" font-family="GillSans-Light" font-size="45.5" fill="#525252" transform="matrix(1.00, 0.00, -0.00, -1.00, 91.8, 47.0)">t</text><text xml:space="preserve" font-family="GillSans-Light" font-size="45.5" fill="#525252" transform="matrix(1.00, 0.00, -0.00, -1.00, 105.6, 47.0)">a</text><text xml:space="preserve" font-family="GillSans-Light" font-size="45.5" fill="#525252" transform="matrix(1.00, 0.00, -0.00, -1.00, 125.0, 47.0)">-</text><image xlink:href="../../17B50D73-ABB3-4F5B-91D1-72978E4A1535/assets/204D7CE1D6CB350102E6FA580084F7E0.png" width="54.00" height="52.00" transform="matrix(1.00, 0.00, -0.00, -1.00, 129.0, 89.0)"></image><text xml:space="preserve" font-family="GillSans-SemiBold" font-weight="bold" font-size="45.5" fill="#525252" transform="matrix(1.00, 0.00, -0.00, -1.00, 139.3, 47.0)">A</text><image xlink:href="../../17B50D73-ABB3-4F5B-91D1-72978E4A1535/assets/FFB086D7C4774110509921D93D820644.png" width="146.00" height="63.00" transform="matrix(1.00, 0.00, -0.00, -1.00, 164.0, 89.0)"></image><text xml:space="preserve" font-family="GillSans-Light" font-size="45.5" fill="#525252" transform="matrix(1.00, 0.00, -0.00, -1.00, 172.4, 47.0)">d</text><text xml:space="preserve" font-family="GillSans-Light" font-size="45.5" fill="#525252" transform="matrix(1.00, 0.00, -0.00, -1.00, 195.6, 47.0)">a</text><text xml:space="preserve" font-family="GillSans-Light" font-size="45.5" fill="#525252" transform="matrix(1.00, 0.00, -0.00, -1.00, 215.0, 47.0)">p</text><text xml:space="preserve" font-family="GillSans-Light" font-size="45.5" fill="#525252" transform="matrix(1.00, 0.00, -0.00, -1.00, 238.2, 47.0)">t</text><text xml:space="preserve" font-family="GillSans-Light" font-size="45.5" fill="#525252" transform="matrix(1.00, 0.00, -0.00, -1.00, 251.9, 47.0)">i</text><text xml:space="preserve" font-family="GillSans-Light" font-size="45.5" fill="#525252" transform="matrix(1.00, 0.00, -0.00, -1.00, 260.5, 47.0)">v</text><text xml:space="preserve" font-family="GillSans-Light" font-size="45.5" fill="#525252" transform="matrix(1.00, 0.00, -0.00, -1.00, 279.2, 47.0)">e</text><text xml:space="preserve" font-family="GillSans-Light" font-size="45.5" fill="#525252" transform="matrix(1.00, 0.00, -0.00, -1.00, 301.1, 47.0)"> </text><image xlink:href="../../17B50D73-ABB3-4F5B-91D1-72978E4A1535/assets/9163810539F0347DA74CC704AA1D2306.png" width="50.00" height="52.00" transform="matrix(1.00, 0.00, -0.00, -1.00, 307.0, 89.0)"></image><text xml:space="preserve" font-family="GillSans-SemiBold" font-weight="bold" font-size="45.5" fill="#525252" transform="matrix(1.00, 0.00, -0.00, -1.00, 313.8, 47.0)">N</text><image xlink:href="../../17B50D73-ABB3-4F5B-91D1-72978E4A1535/assets/99408740381F6308D37EE3E250166C2E.png" width="163.00" height="42.00" transform="matrix(1.00, 0.00, -0.00, -1.00, 342.0, 78.0)"></image><text xml:space="preserve" font-family="GillSans-Light" font-size="45.5" fill="#525252" transform="matrix(1.00, 0.00, -0.00, -1.00, 350.2, 47.0)">e</text><text xml:space="preserve" font-family="GillSans-Light" font-size="45.5" fill="#525252" transform="matrix(1.00, 0.00, -0.00, -1.00, 372.0, 47.0)">a</text><text xml:space="preserve" font-family="GillSans-Light" font-size="45.5" fill="#525252" transform="matrix(1.00, 0.00, -0.00, -1.00, 391.4, 47.0)">r</text><text xml:space="preserve" font-family="GillSans-Light" font-size="45.5" fill="#525252" transform="matrix(1.00, 0.00, -0.00, -1.00, 402.9, 47.0)">-</text><text xml:space="preserve" font-family="GillSans-Light" font-size="45.5" fill="#525252" transform="matrix(1.00, 0.00, -0.00, -1.00, 417.2, 47.0)">z</text><text xml:space="preserve" font-family="GillSans-Light" font-size="45.5" fill="#525252" transform="matrix(1.00, 0.00, -0.00, -1.00, 434.5, 47.0)">e</text><text xml:space="preserve" font-family="GillSans-Light" font-size="45.5" fill="#525252" transform="matrix(1.00, 0.00, -0.00, -1.00, 456.3, 47.0)">r</text><text xml:space="preserve" font-family="GillSans-Light" font-size="45.5" fill="#525252" transform="matrix(1.00, 0.00, -0.00, -1.00, 471.5, 47.0)">o</text><text xml:space="preserve" font-family="GillSans-Light" font-size="45.5" fill="#525252" transform="matrix(1.00, 0.00, -0.00, -1.00, 496.2, 47.0)"> </text><image xlink:href="../../17B50D73-ABB3-4F5B-91D1-72978E4A1535/assets/1E1E065BE79CC7294DC5A096F0A4EC45.png" width="27.00" height="52.00" transform="matrix(1.00, 0.00, -0.00, -1.00, 502.0, 89.0)"></image><text xml:space="preserve" font-family="GillSans-SemiBold" font-weight="bold" font-size="45.5" fill="#525252" transform="matrix(1.00, 0.00, -0.00, -1.00, 508.9, 47.0)">I</text><image xlink:href="../../17B50D73-ABB3-4F5B-91D1-72978E4A1535/assets/CE516802E89D7E02B34C2B495CC8A041.png" width="135.00" height="59.00" transform="matrix(1.00, 0.00, -0.00, -1.00, 514.0, 85.0)"></image><text xml:space="preserve" font-family="GillSans-Light" font-size="45.5" fill="#525252" transform="matrix(1.00, 0.00, -0.00, -1.00, 522.0, 47.0)">n</text><text xml:space="preserve" font-family="GillSans-Light" font-size="45.5" fill="#525252" transform="matrix(1.00, 0.00, -0.00, -1.00, 544.3, 47.0)">t</text><text xml:space="preserve" font-family="GillSans-Light" font-size="45.5" fill="#525252" transform="matrix(1.00, 0.00, -0.00, -1.00, 558.0, 47.0)">e</text><text xml:space="preserve" font-family="GillSans-Light" font-size="45.5" fill="#525252" transform="matrix(1.00, 0.00, -0.00, -1.00, 579.9, 47.0)">g</text><text xml:space="preserve" font-family="GillSans-Light" font-size="45.5" fill="#525252" transform="matrix(1.00, 0.00, -0.00, -1.00, 599.3, 47.0)">e</text><text xml:space="preserve" font-family="GillSans-Light" font-size="45.5" fill="#525252" transform="matrix(1.00, 0.00, -0.00, -1.00, 621.1, 47.0)">r</text><text xml:space="preserve" font-family="GillSans-Light" font-size="45.5" fill="#525252" transform="matrix(1.00, 0.00, -0.00, -1.00, 636.3, 47.0)"> </text><image xlink:href="../../17B50D73-ABB3-4F5B-91D1-72978E4A1535/assets/E78A7AA01E187AC69C4CD2CCB220678D.png" width="53.00" height="52.00" transform="matrix(1.00, 0.00, -0.00, -1.00, 639.0, 89.0)"></image><text xml:space="preserve" font-family="GillSans-SemiBold" font-weight="bold" font-size="45.5" fill="#525252" transform="matrix(1.00, 0.00, -0.00, -1.00, 648.9, 47.0)">A</text><image xlink:href="../../17B50D73-ABB3-4F5B-91D1-72978E4A1535/assets/5A2BC79E5480F7BFDC570B138AA62EB3.png" width="176.00" height="53.00" transform="matrix(1.00, 0.00, -0.00, -1.00, 674.0, 89.0)"></image><text xml:space="preserve" font-family="GillSans-Light" font-size="45.5" fill="#525252" transform="matrix(1.00, 0.00, -0.00, -1.00, 682.0, 47.0)">r</text><text xml:space="preserve" font-family="GillSans-Light" font-size="45.5" fill="#525252" transform="matrix(1.00, 0.00, -0.00, -1.00, 698.3, 47.0)">i</text><text xml:space="preserve" font-family="GillSans-Light" font-size="45.5" fill="#525252" transform="matrix(1.00, 0.00, -0.00, -1.00, 706.9, 47.0)">t</text><text xml:space="preserve" font-family="GillSans-Light" font-size="45.5" fill="#525252" transform="matrix(1.00, 0.00, -0.00, -1.00, 720.6, 47.0)">h</text><text xml:space="preserve" font-family="GillSans-Light" font-size="45.5" fill="#525252" transform="matrix(1.00, 0.00, -0.00, -1.00, 743.0, 47.0)">m</text><text xml:space="preserve" font-family="GillSans-Light" font-size="45.5" fill="#525252" transform="matrix(1.00, 0.00, -0.00, -1.00, 778.1, 47.0)">e</text><text xml:space="preserve" font-family="GillSans-Light" font-size="45.5" fill="#525252" transform="matrix(1.00, 0.00, -0.00, -1.00, 799.9, 47.0)">t</text><text xml:space="preserve" font-family="GillSans-Light" font-size="45.5" fill="#525252" transform="matrix(1.00, 0.00, -0.00, -1.00, 813.6, 47.0)">i</text><text xml:space="preserve" font-family="GillSans-Light" font-size="45.5" fill="#525252" transform="matrix(1.00, 0.00, -0.00, -1.00, 822.2, 47.0)">c</text><text xml:space="preserve" font-family="GillSans-Light" font-size="45.5" fill="#525252" transform="matrix(1.00, 0.00, -0.00, -1.00, 841.2, 47.0)"> </text><image xlink:href="../../17B50D73-ABB3-4F5B-91D1-72978E4A1535/assets/4E3FE33B31607EAF13012717833141F1.png" width="49.00" height="53.00" transform="matrix(1.00, 0.00, -0.00, -1.00, 846.0, 89.0)"></image><text xml:space="preserve" font-family="GillSans-SemiBold" font-weight="bold" font-size="45.5" fill="#525252" transform="matrix(1.00, 0.00, -0.00, -1.00, 853.8, 47.0)">C</text><image xlink:href="../../17B50D73-ABB3-4F5B-91D1-72978E4A1535/assets/4EC91E5CA91CA4575DBBDA97F8965147.png" width="117.00" height="63.00" transform="matrix(1.00, 0.00, -0.00, -1.00, 878.0, 89.0)"></image><text xml:space="preserve" font-family="GillSans-Light" font-size="45.5" fill="#525252" transform="matrix(1.00, 0.00, -0.00, -1.00, 886.9, 47.0)">o</text><text xml:space="preserve" font-family="GillSans-Light" font-size="45.5" fill="#525252" transform="matrix(1.00, 0.00, -0.00, -1.00, 911.5, 47.0)">d</text><text xml:space="preserve" font-family="GillSans-Light" font-size="45.5" fill="#525252" transform="matrix(1.00, 0.00, -0.00, -1.00, 934.7, 47.0)">i</text><text xml:space="preserve" font-family="GillSans-Light" font-size="45.5" fill="#525252" transform="matrix(1.00, 0.00, -0.00, -1.00, 943.3, 47.0)">n</text><text xml:space="preserve" font-family="GillSans-Light" font-size="45.5" fill="#525252" transform="matrix(1.00, 0.00, -0.00, -1.00, 965.6, 47.0)">g</text></g></svg>