<?xml version="1.0" encoding="UTF-8" standalone="no"?><svg xmlns="http://www.w3.org/2000/svg" xmlns:xlink="http://www.w3.org/1999/xlink" clip-rule="evenodd" stroke-miterlimit="4.00" viewBox="0 0 1024 768"><desc>SVG generated by Keynote</desc><defs></defs><g transform="matrix(1.00, 0.00, -0.00, -1.00, 0.0, 768.0)"><g><clipPath id="clip-1446"><path d="M 0.0 768.0 L 1024.0 768.0 L 1024.0 0.0 L 0.0 0.0 Z M 0.0 768.0 "></path></clipPath><g clip-path="url(#clip-1446)"><image xlink:href="../../293415CD-D1BA-41BB-8703-BAEDA9FFCE27/assets/D3CB8578D364082F6943B53F933CCC32.jpeg" width="1024.00" height="768.00" transform="matrix(1.00, 0.00, -0.00, -1.00, 0.0, 768.0)"></image></g></g><text xml:space="preserve" font-family="GillSans-Light" font-size="72.0" fill="#525252" transform="matrix(1.00, 0.00, -0.00, -1.00, 245.0, 635.0)">F</text><text xml:space="preserve" font-family="GillSans-Light" font-size="72.0" fill="#525252" transform="matrix(1.00, 0.00, -0.00, -1.00, 276.5, 635.0)">L</text><text xml:space="preserve" font-family="GillSans-Light" font-size="72.0" fill="#525252" transform="matrix(1.00, 0.00, -0.00, -1.00, 310.3, 635.0)">I</text><text xml:space="preserve" font-family="GillSans-Light" font-size="72.0" fill="#525252" transform="matrix(1.00, 0.00, -0.00, -1.00, 325.3, 635.0)">F</text><text xml:space="preserve" font-family="GillSans-Light" font-size="72.0" fill="#525252" transform="matrix(1.00, 0.00, -0.00, -1.00, 356.8, 635.0)"> </text><text xml:space="preserve" font-family="GillSans-Light" font-size="72.0" fill="#525252" transform="matrix(1.00, 0.00, -0.00, -1.00, 376.8, 635.0)">P</text><text xml:space="preserve" font-family="GillSans-Light" font-size="72.0" fill="#525252" transform="matrix(1.00, 0.00, -0.00, -1.00, 413.5, 635.0)">R</text><text xml:space="preserve" font-family="GillSans-Light" font-size="72.0" fill="#525252" transform="matrix(1.00, 0.00, -0.00, -1.00, 454.8, 635.0)">E</text><text xml:space="preserve" font-family="GillSans-Light" font-size="72.0" fill="#525252" transform="matrix(1.00, 0.00, -0.00, -1.00, 490.1, 635.0)">D</text><text xml:space="preserve" font-family="GillSans-Light" font-size="72.0" fill="#525252" transform="matrix(1.00, 0.00, -0.00, -1.00, 543.4, 635.0)">I</text><text xml:space="preserve" font-family="GillSans-Light" font-size="72.0" fill="#525252" transform="matrix(1.00, 0.00, -0.00, -1.00, 558.4, 635.0)">C</text><text xml:space="preserve" font-family="GillSans-Light" font-size="72.0" fill="#525252" transform="matrix(1.00, 0.00, -0.00, -1.00, 607.1, 635.0)">T</text><text xml:space="preserve" font-family="GillSans-Light" font-size="72.0" fill="#525252" transform="matrix(1.00, 0.00, -0.00, -1.00, 648.4, 635.0)">I</text><text xml:space="preserve" font-family="GillSans-Light" font-size="72.0" fill="#525252" transform="matrix(1.00, 0.00, -0.00, -1.00, 663.4, 635.0)">O</text><text xml:space="preserve" font-family="GillSans-Light" font-size="72.0" fill="#525252" transform="matrix(1.00, 0.00, -0.00, -1.00, 722.7, 635.0)">N</text><g><clipPath id="clip-1447"><path d="M 151.5 552.5 L 842.7 552.5 L 842.7 56.5 L 151.5 56.5 Z M 151.5 552.5 "></path></clipPath><g clip-path="url(#clip-1447)"><path d="M 497.1 552.0 L 546.4 552.0 L 546.4 502.5 L 497.1 502.5 Z M 497.1 552.0 " fill="#C0BC95"></path><path d="M 447.8 453.0 L 497.1 453.0 L 497.1 403.5 L 447.8 403.5 Z M 447.8 453.0 " fill="#9CCDD5"></path><path d="M 497.1 453.0 L 546.4 453.0 L 546.4 403.5 L 497.1 403.5 Z M 497.1 453.0 " fill="#9CCDD5"></path><path d="M 546.4 453.0 L 595.7 453.0 L 595.7 403.5 L 546.4 403.5 Z M 546.4 453.0 " fill="#9CCDD5"></path><path d="M 398.5 354.0 L 447.8 354.0 L 447.8 304.5 L 398.5 304.5 Z M 398.5 354.0 " fill="#C0BC95"></path><path d="M 447.8 354.0 L 497.1 354.0 L 497.1 304.5 L 447.8 304.5 Z M 447.8 354.0 " fill="#9CCDD5"></path><path d="M 497.1 354.0 L 546.4 354.0 L 546.4 304.5 L 497.1 304.5 Z M 497.1 354.0 " fill="#FFCD56"></path><path d="M 546.4 354.0 L 595.7 354.0 L 595.7 304.5 L 546.4 304.5 Z M 546.4 354.0 " fill="#9CCDD5"></path><path d="M 447.8 255.0 L 497.1 255.0 L 497.1 205.5 L 447.8 205.5 Z M 447.8 255.0 " fill="#C0BC95"></path><path d="M 546.4 255.0 L 595.7 255.0 L 595.7 205.5 L 546.4 205.5 Z M 546.4 255.0 " fill="#C0BC95"></path></g></g><g><clipPath id="clip-1448"><path d="M 151.5 552.5 L 842.7 552.5 L 842.7 56.5 L 151.5 56.5 Z M 151.5 552.5 "></path></clipPath><g clip-path="url(#clip-1448)"><g><clipPath id="clip-1449"><path d="M 152.5 503.0 L 200.8 503.0 L 200.8 551.5 L 152.5 551.5 Z M 152.5 503.0 "></path></clipPath><g clip-path="url(#clip-1449)"><text xml:space="preserve" font-family="GillSans-Light" font-size="30.0" fill="#595E5D" transform="matrix(1.00, 0.00, -0.00, -1.00, 169.0, 518.0)">1</text></g></g></g></g><g><clipPath id="clip-1450"><path d="M 151.5 552.5 L 842.7 552.5 L 842.7 56.5 L 151.5 56.5 Z M 151.5 552.5 "></path></clipPath><g clip-path="url(#clip-1450)"><g><clipPath id="clip-1451"><path d="M 201.8 503.0 L 250.1 503.0 L 250.1 551.5 L 201.8 551.5 Z M 201.8 503.0 "></path></clipPath><g clip-path="url(#clip-1451)"><text xml:space="preserve" font-family="GillSans-Light" font-size="30.0" fill="#595E5D" transform="matrix(1.00, 0.00, -0.00, -1.00, 218.0, 518.0)">8</text></g></g></g></g><g><clipPath id="clip-1452"><path d="M 151.5 552.5 L 842.7 552.5 L 842.7 56.5 L 151.5 56.5 Z M 151.5 552.5 "></path></clipPath><g clip-path="url(#clip-1452)"><g><clipPath id="clip-1453"><path d="M 251.1 503.0 L 299.4 503.0 L 299.4 551.5 L 251.1 551.5 Z M 251.1 503.0 "></path></clipPath><g clip-path="url(#clip-1453)"><text xml:space="preserve" font-family="GillSans-Light" font-size="30.0" fill="#595E5D" transform="matrix(1.00, 0.00, -0.00, -1.00, 268.0, 518.0)">6</text></g></g></g></g><g><clipPath id="clip-1454"><path d="M 151.5 552.5 L 842.7 552.5 L 842.7 56.5 L 151.5 56.5 Z M 151.5 552.5 "></path></clipPath><g clip-path="url(#clip-1454)"><g><clipPath id="clip-1455"><path d="M 300.4 503.0 L 348.7 503.0 L 348.7 551.5 L 300.4 551.5 Z M 300.4 503.0 "></path></clipPath><g clip-path="url(#clip-1455)"><text xml:space="preserve" font-family="GillSans-Light" font-size="30.0" fill="#595E5D" transform="matrix(1.00, 0.00, -0.00, -1.00, 317.0, 518.0)">8</text></g></g></g></g><g><clipPath id="clip-1456"><path d="M 151.5 552.5 L 842.7 552.5 L 842.7 56.5 L 151.5 56.5 Z M 151.5 552.5 "></path></clipPath><g clip-path="url(#clip-1456)"><g><clipPath id="clip-1457"><path d="M 349.7 503.0 L 398.0 503.0 L 398.0 551.5 L 349.7 551.5 Z M 349.7 503.0 "></path></clipPath><g clip-path="url(#clip-1457)"><text xml:space="preserve" font-family="GillSans-Light" font-size="30.0" fill="#595E5D" transform="matrix(1.00, 0.00, -0.00, -1.00, 366.0, 518.0)">4</text></g></g></g></g><g><clipPath id="clip-1458"><path d="M 151.5 552.5 L 842.7 552.5 L 842.7 56.5 L 151.5 56.5 Z M 151.5 552.5 "></path></clipPath><g clip-path="url(#clip-1458)"><g><clipPath id="clip-1459"><path d="M 399.0 503.0 L 447.3 503.0 L 447.3 551.5 L 399.0 551.5 Z M 399.0 503.0 "></path></clipPath><g clip-path="url(#clip-1459)"><text xml:space="preserve" font-family="GillSans-Light" font-size="30.0" fill="#595E5D" transform="matrix(1.00, 0.00, -0.00, -1.00, 416.0, 518.0)">8</text></g></g></g></g><g><clipPath id="clip-1460"><path d="M 151.5 552.5 L 842.7 552.5 L 842.7 56.5 L 151.5 56.5 Z M 151.5 552.5 "></path></clipPath><g clip-path="url(#clip-1460)"><g><clipPath id="clip-1461"><path d="M 448.3 503.0 L 496.6 503.0 L 496.6 551.5 L 448.3 551.5 Z M 448.3 503.0 "></path></clipPath><g clip-path="url(#clip-1461)"><text xml:space="preserve" font-family="GillSans-Light" font-size="30.0" fill="#595E5D" transform="matrix(1.00, 0.00, -0.00, -1.00, 465.0, 518.0)">6</text></g></g></g></g><g><clipPath id="clip-1462"><path d="M 151.5 552.5 L 842.7 552.5 L 842.7 56.5 L 151.5 56.5 Z M 151.5 552.5 "></path></clipPath><g clip-path="url(#clip-1462)"><g><clipPath id="clip-1463"><path d="M 497.6 503.0 L 545.9 503.0 L 545.9 551.5 L 497.6 551.5 Z M 497.6 503.0 "></path></clipPath><g clip-path="url(#clip-1463)"><text xml:space="preserve" font-family="GillSans-Light" font-size="30.0" fill="#595E5D" transform="matrix(1.00, 0.00, -0.00, -1.00, 514.0, 518.0)">8</text></g></g></g></g><g><clipPath id="clip-1464"><path d="M 151.5 552.5 L 842.7 552.5 L 842.7 56.5 L 151.5 56.5 Z M 151.5 552.5 "></path></clipPath><g clip-path="url(#clip-1464)"><g><clipPath id="clip-1465"><path d="M 546.9 503.0 L 595.2 503.0 L 595.2 551.5 L 546.9 551.5 Z M 546.9 503.0 "></path></clipPath><g clip-path="url(#clip-1465)"><text xml:space="preserve" font-family="GillSans-Light" font-size="30.0" fill="#595E5D" transform="matrix(1.00, 0.00, -0.00, -1.00, 564.0, 518.0)">2</text></g></g></g></g><g><clipPath id="clip-1466"><path d="M 151.5 552.5 L 842.7 552.5 L 842.7 56.5 L 151.5 56.5 Z M 151.5 552.5 "></path></clipPath><g clip-path="url(#clip-1466)"><g><clipPath id="clip-1467"><path d="M 596.2 503.0 L 644.5 503.0 L 644.5 551.5 L 596.2 551.5 Z M 596.2 503.0 "></path></clipPath><g clip-path="url(#clip-1467)"><text xml:space="preserve" font-family="GillSans-Light" font-size="30.0" fill="#595E5D" transform="matrix(1.00, 0.00, -0.00, -1.00, 613.0, 518.0)">8</text></g></g></g></g><g><clipPath id="clip-1468"><path d="M 151.5 552.5 L 842.7 552.5 L 842.7 56.5 L 151.5 56.5 Z M 151.5 552.5 "></path></clipPath><g clip-path="url(#clip-1468)"><g><clipPath id="clip-1469"><path d="M 645.5 503.0 L 693.8 503.0 L 693.8 551.5 L 645.5 551.5 Z M 645.5 503.0 "></path></clipPath><g clip-path="url(#clip-1469)"><text xml:space="preserve" font-family="GillSans-Light" font-size="30.0" fill="#595E5D" transform="matrix(1.00, 0.00, -0.00, -1.00, 662.0, 518.0)">6</text></g></g></g></g><g><clipPath id="clip-1470"><path d="M 151.5 552.5 L 842.7 552.5 L 842.7 56.5 L 151.5 56.5 Z M 151.5 552.5 "></path></clipPath><g clip-path="url(#clip-1470)"><g><clipPath id="clip-1471"><path d="M 694.8 503.0 L 743.1 503.0 L 743.1 551.5 L 694.8 551.5 Z M 694.8 503.0 "></path></clipPath><g clip-path="url(#clip-1471)"><text xml:space="preserve" font-family="GillSans-Light" font-size="30.0" fill="#595E5D" transform="matrix(1.00, 0.00, -0.00, -1.00, 711.0, 518.0)">8</text></g></g></g></g><g><clipPath id="clip-1472"><path d="M 151.5 552.5 L 842.7 552.5 L 842.7 56.5 L 151.5 56.5 Z M 151.5 552.5 "></path></clipPath><g clip-path="url(#clip-1472)"><g><clipPath id="clip-1473"><path d="M 744.1 503.0 L 792.4 503.0 L 792.4 551.5 L 744.1 551.5 Z M 744.1 503.0 "></path></clipPath><g clip-path="url(#clip-1473)"><text xml:space="preserve" font-family="GillSans-Light" font-size="30.0" fill="#595E5D" transform="matrix(1.00, 0.00, -0.00, -1.00, 761.0, 518.0)">4</text></g></g></g></g><g><clipPath id="clip-1474"><path d="M 151.5 552.5 L 842.7 552.5 L 842.7 56.5 L 151.5 56.5 Z M 151.5 552.5 "></path></clipPath><g clip-path="url(#clip-1474)"><g><clipPath id="clip-1475"><path d="M 793.4 503.0 L 841.7 503.0 L 841.7 551.5 L 793.4 551.5 Z M 793.4 503.0 "></path></clipPath><g clip-path="url(#clip-1475)"><text xml:space="preserve" font-family="GillSans-Light" font-size="30.0" fill="#595E5D" transform="matrix(1.00, 0.00, -0.00, -1.00, 810.0, 518.0)">8</text></g></g></g></g><g><clipPath id="clip-1476"><path d="M 151.5 552.5 L 842.7 552.5 L 842.7 56.5 L 151.5 56.5 Z M 151.5 552.5 "></path></clipPath><g clip-path="url(#clip-1476)"><g><clipPath id="clip-1477"><path d="M 152.5 404.0 L 200.8 404.0 L 200.8 452.5 L 152.5 452.5 Z M 152.5 404.0 "></path></clipPath><g clip-path="url(#clip-1477)"><text xml:space="preserve" font-family="GillSans-Light" font-size="30.0" fill="#595E5D" transform="matrix(1.00, 0.00, -0.00, -1.00, 169.0, 419.0)">7</text></g></g></g></g><g><clipPath id="clip-1478"><path d="M 151.5 552.5 L 842.7 552.5 L 842.7 56.5 L 151.5 56.5 Z M 151.5 552.5 "></path></clipPath><g clip-path="url(#clip-1478)"><g><clipPath id="clip-1479"><path d="M 201.8 404.0 L 250.1 404.0 L 250.1 452.5 L 201.8 452.5 Z M 201.8 404.0 "></path></clipPath><g clip-path="url(#clip-1479)"><text xml:space="preserve" font-family="GillSans-Light" font-size="30.0" fill="#595E5D" transform="matrix(1.00, 0.00, -0.00, -1.00, 218.0, 419.0)">8</text></g></g></g></g><g><clipPath id="clip-1480"><path d="M 151.5 552.5 L 842.7 552.5 L 842.7 56.5 L 151.5 56.5 Z M 151.5 552.5 "></path></clipPath><g clip-path="url(#clip-1480)"><g><clipPath id="clip-1481"><path d="M 251.1 404.0 L 299.4 404.0 L 299.4 452.5 L 251.1 452.5 Z M 251.1 404.0 "></path></clipPath><g clip-path="url(#clip-1481)"><text xml:space="preserve" font-family="GillSans-Light" font-size="30.0" fill="#595E5D" transform="matrix(1.00, 0.00, -0.00, -1.00, 268.0, 419.0)">7</text></g></g></g></g><g><clipPath id="clip-1482"><path d="M 151.5 552.5 L 842.7 552.5 L 842.7 56.5 L 151.5 56.5 Z M 151.5 552.5 "></path></clipPath><g clip-path="url(#clip-1482)"><g><clipPath id="clip-1483"><path d="M 300.4 404.0 L 348.7 404.0 L 348.7 452.5 L 300.4 452.5 Z M 300.4 404.0 "></path></clipPath><g clip-path="url(#clip-1483)"><text xml:space="preserve" font-family="GillSans-Light" font-size="30.0" fill="#595E5D" transform="matrix(1.00, 0.00, -0.00, -1.00, 317.0, 419.0)">8</text></g></g></g></g><g><clipPath id="clip-1484"><path d="M 151.5 552.5 L 842.7 552.5 L 842.7 56.5 L 151.5 56.5 Z M 151.5 552.5 "></path></clipPath><g clip-path="url(#clip-1484)"><g><clipPath id="clip-1485"><path d="M 349.7 404.0 L 398.0 404.0 L 398.0 452.5 L 349.7 452.5 Z M 349.7 404.0 "></path></clipPath><g clip-path="url(#clip-1485)"><text xml:space="preserve" font-family="GillSans-Light" font-size="30.0" fill="#595E5D" transform="matrix(1.00, 0.00, -0.00, -1.00, 366.0, 419.0)">7</text></g></g></g></g><g><clipPath id="clip-1486"><path d="M 151.5 552.5 L 842.7 552.5 L 842.7 56.5 L 151.5 56.5 Z M 151.5 552.5 "></path></clipPath><g clip-path="url(#clip-1486)"><g><clipPath id="clip-1487"><path d="M 399.0 404.0 L 447.3 404.0 L 447.3 452.5 L 399.0 452.5 Z M 399.0 404.0 "></path></clipPath><g clip-path="url(#clip-1487)"><text xml:space="preserve" font-family="GillSans-Light" font-size="30.0" fill="#595E5D" transform="matrix(1.00, 0.00, -0.00, -1.00, 416.0, 419.0)">8</text></g></g></g></g><g><clipPath id="clip-1488"><path d="M 151.5 552.5 L 842.7 552.5 L 842.7 56.5 L 151.5 56.5 Z M 151.5 552.5 "></path></clipPath><g clip-path="url(#clip-1488)"><g><clipPath id="clip-1489"><path d="M 448.3 404.0 L 496.6 404.0 L 496.6 452.5 L 448.3 452.5 Z M 448.3 404.0 "></path></clipPath><g clip-path="url(#clip-1489)"><text xml:space="preserve" font-family="GillSans-Light" font-size="30.0" fill="#595E5D" transform="matrix(1.00, 0.00, -0.00, -1.00, 465.0, 419.0)">7</text></g></g></g></g><g><clipPath id="clip-1490"><path d="M 151.5 552.5 L 842.7 552.5 L 842.7 56.5 L 151.5 56.5 Z M 151.5 552.5 "></path></clipPath><g clip-path="url(#clip-1490)"><g><clipPath id="clip-1491"><path d="M 497.6 404.0 L 545.9 404.0 L 545.9 452.5 L 497.6 452.5 Z M 497.6 404.0 "></path></clipPath><g clip-path="url(#clip-1491)"><text xml:space="preserve" font-family="GillSans-Light" font-size="30.0" fill="#595E5D" transform="matrix(1.00, 0.00, -0.00, -1.00, 514.0, 419.0)">8</text></g></g></g></g><g><clipPath id="clip-1492"><path d="M 151.5 552.5 L 842.7 552.5 L 842.7 56.5 L 151.5 56.5 Z M 151.5 552.5 "></path></clipPath><g clip-path="url(#clip-1492)"><g><clipPath id="clip-1493"><path d="M 546.9 404.0 L 595.2 404.0 L 595.2 452.5 L 546.9 452.5 Z M 546.9 404.0 "></path></clipPath><g clip-path="url(#clip-1493)"><text xml:space="preserve" font-family="GillSans-Light" font-size="30.0" fill="#595E5D" transform="matrix(1.00, 0.00, -0.00, -1.00, 564.0, 419.0)">7</text></g></g></g></g><g><clipPath id="clip-1494"><path d="M 151.5 552.5 L 842.7 552.5 L 842.7 56.5 L 151.5 56.5 Z M 151.5 552.5 "></path></clipPath><g clip-path="url(#clip-1494)"><g><clipPath id="clip-1495"><path d="M 596.2 404.0 L 644.5 404.0 L 644.5 452.5 L 596.2 452.5 Z M 596.2 404.0 "></path></clipPath><g clip-path="url(#clip-1495)"><text xml:space="preserve" font-family="GillSans-Light" font-size="30.0" fill="#595E5D" transform="matrix(1.00, 0.00, -0.00, -1.00, 613.0, 419.0)">8</text></g></g></g></g><g><clipPath id="clip-1496"><path d="M 151.5 552.5 L 842.7 552.5 L 842.7 56.5 L 151.5 56.5 Z M 151.5 552.5 "></path></clipPath><g clip-path="url(#clip-1496)"><g><clipPath id="clip-1497"><path d="M 645.5 404.0 L 693.8 404.0 L 693.8 452.5 L 645.5 452.5 Z M 645.5 404.0 "></path></clipPath><g clip-path="url(#clip-1497)"><text xml:space="preserve" font-family="GillSans-Light" font-size="30.0" fill="#595E5D" transform="matrix(1.00, 0.00, -0.00, -1.00, 662.0, 419.0)">7</text></g></g></g></g><g><clipPath id="clip-1498"><path d="M 151.5 552.5 L 842.7 552.5 L 842.7 56.5 L 151.5 56.5 Z M 151.5 552.5 "></path></clipPath><g clip-path="url(#clip-1498)"><g><clipPath id="clip-1499"><path d="M 694.8 404.0 L 743.1 404.0 L 743.1 452.5 L 694.8 452.5 Z M 694.8 404.0 "></path></clipPath><g clip-path="url(#clip-1499)"><text xml:space="preserve" font-family="GillSans-Light" font-size="30.0" fill="#595E5D" transform="matrix(1.00, 0.00, -0.00, -1.00, 711.0, 419.0)">8</text></g></g></g></g><g><clipPath id="clip-1500"><path d="M 151.5 552.5 L 842.7 552.5 L 842.7 56.5 L 151.5 56.5 Z M 151.5 552.5 "></path></clipPath><g clip-path="url(#clip-1500)"><g><clipPath id="clip-1501"><path d="M 744.1 404.0 L 792.4 404.0 L 792.4 452.5 L 744.1 452.5 Z M 744.1 404.0 "></path></clipPath><g clip-path="url(#clip-1501)"><text xml:space="preserve" font-family="GillSans-Light" font-size="30.0" fill="#595E5D" transform="matrix(1.00, 0.00, -0.00, -1.00, 761.0, 419.0)">7</text></g></g></g></g><g><clipPath id="clip-1502"><path d="M 151.5 552.5 L 842.7 552.5 L 842.7 56.5 L 151.5 56.5 Z M 151.5 552.5 "></path></clipPath><g clip-path="url(#clip-1502)"><g><clipPath id="clip-1503"><path d="M 793.4 404.0 L 841.7 404.0 L 841.7 452.5 L 793.4 452.5 Z M 793.4 404.0 "></path></clipPath><g clip-path="url(#clip-1503)"><text xml:space="preserve" font-family="GillSans-Light" font-size="30.0" fill="#595E5D" transform="matrix(1.00, 0.00, -0.00, -1.00, 810.0, 419.0)">8</text></g></g></g></g><g><clipPath id="clip-1504"><path d="M 151.5 552.5 L 842.7 552.5 L 842.7 56.5 L 151.5 56.5 Z M 151.5 552.5 "></path></clipPath><g clip-path="url(#clip-1504)"><g><clipPath id="clip-1505"><path d="M 152.5 305.0 L 200.8 305.0 L 200.8 353.5 L 152.5 353.5 Z M 152.5 305.0 "></path></clipPath><g clip-path="url(#clip-1505)"><text xml:space="preserve" font-family="GillSans-Light" font-size="30.0" fill="#595E5D" transform="matrix(1.00, 0.00, -0.00, -1.00, 169.0, 320.0)">5</text></g></g></g></g><g><clipPath id="clip-1506"><path d="M 151.5 552.5 L 842.7 552.5 L 842.7 56.5 L 151.5 56.5 Z M 151.5 552.5 "></path></clipPath><g clip-path="url(#clip-1506)"><g><clipPath id="clip-1507"><path d="M 201.8 305.0 L 250.1 305.0 L 250.1 353.5 L 201.8 353.5 Z M 201.8 305.0 "></path></clipPath><g clip-path="url(#clip-1507)"><text xml:space="preserve" font-family="GillSans-Light" font-size="30.0" fill="#595E5D" transform="matrix(1.00, 0.00, -0.00, -1.00, 218.0, 320.0)">8</text></g></g></g></g><g><clipPath id="clip-1508"><path d="M 151.5 552.5 L 842.7 552.5 L 842.7 56.5 L 151.5 56.5 Z M 151.5 552.5 "></path></clipPath><g clip-path="url(#clip-1508)"><g><clipPath id="clip-1509"><path d="M 251.1 305.0 L 299.4 305.0 L 299.4 353.5 L 251.1 353.5 Z M 251.1 305.0 "></path></clipPath><g clip-path="url(#clip-1509)"><text xml:space="preserve" font-family="GillSans-Light" font-size="30.0" fill="#595E5D" transform="matrix(1.00, 0.00, -0.00, -1.00, 268.0, 320.0)">6</text></g></g></g></g><g><clipPath id="clip-1510"><path d="M 151.5 552.5 L 842.7 552.5 L 842.7 56.5 L 151.5 56.5 Z M 151.5 552.5 "></path></clipPath><g clip-path="url(#clip-1510)"><g><clipPath id="clip-1511"><path d="M 300.4 305.0 L 348.7 305.0 L 348.7 353.5 L 300.4 353.5 Z M 300.4 305.0 "></path></clipPath><g clip-path="url(#clip-1511)"><text xml:space="preserve" font-family="GillSans-Light" font-size="30.0" fill="#595E5D" transform="matrix(1.00, 0.00, -0.00, -1.00, 317.0, 320.0)">8</text></g></g></g></g><g><clipPath id="clip-1512"><path d="M 151.5 552.5 L 842.7 552.5 L 842.7 56.5 L 151.5 56.5 Z M 151.5 552.5 "></path></clipPath><g clip-path="url(#clip-1512)"><g><clipPath id="clip-1513"><path d="M 349.7 305.0 L 398.0 305.0 L 398.0 353.5 L 349.7 353.5 Z M 349.7 305.0 "></path></clipPath><g clip-path="url(#clip-1513)"><text xml:space="preserve" font-family="GillSans-Light" font-size="30.0" fill="#595E5D" transform="matrix(1.00, 0.00, -0.00, -1.00, 366.0, 320.0)">5</text></g></g></g></g><g><clipPath id="clip-1514"><path d="M 151.5 552.5 L 842.7 552.5 L 842.7 56.5 L 151.5 56.5 Z M 151.5 552.5 "></path></clipPath><g clip-path="url(#clip-1514)"><g><clipPath id="clip-1515"><path d="M 399.0 305.0 L 447.3 305.0 L 447.3 353.5 L 399.0 353.5 Z M 399.0 305.0 "></path></clipPath><g clip-path="url(#clip-1515)"><text xml:space="preserve" font-family="GillSans-Light" font-size="30.0" fill="#595E5D" transform="matrix(1.00, 0.00, -0.00, -1.00, 416.0, 320.0)">8</text></g></g></g></g><g><clipPath id="clip-1516"><path d="M 151.5 552.5 L 842.7 552.5 L 842.7 56.5 L 151.5 56.5 Z M 151.5 552.5 "></path></clipPath><g clip-path="url(#clip-1516)"><g><clipPath id="clip-1517"><path d="M 448.3 305.0 L 496.6 305.0 L 496.6 353.5 L 448.3 353.5 Z M 448.3 305.0 "></path></clipPath><g clip-path="url(#clip-1517)"><text xml:space="preserve" font-family="GillSans-Light" font-size="30.0" fill="#595E5D" transform="matrix(1.00, 0.00, -0.00, -1.00, 465.0, 320.0)">6</text></g></g></g></g><g><clipPath id="clip-1518"><path d="M 151.5 552.5 L 842.7 552.5 L 842.7 56.5 L 151.5 56.5 Z M 151.5 552.5 "></path></clipPath><g clip-path="url(#clip-1518)"><g><clipPath id="clip-1519"><path d="M 497.6 305.0 L 545.9 305.0 L 545.9 353.5 L 497.6 353.5 Z M 497.6 305.0 "></path></clipPath><g clip-path="url(#clip-1519)"><text xml:space="preserve" font-family="GillSans-Light" font-size="30.0" fill="#595E5D" transform="matrix(1.00, 0.00, -0.00, -1.00, 518.0, 320.0)">?</text></g></g></g></g><g><clipPath id="clip-1520"><path d="M 151.5 552.5 L 842.7 552.5 L 842.7 56.5 L 151.5 56.5 Z M 151.5 552.5 "></path></clipPath><g clip-path="url(#clip-1520)"><g><clipPath id="clip-1521"><path d="M 546.9 305.0 L 595.2 305.0 L 595.2 353.5 L 546.9 353.5 Z M 546.9 305.0 "></path></clipPath><g clip-path="url(#clip-1521)"><text xml:space="preserve" font-family="GillSans-Light" font-size="30.0" fill="#595E5D" transform="matrix(1.00, 0.00, -0.00, -1.00, 564.0, 320.0)">5</text></g></g></g></g><g><clipPath id="clip-1522"><path d="M 151.5 552.5 L 842.7 552.5 L 842.7 56.5 L 151.5 56.5 Z M 151.5 552.5 "></path></clipPath><g clip-path="url(#clip-1522)"><g><clipPath id="clip-1523"><path d="M 645.5 305.0 L 693.8 305.0 L 693.8 353.5 L 645.5 353.5 Z M 645.5 305.0 "></path></clipPath><g clip-path="url(#clip-1523)"><text xml:space="preserve" font-family="GillSans-Light" font-size="30.0" fill="#595E5D" transform="matrix(1.00, 0.00, -0.00, -1.00, 662.0, 320.0)">6</text></g></g></g></g><g><clipPath id="clip-1524"><path d="M 151.5 552.5 L 842.7 552.5 L 842.7 56.5 L 151.5 56.5 Z M 151.5 552.5 "></path></clipPath><g clip-path="url(#clip-1524)"><g><clipPath id="clip-1525"><path d="M 744.1 305.0 L 792.4 305.0 L 792.4 353.5 L 744.1 353.5 Z M 744.1 305.0 "></path></clipPath><g clip-path="url(#clip-1525)"><text xml:space="preserve" font-family="GillSans-Light" font-size="30.0" fill="#595E5D" transform="matrix(1.00, 0.00, -0.00, -1.00, 761.0, 320.0)">5</text></g></g></g></g><g><clipPath id="clip-1526"><path d="M 151.5 552.5 L 842.7 552.5 L 842.7 56.5 L 151.5 56.5 Z M 151.5 552.5 "></path></clipPath><g clip-path="url(#clip-1526)"><g><clipPath id="clip-1527"><path d="M 152.5 206.0 L 200.8 206.0 L 200.8 254.5 L 152.5 254.5 Z M 152.5 206.0 "></path></clipPath><g clip-path="url(#clip-1527)"><text xml:space="preserve" font-family="GillSans-Light" font-size="30.0" fill="#595E5D" transform="matrix(1.00, 0.00, -0.00, -1.00, 169.0, 221.0)">7</text></g></g></g></g><g><clipPath id="clip-1528"><path d="M 151.5 552.5 L 842.7 552.5 L 842.7 56.5 L 151.5 56.5 Z M 151.5 552.5 "></path></clipPath><g clip-path="url(#clip-1528)"><g><clipPath id="clip-1529"><path d="M 251.1 206.0 L 299.4 206.0 L 299.4 254.5 L 251.1 254.5 Z M 251.1 206.0 "></path></clipPath><g clip-path="url(#clip-1529)"><text xml:space="preserve" font-family="GillSans-Light" font-size="30.0" fill="#595E5D" transform="matrix(1.00, 0.00, -0.00, -1.00, 268.0, 221.0)">7</text></g></g></g></g><g><clipPath id="clip-1530"><path d="M 151.5 552.5 L 842.7 552.5 L 842.7 56.5 L 151.5 56.5 Z M 151.5 552.5 "></path></clipPath><g clip-path="url(#clip-1530)"><g><clipPath id="clip-1531"><path d="M 349.7 206.0 L 398.0 206.0 L 398.0 254.5 L 349.7 254.5 Z M 349.7 206.0 "></path></clipPath><g clip-path="url(#clip-1531)"><text xml:space="preserve" font-family="GillSans-Light" font-size="30.0" fill="#595E5D" transform="matrix(1.00, 0.00, -0.00, -1.00, 366.0, 221.0)">7</text></g></g></g></g><g><clipPath id="clip-1532"><path d="M 151.5 552.5 L 842.7 552.5 L 842.7 56.5 L 151.5 56.5 Z M 151.5 552.5 "></path></clipPath><g clip-path="url(#clip-1532)"><g><clipPath id="clip-1533"><path d="M 448.3 206.0 L 496.6 206.0 L 496.6 254.5 L 448.3 254.5 Z M 448.3 206.0 "></path></clipPath><g clip-path="url(#clip-1533)"><text xml:space="preserve" font-family="GillSans-Light" font-size="30.0" fill="#595E5D" transform="matrix(1.00, 0.00, -0.00, -1.00, 465.0, 221.0)">7</text></g></g></g></g><g><clipPath id="clip-1534"><path d="M 151.5 552.5 L 842.7 552.5 L 842.7 56.5 L 151.5 56.5 Z M 151.5 552.5 "></path></clipPath><g clip-path="url(#clip-1534)"><g><clipPath id="clip-1535"><path d="M 546.9 206.0 L 595.2 206.0 L 595.2 254.5 L 546.9 254.5 Z M 546.9 206.0 "></path></clipPath><g clip-path="url(#clip-1535)"><text xml:space="preserve" font-family="GillSans-Light" font-size="30.0" fill="#595E5D" transform="matrix(1.00, 0.00, -0.00, -1.00, 564.0, 221.0)">7</text></g></g></g></g><g><clipPath id="clip-1536"><path d="M 151.5 552.5 L 842.7 552.5 L 842.7 56.5 L 151.5 56.5 Z M 151.5 552.5 "></path></clipPath><g clip-path="url(#clip-1536)"><g><clipPath id="clip-1537"><path d="M 645.5 206.0 L 693.8 206.0 L 693.8 254.5 L 645.5 254.5 Z M 645.5 206.0 "></path></clipPath><g clip-path="url(#clip-1537)"><text xml:space="preserve" font-family="GillSans-Light" font-size="30.0" fill="#595E5D" transform="matrix(1.00, 0.00, -0.00, -1.00, 662.0, 221.0)">7</text></g></g></g></g><g><clipPath id="clip-1538"><path d="M 151.5 552.5 L 842.7 552.5 L 842.7 56.5 L 151.5 56.5 Z M 151.5 552.5 "></path></clipPath><g clip-path="url(#clip-1538)"><g><clipPath id="clip-1539"><path d="M 744.1 206.0 L 792.4 206.0 L 792.4 254.5 L 744.1 254.5 Z M 744.1 206.0 "></path></clipPath><g clip-path="url(#clip-1539)"><text xml:space="preserve" font-family="GillSans-Light" font-size="30.0" fill="#595E5D" transform="matrix(1.00, 0.00, -0.00, -1.00, 761.0, 221.0)">7</text></g></g></g></g><g><clipPath id="clip-1540"><path d="M 151.5 552.5 L 842.7 552.5 L 842.7 56.5 L 151.5 56.5 Z M 151.5 552.5 "></path></clipPath><g clip-path="url(#clip-1540)"><g><clipPath id="clip-1541"><path d="M 152.5 107.0 L 200.8 107.0 L 200.8 155.5 L 152.5 155.5 Z M 152.5 107.0 "></path></clipPath><g clip-path="url(#clip-1541)"><text xml:space="preserve" font-family="GillSans-Light" font-size="30.0" fill="#595E5D" transform="matrix(1.00, 0.00, -0.00, -1.00, 169.0, 122.0)">3</text></g></g></g></g><g><clipPath id="clip-1542"><path d="M 151.5 552.5 L 842.7 552.5 L 842.7 56.5 L 151.5 56.5 Z M 151.5 552.5 "></path></clipPath><g clip-path="url(#clip-1542)"><g><clipPath id="clip-1543"><path d="M 251.1 107.0 L 299.4 107.0 L 299.4 155.5 L 251.1 155.5 Z M 251.1 107.0 "></path></clipPath><g clip-path="url(#clip-1543)"><text xml:space="preserve" font-family="GillSans-Light" font-size="30.0" fill="#595E5D" transform="matrix(1.00, 0.00, -0.00, -1.00, 268.0, 122.0)">6</text></g></g></g></g><g><clipPath id="clip-1544"><path d="M 151.5 552.5 L 842.7 552.5 L 842.7 56.5 L 151.5 56.5 Z M 151.5 552.5 "></path></clipPath><g clip-path="url(#clip-1544)"><g><clipPath id="clip-1545"><path d="M 349.7 107.0 L 398.0 107.0 L 398.0 155.5 L 349.7 155.5 Z M 349.7 107.0 "></path></clipPath><g clip-path="url(#clip-1545)"><text xml:space="preserve" font-family="GillSans-Light" font-size="30.0" fill="#595E5D" transform="matrix(1.00, 0.00, -0.00, -1.00, 366.0, 122.0)">4</text></g></g></g></g><g><clipPath id="clip-1546"><path d="M 151.5 552.5 L 842.7 552.5 L 842.7 56.5 L 151.5 56.5 Z M 151.5 552.5 "></path></clipPath><g clip-path="url(#clip-1546)"><g><clipPath id="clip-1547"><path d="M 448.3 107.0 L 496.6 107.0 L 496.6 155.5 L 448.3 155.5 Z M 448.3 107.0 "></path></clipPath><g clip-path="url(#clip-1547)"><text xml:space="preserve" font-family="GillSans-Light" font-size="30.0" fill="#595E5D" transform="matrix(1.00, 0.00, -0.00, -1.00, 465.0, 122.0)">6</text></g></g></g></g><g><clipPath id="clip-1548"><path d="M 151.5 552.5 L 842.7 552.5 L 842.7 56.5 L 151.5 56.5 Z M 151.5 552.5 "></path></clipPath><g clip-path="url(#clip-1548)"><g><clipPath id="clip-1549"><path d="M 546.9 107.0 L 595.2 107.0 L 595.2 155.5 L 546.9 155.5 Z M 546.9 107.0 "></path></clipPath><g clip-path="url(#clip-1549)"><text xml:space="preserve" font-family="GillSans-Light" font-size="30.0" fill="#595E5D" transform="matrix(1.00, 0.00, -0.00, -1.00, 564.0, 122.0)">3</text></g></g></g></g><g><clipPath id="clip-1550"><path d="M 151.5 552.5 L 842.7 552.5 L 842.7 56.5 L 151.5 56.5 Z M 151.5 552.5 "></path></clipPath><g clip-path="url(#clip-1550)"><g><clipPath id="clip-1551"><path d="M 645.5 107.0 L 693.8 107.0 L 693.8 155.5 L 645.5 155.5 Z M 645.5 107.0 "></path></clipPath><g clip-path="url(#clip-1551)"><text xml:space="preserve" font-family="GillSans-Light" font-size="30.0" fill="#595E5D" transform="matrix(1.00, 0.00, -0.00, -1.00, 662.0, 122.0)">6</text></g></g></g></g><g><clipPath id="clip-1552"><path d="M 151.5 552.5 L 842.7 552.5 L 842.7 56.5 L 151.5 56.5 Z M 151.5 552.5 "></path></clipPath><g clip-path="url(#clip-1552)"><g><clipPath id="clip-1553"><path d="M 744.1 107.0 L 792.4 107.0 L 792.4 155.5 L 744.1 155.5 Z M 744.1 107.0 "></path></clipPath><g clip-path="url(#clip-1553)"><text xml:space="preserve" font-family="GillSans-Light" font-size="30.0" fill="#595E5D" transform="matrix(1.00, 0.00, -0.00, -1.00, 761.0, 122.0)">4</text></g></g></g></g><g><clipPath id="clip-1554"><path d="M 151.5 552.5 L 842.7 552.5 L 842.7 56.5 L 151.5 56.5 Z M 151.5 552.5 "></path></clipPath><g clip-path="url(#clip-1554)"><path d="M 51.3 1.5 L 51.3 497.5 " fill="none" stroke="#B4B4B4" stroke-width="1.00" transform="matrix(1.00, 0.00, 0.00, -1.00, 150.0, 554.0)"></path><path d="M 100.6 1.5 L 100.6 497.5 " fill="none" stroke="#B4B4B4" stroke-width="1.00" transform="matrix(1.00, 0.00, 0.00, -1.00, 150.0, 554.0)"></path><path d="M 149.9 1.5 L 149.9 497.5 " fill="none" stroke="#B4B4B4" stroke-width="1.00" transform="matrix(1.00, 0.00, 0.00, -1.00, 150.0, 554.0)"></path><path d="M 199.2 1.5 L 199.2 497.5 " fill="none" stroke="#B4B4B4" stroke-width="1.00" transform="matrix(1.00, 0.00, 0.00, -1.00, 150.0, 554.0)"></path><path d="M 248.5 1.5 L 248.5 497.5 " fill="none" stroke="#B4B4B4" stroke-width="1.00" transform="matrix(1.00, 0.00, 0.00, -1.00, 150.0, 554.0)"></path><path d="M 297.8 1.5 L 297.8 497.5 " fill="none" stroke="#B4B4B4" stroke-width="1.00" transform="matrix(1.00, 0.00, 0.00, -1.00, 150.0, 554.0)"></path><path d="M 347.1 1.5 L 347.1 497.5 " fill="none" stroke="#B4B4B4" stroke-width="1.00" transform="matrix(1.00, 0.00, 0.00, -1.00, 150.0, 554.0)"></path><path d="M 396.4 1.5 L 396.4 497.5 " fill="none" stroke="#B4B4B4" stroke-width="1.00" transform="matrix(1.00, 0.00, 0.00, -1.00, 150.0, 554.0)"></path><path d="M 445.7 1.5 L 445.7 497.5 " fill="none" stroke="#B4B4B4" stroke-width="1.00" transform="matrix(1.00, 0.00, 0.00, -1.00, 150.0, 554.0)"></path><path d="M 495.0 1.5 L 495.0 497.5 " fill="none" stroke="#B4B4B4" stroke-width="1.00" transform="matrix(1.00, 0.00, 0.00, -1.00, 150.0, 554.0)"></path><path d="M 544.3 1.5 L 544.3 497.5 " fill="none" stroke="#B4B4B4" stroke-width="1.00" transform="matrix(1.00, 0.00, 0.00, -1.00, 150.0, 554.0)"></path><path d="M 593.6 1.5 L 593.6 497.5 " fill="none" stroke="#B4B4B4" stroke-width="1.00" transform="matrix(1.00, 0.00, 0.00, -1.00, 150.0, 554.0)"></path><path d="M 642.9 1.5 L 642.9 497.5 " fill="none" stroke="#B4B4B4" stroke-width="1.00" transform="matrix(1.00, 0.00, 0.00, -1.00, 150.0, 554.0)"></path><path d="M 1.5 51.5 L 692.7 51.5 " fill="none" stroke="#B4B4B4" stroke-width="1.00" transform="matrix(1.00, 0.00, 0.00, -1.00, 150.0, 554.0)"></path><path d="M 1.5 101.0 L 692.7 101.0 " fill="none" stroke="#B4B4B4" stroke-width="1.00" transform="matrix(1.00, 0.00, 0.00, -1.00, 150.0, 554.0)"></path><path d="M 1.5 150.5 L 692.7 150.5 " fill="none" stroke="#B4B4B4" stroke-width="1.00" transform="matrix(1.00, 0.00, 0.00, -1.00, 150.0, 554.0)"></path><path d="M 1.5 200.0 L 692.7 200.0 " fill="none" stroke="#B4B4B4" stroke-width="1.00" transform="matrix(1.00, 0.00, 0.00, -1.00, 150.0, 554.0)"></path><path d="M 1.5 249.5 L 692.7 249.5 " fill="none" stroke="#B4B4B4" stroke-width="1.00" transform="matrix(1.00, 0.00, 0.00, -1.00, 150.0, 554.0)"></path><path d="M 1.5 299.0 L 692.7 299.0 " fill="none" stroke="#B4B4B4" stroke-width="1.00" transform="matrix(1.00, 0.00, 0.00, -1.00, 150.0, 554.0)"></path><path d="M 1.5 348.5 L 692.7 348.5 " fill="none" stroke="#B4B4B4" stroke-width="1.00" transform="matrix(1.00, 0.00, 0.00, -1.00, 150.0, 554.0)"></path><path d="M 1.5 398.0 L 692.7 398.0 " fill="none" stroke="#B4B4B4" stroke-width="1.00" transform="matrix(1.00, 0.00, 0.00, -1.00, 150.0, 554.0)"></path><path d="M 1.5 447.5 L 692.7 447.5 " fill="none" stroke="#B4B4B4" stroke-width="1.00" transform="matrix(1.00, 0.00, 0.00, -1.00, 150.0, 554.0)"></path><path d="M 2.0 1.5 L 2.0 497.5 " fill="none" stroke="#B4B4B4" stroke-width="1.00" transform="matrix(1.00, 0.00, 0.00, -1.00, 150.0, 554.0)"></path><path d="M 692.2 1.5 L 692.2 497.5 " fill="none" stroke="#B4B4B4" stroke-width="1.00" transform="matrix(1.00, 0.00, 0.00, -1.00, 150.0, 554.0)"></path><path d="M 1.5 2.0 L 692.7 2.0 " fill="none" stroke="#B4B4B4" stroke-width="1.00" transform="matrix(1.00, 0.00, 0.00, -1.00, 150.0, 554.0)"></path><path d="M 1.5 497.0 L 692.7 497.0 " fill="none" stroke="#B4B4B4" stroke-width="1.00" transform="matrix(1.00, 0.00, 0.00, -1.00, 150.0, 554.0)"></path></g></g></g></svg>