<?xml version="1.0" encoding="UTF-8" standalone="no"?><svg xmlns="http://www.w3.org/2000/svg" xmlns:xlink="http://www.w3.org/1999/xlink" clip-rule="evenodd" stroke-miterlimit="4.00" viewBox="0 0 1024 768"><desc>SVG generated by Keynote</desc><defs></defs><g transform="matrix(1.00, 0.00, -0.00, -1.00, 0.0, 768.0)"><g><clipPath id="clip-1673"><path d="M 0.0 768.0 L 1024.0 768.0 L 1024.0 0.0 L 0.0 0.0 Z M 0.0 768.0 "></path></clipPath><g clip-path="url(#clip-1673)"><image xlink:href="../../293415CD-D1BA-41BB-8703-BAEDA9FFCE27/assets/D3CB8578D364082F6943B53F933CCC32.jpeg" width="1024.00" height="768.00" transform="matrix(1.00, 0.00, -0.00, -1.00, 0.0, 768.0)"></image></g></g><text xml:space="preserve" font-family="GillSans-Light" font-size="72.0" fill="#525252" transform="matrix(1.00, 0.00, -0.00, -1.00, 396.0, 628.0)">C</text><text xml:space="preserve" font-family="GillSans-Light" font-size="72.0" fill="#525252" transform="matrix(1.00, 0.00, -0.00, -1.00, 447.9, 628.0)">A</text><text xml:space="preserve" font-family="GillSans-Light" font-size="72.0" fill="#525252" transform="matrix(1.00, 0.00, -0.00, -1.00, 496.0, 628.0)">B</text><text xml:space="preserve" font-family="GillSans-Light" font-size="72.0" fill="#525252" transform="matrix(1.00, 0.00, -0.00, -1.00, 535.6, 628.0)">A</text><text xml:space="preserve" font-family="GillSans-Light" font-size="72.0" fill="#525252" transform="matrix(1.00, 0.00, -0.00, -1.00, 580.0, 628.0)">C</text><text xml:space="preserve" font-family="GillSans-Light" font-size="25.3" fill="#525252" transform="matrix(1.00, 0.00, -0.00, -1.00, 32.0, 522.0)">•</text><text xml:space="preserve" font-family="GillSans-Light" font-size="30.8" fill="#525252" transform="matrix(1.00, 0.00, -0.00, -1.00, 59.0, 520.0)">E</text><text xml:space="preserve" font-family="GillSans-Light" font-size="30.8" fill="#525252" transform="matrix(1.00, 0.00, -0.00, -1.00, 74.1, 520.0)">x</text><text xml:space="preserve" font-family="GillSans-Light" font-size="30.8" fill="#525252" transform="matrix(1.00, 0.00, -0.00, -1.00, 88.9, 520.0)">a</text><text xml:space="preserve" font-family="GillSans-Light" font-size="30.8" fill="#525252" transform="matrix(1.00, 0.00, -0.00, -1.00, 102.0, 520.0)">m</text><text xml:space="preserve" font-family="GillSans-Light" font-size="30.8" fill="#525252" transform="matrix(1.00, 0.00, -0.00, -1.00, 125.8, 520.0)">p</text><text xml:space="preserve" font-family="GillSans-Light" font-size="30.8" fill="#525252" transform="matrix(1.00, 0.00, -0.00, -1.00, 141.5, 520.0)">l</text><text xml:space="preserve" font-family="GillSans-Light" font-size="30.8" fill="#525252" transform="matrix(1.00, 0.00, -0.00, -1.00, 147.3, 520.0)">e</text><text xml:space="preserve" font-family="GillSans-Light" font-size="30.8" fill="#525252" transform="matrix(1.00, 0.00, -0.00, -1.00, 162.0, 520.0)"> </text><text xml:space="preserve" font-family="GillSans-Light" font-size="30.8" fill="#525252" transform="matrix(1.00, 0.00, -0.00, -1.00, 170.6, 520.0)">c</text><text xml:space="preserve" font-family="GillSans-Light" font-size="30.8" fill="#525252" transform="matrix(1.00, 0.00, -0.00, -1.00, 183.5, 520.0)">o</text><text xml:space="preserve" font-family="GillSans-Light" font-size="30.8" fill="#525252" transform="matrix(1.00, 0.00, -0.00, -1.00, 200.2, 520.0)">n</text><text xml:space="preserve" font-family="GillSans-Light" font-size="30.8" fill="#525252" transform="matrix(1.00, 0.00, -0.00, -1.00, 215.3, 520.0)">t</text><text xml:space="preserve" font-family="GillSans-Light" font-size="30.8" fill="#525252" transform="matrix(1.00, 0.00, -0.00, -1.00, 224.6, 520.0)">e</text><text xml:space="preserve" font-family="GillSans-Light" font-size="30.8" fill="#525252" transform="matrix(1.00, 0.00, -0.00, -1.00, 239.3, 520.0)">x</text><text xml:space="preserve" font-family="GillSans-Light" font-size="30.8" fill="#525252" transform="matrix(1.00, 0.00, -0.00, -1.00, 254.1, 520.0)">t</text><text xml:space="preserve" font-family="GillSans-Light" font-size="30.8" fill="#525252" transform="matrix(1.00, 0.00, -0.00, -1.00, 263.4, 520.0)"> </text><text xml:space="preserve" font-family="GillSans-Light" font-size="30.8" fill="#525252" transform="matrix(1.00, 0.00, -0.00, -1.00, 271.9, 520.0)">m</text><text xml:space="preserve" font-family="GillSans-Light" font-size="30.8" fill="#525252" transform="matrix(1.00, 0.00, -0.00, -1.00, 295.7, 520.0)">o</text><text xml:space="preserve" font-family="GillSans-Light" font-size="30.8" fill="#525252" transform="matrix(1.00, 0.00, -0.00, -1.00, 312.4, 520.0)">d</text><text xml:space="preserve" font-family="GillSans-Light" font-size="30.8" fill="#525252" transform="matrix(1.00, 0.00, -0.00, -1.00, 328.1, 520.0)">e</text><text xml:space="preserve" font-family="GillSans-Light" font-size="30.8" fill="#525252" transform="matrix(1.00, 0.00, -0.00, -1.00, 342.9, 520.0)">l</text><text xml:space="preserve" font-family="GillSans-Light" font-size="30.8" fill="#525252" transform="matrix(1.00, 0.00, -0.00, -1.00, 348.7, 520.0)">:</text><text xml:space="preserve" font-family="GillSans-Light" font-size="30.8" fill="#525252" transform="matrix(1.00, 0.00, -0.00, -1.00, 351.6, 520.0)"> </text><text xml:space="preserve" font-family="GillSans-Light" font-size="30.8" fill="#525252" transform="matrix(1.00, 0.00, -0.00, -1.00, 360.2, 520.0)">F</text><text xml:space="preserve" font-family="GillSans-Light" font-size="30.8" fill="#525252" transform="matrix(1.00, 0.00, -0.00, -1.00, 373.7, 520.0)">F</text><text xml:space="preserve" font-family="GillSans-Light" font-size="30.8" fill="#525252" transform="matrix(1.00, 0.00, -0.00, -1.00, 387.2, 520.0)">V</text><text xml:space="preserve" font-family="GillSans-Light" font-size="30.8" fill="#525252" transform="matrix(1.00, 0.00, -0.00, -1.00, 405.5, 520.0)">1</text><text xml:space="preserve" font-family="GillSans-Light" font-size="30.8" fill="#525252" transform="matrix(1.00, 0.00, -0.00, -1.00, 420.9, 520.0)">,</text><text xml:space="preserve" font-family="GillSans-Light" font-size="30.8" fill="#525252" transform="matrix(1.00, 0.00, -0.00, -1.00, 423.9, 520.0)"> </text><text xml:space="preserve" font-family="GillSans-Light" font-size="30.8" fill="#525252" transform="matrix(1.00, 0.00, -0.00, -1.00, 429.4, 520.0)">“</text><text xml:space="preserve" font-family="GillSans-Light" font-size="30.8" fill="#525252" transform="matrix(1.00, 0.00, -0.00, -1.00, 441.6, 520.0)">l</text><text xml:space="preserve" font-family="GillSans-Light" font-size="30.8" fill="#525252" transform="matrix(1.00, 0.00, -0.00, -1.00, 447.4, 520.0)">a</text><text xml:space="preserve" font-family="GillSans-Light" font-size="30.8" fill="#525252" transform="matrix(1.00, 0.00, -0.00, -1.00, 460.5, 520.0)">r</text><text xml:space="preserve" font-family="GillSans-Light" font-size="30.8" fill="#525252" transform="matrix(1.00, 0.00, -0.00, -1.00, 471.6, 520.0)">g</text><text xml:space="preserve" font-family="GillSans-Light" font-size="30.8" fill="#525252" transform="matrix(1.00, 0.00, -0.00, -1.00, 484.7, 520.0)">e</text><text xml:space="preserve" font-family="GillSans-Light" font-size="30.8" fill="#525252" transform="matrix(1.00, 0.00, -0.00, -1.00, 499.5, 520.0)"> </text><text xml:space="preserve" font-family="GillSans-Light" font-size="30.8" fill="#525252" transform="matrix(1.00, 0.00, -0.00, -1.00, 508.0, 520.0)">m</text><text xml:space="preserve" font-family="GillSans-Light" font-size="30.8" fill="#525252" transform="matrix(1.00, 0.00, -0.00, -1.00, 531.8, 520.0)">o</text><text xml:space="preserve" font-family="GillSans-Light" font-size="30.8" fill="#525252" transform="matrix(1.00, 0.00, -0.00, -1.00, 548.5, 520.0)">d</text><text xml:space="preserve" font-family="GillSans-Light" font-size="30.8" fill="#525252" transform="matrix(1.00, 0.00, -0.00, -1.00, 564.2, 520.0)">e</text><text xml:space="preserve" font-family="GillSans-Light" font-size="30.8" fill="#525252" transform="matrix(1.00, 0.00, -0.00, -1.00, 579.0, 520.0)">l</text><text xml:space="preserve" font-family="GillSans-Light" font-size="30.8" fill="#525252" transform="matrix(1.00, 0.00, -0.00, -1.00, 584.7, 520.0)">”</text><text xml:space="preserve" font-family="GillSans-Light" font-size="25.3" fill="#525252" transform="matrix(1.00, 0.00, -0.00, -1.00, 73.0, 446.1)">•</text><text xml:space="preserve" font-family="GillSans-Light" font-size="30.8" fill="#525252" transform="matrix(1.00, 0.00, -0.00, -1.00, 100.0, 441.0)">u</text><text xml:space="preserve" font-family="GillSans-Light" font-size="30.8" fill="#525252" transform="matrix(1.00, 0.00, -0.00, -1.00, 115.1, 441.0)">p</text><text xml:space="preserve" font-family="GillSans-Light" font-size="30.8" fill="#525252" transform="matrix(1.00, 0.00, -0.00, -1.00, 130.8, 441.0)"> </text><text xml:space="preserve" font-family="GillSans-Light" font-size="30.8" fill="#525252" transform="matrix(1.00, 0.00, -0.00, -1.00, 139.4, 441.0)">t</text><text xml:space="preserve" font-family="GillSans-Light" font-size="30.8" fill="#525252" transform="matrix(1.00, 0.00, -0.00, -1.00, 148.7, 441.0)">o</text><text xml:space="preserve" font-family="GillSans-Light" font-size="30.8" fill="#525252" transform="matrix(1.00, 0.00, -0.00, -1.00, 165.4, 441.0)"> </text><text xml:space="preserve" font-family="Impact" font-weight="bold" font-size="33.5" fill="#525252" transform="matrix(1.00, 0.00, -0.00, -1.00, 173.9, 441.0)">5</text><text xml:space="preserve" font-family="GillSans-Light" font-size="30.8" fill="#525252" transform="matrix(1.00, 0.00, -0.00, -1.00, 191.9, 441.0)"> </text><text xml:space="preserve" font-family="GillSans-Light" font-size="30.8" fill="#525252" transform="matrix(1.00, 0.00, -0.00, -1.00, 200.5, 441.0)">p</text><text xml:space="preserve" font-family="GillSans-Light" font-size="30.8" fill="#525252" transform="matrix(1.00, 0.00, -0.00, -1.00, 216.2, 441.0)">r</text><text xml:space="preserve" font-family="GillSans-Light" font-size="30.8" fill="#525252" transform="matrix(1.00, 0.00, -0.00, -1.00, 226.5, 441.0)">o</text><text xml:space="preserve" font-family="GillSans-Light" font-size="30.8" fill="#525252" transform="matrix(1.00, 0.00, -0.00, -1.00, 243.2, 441.0)">p</text><text xml:space="preserve" font-family="GillSans-Light" font-size="30.8" fill="#525252" transform="matrix(1.00, 0.00, -0.00, -1.00, 258.9, 441.0)">e</text><text xml:space="preserve" font-family="GillSans-Light" font-size="30.8" fill="#525252" transform="matrix(1.00, 0.00, -0.00, -1.00, 273.6, 441.0)">r</text><text xml:space="preserve" font-family="GillSans-Light" font-size="30.8" fill="#525252" transform="matrix(1.00, 0.00, -0.00, -1.00, 286.4, 441.0)">t</text><text xml:space="preserve" font-family="GillSans-Light" font-size="30.8" fill="#525252" transform="matrix(1.00, 0.00, -0.00, -1.00, 295.6, 441.0)">i</text><text xml:space="preserve" font-family="GillSans-Light" font-size="30.8" fill="#525252" transform="matrix(1.00, 0.00, -0.00, -1.00, 301.4, 441.0)">e</text><text xml:space="preserve" font-family="GillSans-Light" font-size="30.8" fill="#525252" transform="matrix(1.00, 0.00, -0.00, -1.00, 316.2, 441.0)">s</text><text xml:space="preserve" font-family="GillSans-Light" font-size="30.8" fill="#525252" transform="matrix(1.00, 0.00, -0.00, -1.00, 327.1, 441.0)">:</text><text xml:space="preserve" font-family="GillSans-Light" font-size="30.8" fill="#525252" transform="matrix(1.00, 0.00, -0.00, -1.00, 330.1, 441.0)"> </text><text xml:space="preserve" font-family="GillSans-Light" font-size="30.8" fill="#525252" transform="matrix(1.00, 0.00, -0.00, -1.00, 338.6, 441.0)">(</text><text xml:space="preserve" font-family="GillSans-Light" font-size="30.8" fill="#525252" transform="matrix(1.00, 0.00, -0.00, -1.00, 348.9, 441.0)">T</text><text xml:space="preserve" font-family="GillSans-Light" font-size="30.8" fill="#525252" transform="matrix(1.00, 0.00, -0.00, -1.00, 366.6, 441.0)">T</text><text xml:space="preserve" font-family="GillSans-Light" font-size="30.8" fill="#525252" transform="matrix(1.00, 0.00, -0.00, -1.00, 379.6, 441.0)">-</text><text xml:space="preserve" font-family="GillSans-Light" font-size="30.8" fill="#525252" transform="matrix(1.00, 0.00, -0.00, -1.00, 389.3, 441.0)">T</text><text xml:space="preserve" font-family="GillSans-Light" font-size="30.8" fill="#525252" transform="matrix(1.00, 0.00, -0.00, -1.00, 407.0, 441.0)">)</text><text xml:space="preserve" font-family="GillSans-Light" font-size="30.8" fill="#525252" transform="matrix(1.00, 0.00, -0.00, -1.00, 417.2, 441.0)">,</text><text xml:space="preserve" font-family="GillSans-Light" font-size="30.8" fill="#525252" transform="matrix(1.00, 0.00, -0.00, -1.00, 420.2, 441.0)"> </text><text xml:space="preserve" font-family="GillSans-Light" font-size="30.8" fill="#525252" transform="matrix(1.00, 0.00, -0.00, -1.00, 428.7, 441.0)">(</text><text xml:space="preserve" font-family="GillSans-Light" font-size="30.8" fill="#525252" transform="matrix(1.00, 0.00, -0.00, -1.00, 439.0, 441.0)">L</text><text xml:space="preserve" font-family="GillSans-Light" font-size="30.8" fill="#525252" transform="matrix(1.00, 0.00, -0.00, -1.00, 453.5, 441.0)">L</text><text xml:space="preserve" font-family="GillSans-Light" font-size="30.8" fill="#525252" transform="matrix(1.00, 0.00, -0.00, -1.00, 467.9, 441.0)">-</text><text xml:space="preserve" font-family="GillSans-Light" font-size="30.8" fill="#525252" transform="matrix(1.00, 0.00, -0.00, -1.00, 477.6, 441.0)">L</text><text xml:space="preserve" font-family="GillSans-Light" font-size="30.8" fill="#525252" transform="matrix(1.00, 0.00, -0.00, -1.00, 492.1, 441.0)">)</text><text xml:space="preserve" font-family="GillSans-Light" font-size="30.8" fill="#525252" transform="matrix(1.00, 0.00, -0.00, -1.00, 502.3, 441.0)">,</text><text xml:space="preserve" font-family="GillSans-Light" font-size="30.8" fill="#525252" transform="matrix(1.00, 0.00, -0.00, -1.00, 505.3, 441.0)"> </text><text xml:space="preserve" font-family="GillSans-Light" font-size="30.8" fill="#525252" transform="matrix(1.00, 0.00, -0.00, -1.00, 513.9, 441.0)">(</text><text xml:space="preserve" font-family="GillSans-Light" font-size="30.8" fill="#525252" transform="matrix(1.00, 0.00, -0.00, -1.00, 524.1, 441.0)">L</text><text xml:space="preserve" font-family="GillSans-Light" font-size="30.8" fill="#525252" transform="matrix(1.00, 0.00, -0.00, -1.00, 538.6, 441.0)">-</text><text xml:space="preserve" font-family="GillSans-Light" font-size="30.8" fill="#525252" transform="matrix(1.00, 0.00, -0.00, -1.00, 548.2, 441.0)">T</text><text xml:space="preserve" font-family="GillSans-Light" font-size="30.8" fill="#525252" transform="matrix(1.00, 0.00, -0.00, -1.00, 565.9, 441.0)">L</text><text xml:space="preserve" font-family="GillSans-Light" font-size="30.8" fill="#525252" transform="matrix(1.00, 0.00, -0.00, -1.00, 580.4, 441.0)">)</text><text xml:space="preserve" font-family="GillSans-Light" font-size="30.8" fill="#525252" transform="matrix(1.00, 0.00, -0.00, -1.00, 590.7, 441.0)">,</text><text xml:space="preserve" font-family="GillSans-Light" font-size="30.8" fill="#525252" transform="matrix(1.00, 0.00, -0.00, -1.00, 593.6, 441.0)"> </text><text xml:space="preserve" font-family="GillSans-Light" font-size="30.8" fill="#525252" transform="matrix(1.00, 0.00, -0.00, -1.00, 602.2, 441.0)"> </text><text xml:space="preserve" font-family="GillSans-Light" font-size="30.8" fill="#525252" transform="matrix(1.00, 0.00, -0.00, -1.00, 610.7, 441.0)">(</text><text xml:space="preserve" font-family="GillSans-Light" font-size="30.8" fill="#525252" transform="matrix(1.00, 0.00, -0.00, -1.00, 621.0, 441.0)">T</text><text xml:space="preserve" font-family="GillSans-Light" font-size="30.8" fill="#525252" transform="matrix(1.00, 0.00, -0.00, -1.00, 638.7, 441.0)">L</text><text xml:space="preserve" font-family="GillSans-Light" font-size="30.8" fill="#525252" transform="matrix(1.00, 0.00, -0.00, -1.00, 653.1, 441.0)">-</text><text xml:space="preserve" font-family="GillSans-Light" font-size="30.8" fill="#525252" transform="matrix(1.00, 0.00, -0.00, -1.00, 662.8, 441.0)">T</text><text xml:space="preserve" font-family="GillSans-Light" font-size="30.8" fill="#525252" transform="matrix(1.00, 0.00, -0.00, -1.00, 680.5, 441.0)">)</text><text xml:space="preserve" font-family="GillSans-Light" font-size="30.8" fill="#525252" transform="matrix(1.00, 0.00, -0.00, -1.00, 690.7, 441.0)">,</text><text xml:space="preserve" font-family="GillSans-Light" font-size="30.8" fill="#525252" transform="matrix(1.00, 0.00, -0.00, -1.00, 693.7, 441.0)"> </text><text xml:space="preserve" font-family="GillSans-Light" font-size="30.8" fill="#525252" transform="matrix(1.00, 0.00, -0.00, -1.00, 702.3, 441.0)">(</text><text xml:space="preserve" font-family="GillSans-Light" font-size="30.8" fill="#525252" transform="matrix(1.00, 0.00, -0.00, -1.00, 712.5, 441.0)">T</text><text xml:space="preserve" font-family="GillSans-Light" font-size="30.8" fill="#525252" transform="matrix(1.00, 0.00, -0.00, -1.00, 725.6, 441.0)">-</text><text xml:space="preserve" font-family="GillSans-Light" font-size="30.8" fill="#525252" transform="matrix(1.00, 0.00, -0.00, -1.00, 735.2, 441.0)">T</text><text xml:space="preserve" font-family="GillSans-Light" font-size="30.8" fill="#525252" transform="matrix(1.00, 0.00, -0.00, -1.00, 752.9, 441.0)">R</text><text xml:space="preserve" font-family="GillSans-Light" font-size="30.8" fill="#525252" transform="matrix(1.00, 0.00, -0.00, -1.00, 770.6, 441.0)">)</text><text xml:space="preserve" font-family="GillSans-Light" font-size="25.3" fill="#525252" transform="matrix(1.00, 0.00, -0.00, -1.00, 73.0, 367.8)">•</text><text xml:space="preserve" font-family="GillSans-Light" font-size="30.8" fill="#525252" transform="matrix(1.00, 0.00, -0.00, -1.00, 100.0, 366.0)">P</text><text xml:space="preserve" font-family="GillSans-Light" font-size="30.8" fill="#525252" transform="matrix(1.00, 0.00, -0.00, -1.00, 115.7, 366.0)">r</text><text xml:space="preserve" font-family="GillSans-Light" font-size="30.8" fill="#525252" transform="matrix(1.00, 0.00, -0.00, -1.00, 126.0, 366.0)">o</text><text xml:space="preserve" font-family="GillSans-Light" font-size="30.8" fill="#525252" transform="matrix(1.00, 0.00, -0.00, -1.00, 142.7, 366.0)">p</text><text xml:space="preserve" font-family="GillSans-Light" font-size="30.8" fill="#525252" transform="matrix(1.00, 0.00, -0.00, -1.00, 158.4, 366.0)">e</text><text xml:space="preserve" font-family="GillSans-Light" font-size="30.8" fill="#525252" transform="matrix(1.00, 0.00, -0.00, -1.00, 173.1, 366.0)">r</text><text xml:space="preserve" font-family="GillSans-Light" font-size="30.8" fill="#525252" transform="matrix(1.00, 0.00, -0.00, -1.00, 185.9, 366.0)">t</text><text xml:space="preserve" font-family="GillSans-Light" font-size="30.8" fill="#525252" transform="matrix(1.00, 0.00, -0.00, -1.00, 195.2, 366.0)">i</text><text xml:space="preserve" font-family="GillSans-Light" font-size="30.8" fill="#525252" transform="matrix(1.00, 0.00, -0.00, -1.00, 201.0, 366.0)">e</text><text xml:space="preserve" font-family="GillSans-Light" font-size="30.8" fill="#525252" transform="matrix(1.00, 0.00, -0.00, -1.00, 215.7, 366.0)">s</text><text xml:space="preserve" font-family="GillSans-Light" font-size="30.8" fill="#525252" transform="matrix(1.00, 0.00, -0.00, -1.00, 226.6, 366.0)"> </text><text xml:space="preserve" font-family="GillSans-Light" font-size="30.8" fill="#525252" transform="matrix(1.00, 0.00, -0.00, -1.00, 235.2, 366.0)">a</text><text xml:space="preserve" font-family="GillSans-Light" font-size="30.8" fill="#525252" transform="matrix(1.00, 0.00, -0.00, -1.00, 248.3, 366.0)">r</text><text xml:space="preserve" font-family="GillSans-Light" font-size="30.8" fill="#525252" transform="matrix(1.00, 0.00, -0.00, -1.00, 258.6, 366.0)">e</text><text xml:space="preserve" font-family="GillSans-Light" font-size="30.8" fill="#525252" transform="matrix(1.00, 0.00, -0.00, -1.00, 273.4, 366.0)"> </text><text xml:space="preserve" font-family="GillSans-SemiBold" font-weight="bold" font-size="30.8" fill="#525252" transform="matrix(1.00, 0.00, -0.00, -1.00, 282.0, 366.0)">q</text><text xml:space="preserve" font-family="GillSans-SemiBold" font-weight="bold" font-size="30.8" fill="#525252" transform="matrix(1.00, 0.00, -0.00, -1.00, 298.9, 366.0)">u</text><text xml:space="preserve" font-family="GillSans-SemiBold" font-weight="bold" font-size="30.8" fill="#525252" transform="matrix(1.00, 0.00, -0.00, -1.00, 315.5, 366.0)">a</text><text xml:space="preserve" font-family="GillSans-SemiBold" font-weight="bold" font-size="30.8" fill="#525252" transform="matrix(1.00, 0.00, -0.00, -1.00, 330.4, 366.0)">n</text><text xml:space="preserve" font-family="GillSans-SemiBold" font-weight="bold" font-size="30.8" fill="#525252" transform="matrix(1.00, 0.00, -0.00, -1.00, 347.1, 366.0)">t</text><text xml:space="preserve" font-family="GillSans-SemiBold" font-weight="bold" font-size="30.8" fill="#525252" transform="matrix(1.00, 0.00, -0.00, -1.00, 358.4, 366.0)">i</text><text xml:space="preserve" font-family="GillSans-SemiBold" font-weight="bold" font-size="30.8" fill="#525252" transform="matrix(1.00, 0.00, -0.00, -1.00, 366.1, 366.0)">z</text><text xml:space="preserve" font-family="GillSans-SemiBold" font-weight="bold" font-size="30.8" fill="#525252" transform="matrix(1.00, 0.00, -0.00, -1.00, 380.7, 366.0)">e</text><text xml:space="preserve" font-family="GillSans-SemiBold" font-weight="bold" font-size="30.8" fill="#525252" transform="matrix(1.00, 0.00, -0.00, -1.00, 396.6, 366.0)">d</text><text xml:space="preserve" font-family="GillSans-Light" font-size="30.8" fill="#525252" transform="matrix(1.00, 0.00, -0.00, -1.00, 413.5, 366.0)">,</text><text xml:space="preserve" font-family="GillSans-Light" font-size="30.8" fill="#525252" transform="matrix(1.00, 0.00, -0.00, -1.00, 416.5, 366.0)"> </text><text xml:space="preserve" font-family="GillSans-Light" font-size="30.8" fill="#525252" transform="matrix(1.00, 0.00, -0.00, -1.00, 425.0, 366.0)">a</text><text xml:space="preserve" font-family="GillSans-Light" font-size="30.8" fill="#525252" transform="matrix(1.00, 0.00, -0.00, -1.00, 438.2, 366.0)">n</text><text xml:space="preserve" font-family="GillSans-Light" font-size="30.8" fill="#525252" transform="matrix(1.00, 0.00, -0.00, -1.00, 453.3, 366.0)">d</text><text xml:space="preserve" font-family="GillSans-Light" font-size="30.8" fill="#525252" transform="matrix(1.00, 0.00, -0.00, -1.00, 469.0, 366.0)"> </text><text xml:space="preserve" font-family="GillSans-Light" font-size="30.8" fill="#525252" transform="matrix(1.00, 0.00, -0.00, -1.00, 477.5, 366.0)">u</text><text xml:space="preserve" font-family="GillSans-Light" font-size="30.8" fill="#525252" transform="matrix(1.00, 0.00, -0.00, -1.00, 492.7, 366.0)">s</text><text xml:space="preserve" font-family="GillSans-Light" font-size="30.8" fill="#525252" transform="matrix(1.00, 0.00, -0.00, -1.00, 503.6, 366.0)">e</text><text xml:space="preserve" font-family="GillSans-Light" font-size="30.8" fill="#525252" transform="matrix(1.00, 0.00, -0.00, -1.00, 518.3, 366.0)">d</text><text xml:space="preserve" font-family="GillSans-Light" font-size="30.8" fill="#525252" transform="matrix(1.00, 0.00, -0.00, -1.00, 534.0, 366.0)"> </text><text xml:space="preserve" font-family="GillSans-Light" font-size="30.8" fill="#525252" transform="matrix(1.00, 0.00, -0.00, -1.00, 542.6, 366.0)">t</text><text xml:space="preserve" font-family="GillSans-Light" font-size="30.8" fill="#525252" transform="matrix(1.00, 0.00, -0.00, -1.00, 551.9, 366.0)">o</text><text xml:space="preserve" font-family="GillSans-Light" font-size="30.8" fill="#525252" transform="matrix(1.00, 0.00, -0.00, -1.00, 568.6, 366.0)"> </text><text xml:space="preserve" font-family="GillSans-Light" font-size="30.8" fill="#525252" transform="matrix(1.00, 0.00, -0.00, -1.00, 577.2, 366.0)">d</text><text xml:space="preserve" font-family="GillSans-Light" font-size="30.8" fill="#525252" transform="matrix(1.00, 0.00, -0.00, -1.00, 592.9, 366.0)">e</text><text xml:space="preserve" font-family="GillSans-Light" font-size="30.8" fill="#525252" transform="matrix(1.00, 0.00, -0.00, -1.00, 607.6, 366.0)">t</text><text xml:space="preserve" font-family="GillSans-Light" font-size="30.8" fill="#525252" transform="matrix(1.00, 0.00, -0.00, -1.00, 616.9, 366.0)">e</text><text xml:space="preserve" font-family="GillSans-Light" font-size="30.8" fill="#525252" transform="matrix(1.00, 0.00, -0.00, -1.00, 631.7, 366.0)">r</text><text xml:space="preserve" font-family="GillSans-Light" font-size="30.8" fill="#525252" transform="matrix(1.00, 0.00, -0.00, -1.00, 642.7, 366.0)">m</text><text xml:space="preserve" font-family="GillSans-Light" font-size="30.8" fill="#525252" transform="matrix(1.00, 0.00, -0.00, -1.00, 666.5, 366.0)">i</text><text xml:space="preserve" font-family="GillSans-Light" font-size="30.8" fill="#525252" transform="matrix(1.00, 0.00, -0.00, -1.00, 672.3, 366.0)">n</text><text xml:space="preserve" font-family="GillSans-Light" font-size="30.8" fill="#525252" transform="matrix(1.00, 0.00, -0.00, -1.00, 687.4, 366.0)">e</text><text xml:space="preserve" font-family="GillSans-Light" font-size="30.8" fill="#525252" transform="matrix(1.00, 0.00, -0.00, -1.00, 702.1, 366.0)"> </text><text xml:space="preserve" font-family="GillSans-Light" font-size="30.8" fill="#525252" transform="matrix(1.00, 0.00, -0.00, -1.00, 710.7, 366.0)">t</text><text xml:space="preserve" font-family="GillSans-Light" font-size="30.8" fill="#525252" transform="matrix(1.00, 0.00, -0.00, -1.00, 720.0, 366.0)">h</text><text xml:space="preserve" font-family="GillSans-Light" font-size="30.8" fill="#525252" transform="matrix(1.00, 0.00, -0.00, -1.00, 735.1, 366.0)">e</text><text xml:space="preserve" font-family="GillSans-Light" font-size="30.8" fill="#525252" transform="matrix(1.00, 0.00, -0.00, -1.00, 749.9, 366.0)"> </text><text xml:space="preserve" font-family="GillSans-Light" font-size="30.8" fill="#525252" transform="matrix(1.00, 0.00, -0.00, -1.00, 756.6, 366.0)">A</text><text xml:space="preserve" font-family="GillSans-Light" font-size="30.8" fill="#525252" transform="matrix(1.00, 0.00, -0.00, -1.00, 775.6, 366.0)">C</text><text xml:space="preserve" font-family="GillSans-Light" font-size="30.8" fill="#525252" transform="matrix(1.00, 0.00, -0.00, -1.00, 796.5, 366.0)"> </text><text xml:space="preserve" font-family="GillSans-Light" font-size="30.8" fill="#525252" transform="matrix(1.00, 0.00, -0.00, -1.00, 805.0, 366.0)">c</text><text xml:space="preserve" font-family="GillSans-Light" font-size="30.8" fill="#525252" transform="matrix(1.00, 0.00, -0.00, -1.00, 817.9, 366.0)">o</text><text xml:space="preserve" font-family="GillSans-Light" font-size="30.8" fill="#525252" transform="matrix(1.00, 0.00, -0.00, -1.00, 834.6, 366.0)">n</text><text xml:space="preserve" font-family="GillSans-Light" font-size="30.8" fill="#525252" transform="matrix(1.00, 0.00, -0.00, -1.00, 849.7, 366.0)">t</text><text xml:space="preserve" font-family="GillSans-Light" font-size="30.8" fill="#525252" transform="matrix(1.00, 0.00, -0.00, -1.00, 859.0, 366.0)">e</text><text xml:space="preserve" font-family="GillSans-Light" font-size="30.8" fill="#525252" transform="matrix(1.00, 0.00, -0.00, -1.00, 873.7, 366.0)">x</text><text xml:space="preserve" font-family="GillSans-Light" font-size="30.8" fill="#525252" transform="matrix(1.00, 0.00, -0.00, -1.00, 888.5, 366.0)">t</text><text xml:space="preserve" font-family="GillSans-Light" font-size="25.3" fill="#525252" transform="matrix(1.00, 0.00, -0.00, -1.00, 73.0, 293.6)">•</text><text xml:space="preserve" font-family="GillSans-Light" font-size="30.8" fill="#525252" transform="matrix(1.00, 0.00, -0.00, -1.00, 100.0, 292.0)">C</text><text xml:space="preserve" font-family="GillSans-Light" font-size="30.8" fill="#525252" transform="matrix(1.00, 0.00, -0.00, -1.00, 120.9, 292.0)">o</text><text xml:space="preserve" font-family="GillSans-Light" font-size="30.8" fill="#525252" transform="matrix(1.00, 0.00, -0.00, -1.00, 137.6, 292.0)">n</text><text xml:space="preserve" font-family="GillSans-Light" font-size="30.8" fill="#525252" transform="matrix(1.00, 0.00, -0.00, -1.00, 152.7, 292.0)">t</text><text xml:space="preserve" font-family="GillSans-Light" font-size="30.8" fill="#525252" transform="matrix(1.00, 0.00, -0.00, -1.00, 162.0, 292.0)">e</text><text xml:space="preserve" font-family="GillSans-Light" font-size="30.8" fill="#525252" transform="matrix(1.00, 0.00, -0.00, -1.00, 176.7, 292.0)">x</text><text xml:space="preserve" font-family="GillSans-Light" font-size="30.8" fill="#525252" transform="matrix(1.00, 0.00, -0.00, -1.00, 191.5, 292.0)">t</text><text xml:space="preserve" font-family="GillSans-Light" font-size="30.8" fill="#525252" transform="matrix(1.00, 0.00, -0.00, -1.00, 200.8, 292.0)"> </text><text xml:space="preserve" font-family="GillSans-Light" font-size="30.8" fill="#525252" transform="matrix(1.00, 0.00, -0.00, -1.00, 209.3, 292.0)">a</text><text xml:space="preserve" font-family="GillSans-Light" font-size="30.8" fill="#525252" transform="matrix(1.00, 0.00, -0.00, -1.00, 222.5, 292.0)">r</text><text xml:space="preserve" font-family="GillSans-Light" font-size="30.8" fill="#525252" transform="matrix(1.00, 0.00, -0.00, -1.00, 232.8, 292.0)">e</text><text xml:space="preserve" font-family="GillSans-Light" font-size="30.8" fill="#525252" transform="matrix(1.00, 0.00, -0.00, -1.00, 247.5, 292.0)"> </text><text xml:space="preserve" font-family="GillSans-Light" font-size="30.8" fill="#525252" transform="matrix(1.00, 0.00, -0.00, -1.00, 256.1, 292.0)">o</text><text xml:space="preserve" font-family="GillSans-Light" font-size="30.8" fill="#525252" transform="matrix(1.00, 0.00, -0.00, -1.00, 272.8, 292.0)">r</text><text xml:space="preserve" font-family="GillSans-Light" font-size="30.8" fill="#525252" transform="matrix(1.00, 0.00, -0.00, -1.00, 283.8, 292.0)">g</text><text xml:space="preserve" font-family="GillSans-Light" font-size="30.8" fill="#525252" transform="matrix(1.00, 0.00, -0.00, -1.00, 297.0, 292.0)">a</text><text xml:space="preserve" font-family="GillSans-Light" font-size="30.8" fill="#525252" transform="matrix(1.00, 0.00, -0.00, -1.00, 310.1, 292.0)">n</text><text xml:space="preserve" font-family="GillSans-Light" font-size="30.8" fill="#525252" transform="matrix(1.00, 0.00, -0.00, -1.00, 325.2, 292.0)">i</text><text xml:space="preserve" font-family="GillSans-Light" font-size="30.8" fill="#525252" transform="matrix(1.00, 0.00, -0.00, -1.00, 331.0, 292.0)">z</text><text xml:space="preserve" font-family="GillSans-Light" font-size="30.8" fill="#525252" transform="matrix(1.00, 0.00, -0.00, -1.00, 342.7, 292.0)">e</text><text xml:space="preserve" font-family="GillSans-Light" font-size="30.8" fill="#525252" transform="matrix(1.00, 0.00, -0.00, -1.00, 357.5, 292.0)">d</text><text xml:space="preserve" font-family="GillSans-Light" font-size="30.8" fill="#525252" transform="matrix(1.00, 0.00, -0.00, -1.00, 373.2, 292.0)"> </text><text xml:space="preserve" font-family="GillSans-Light" font-size="30.8" fill="#525252" transform="matrix(1.00, 0.00, -0.00, -1.00, 381.8, 292.0)">i</text><text xml:space="preserve" font-family="GillSans-Light" font-size="30.8" fill="#525252" transform="matrix(1.00, 0.00, -0.00, -1.00, 387.6, 292.0)">n</text><text xml:space="preserve" font-family="GillSans-Light" font-size="30.8" fill="#525252" transform="matrix(1.00, 0.00, -0.00, -1.00, 402.7, 292.0)"> </text><text xml:space="preserve" font-family="GillSans-Light" font-size="30.8" fill="#525252" transform="matrix(1.00, 0.00, -0.00, -1.00, 411.2, 292.0)">a</text><text xml:space="preserve" font-family="GillSans-Light" font-size="30.8" fill="#525252" transform="matrix(1.00, 0.00, -0.00, -1.00, 424.4, 292.0)">n</text><text xml:space="preserve" font-family="GillSans-Light" font-size="30.8" fill="#525252" transform="matrix(1.00, 0.00, -0.00, -1.00, 439.5, 292.0)"> </text><text xml:space="preserve" font-family="GillSans-Light" font-size="30.8" fill="#525252" transform="matrix(1.00, 0.00, -0.00, -1.00, 448.1, 292.0)">a</text><text xml:space="preserve" font-family="GillSans-Light" font-size="30.8" fill="#525252" transform="matrix(1.00, 0.00, -0.00, -1.00, 461.2, 292.0)">r</text><text xml:space="preserve" font-family="GillSans-Light" font-size="30.8" fill="#525252" transform="matrix(1.00, 0.00, -0.00, -1.00, 472.2, 292.0)">r</text><text xml:space="preserve" font-family="GillSans-Light" font-size="30.8" fill="#525252" transform="matrix(1.00, 0.00, -0.00, -1.00, 483.3, 292.0)">a</text><text xml:space="preserve" font-family="GillSans-Light" font-size="30.8" fill="#525252" transform="matrix(1.00, 0.00, -0.00, -1.00, 495.9, 292.0)">y</text><text xml:space="preserve" font-family="GillSans-Light" font-size="30.8" fill="#525252" transform="matrix(1.00, 0.00, -0.00, -1.00, 508.8, 292.0)"> </text><text xml:space="preserve" font-family="GillSans-Light" font-size="30.8" fill="#525252" transform="matrix(1.00, 0.00, -0.00, -1.00, 517.3, 292.0)">(</text><text xml:space="preserve" font-family="GillSans-Light" font-size="30.8" fill="#525252" transform="matrix(1.00, 0.00, -0.00, -1.00, 527.6, 292.0)">i</text><text xml:space="preserve" font-family="GillSans-Light" font-size="30.8" fill="#525252" transform="matrix(1.00, 0.00, -0.00, -1.00, 533.4, 292.0)">.</text><text xml:space="preserve" font-family="GillSans-Light" font-size="30.8" fill="#525252" transform="matrix(1.00, 0.00, -0.00, -1.00, 538.8, 292.0)">e</text><text xml:space="preserve" font-family="GillSans-Light" font-size="30.8" fill="#525252" transform="matrix(1.00, 0.00, -0.00, -1.00, 554.5, 292.0)">.</text><text xml:space="preserve" font-family="GillSans-Light" font-size="30.8" fill="#525252" transform="matrix(1.00, 0.00, -0.00, -1.00, 557.5, 292.0)"> </text><text xml:space="preserve" font-family="Monaco" font-size="24.1" fill="#525252" transform="matrix(1.00, 0.00, -0.00, -1.00, 566.2, 292.0)">c</text><text xml:space="preserve" font-family="Monaco" font-size="24.1" fill="#525252" transform="matrix(1.00, 0.00, -0.00, -1.00, 580.6, 292.0)">o</text><text xml:space="preserve" font-family="Monaco" font-size="24.1" fill="#525252" transform="matrix(1.00, 0.00, -0.00, -1.00, 595.1, 292.0)">n</text><text xml:space="preserve" font-family="Monaco" font-size="24.1" fill="#525252" transform="matrix(1.00, 0.00, -0.00, -1.00, 609.6, 292.0)">t</text><text xml:space="preserve" font-family="Monaco" font-size="24.1" fill="#525252" transform="matrix(1.00, 0.00, -0.00, -1.00, 624.1, 292.0)">e</text><text xml:space="preserve" font-family="Monaco" font-size="24.1" fill="#525252" transform="matrix(1.00, 0.00, -0.00, -1.00, 638.5, 292.0)">x</text><text xml:space="preserve" font-family="Monaco" font-size="24.1" fill="#525252" transform="matrix(1.00, 0.00, -0.00, -1.00, 653.0, 292.0)">t</text><text xml:space="preserve" font-family="Monaco" font-size="24.1" fill="#525252" transform="matrix(1.00, 0.00, -0.00, -1.00, 667.5, 292.0)">[</text><text xml:space="preserve" font-family="Monaco" font-size="24.1" fill="#525252" transform="matrix(1.00, 0.00, -0.00, -1.00, 682.0, 292.0)">1</text><text xml:space="preserve" font-family="Monaco" font-size="24.1" fill="#525252" transform="matrix(1.00, 0.00, -0.00, -1.00, 696.4, 292.0)">1</text><text xml:space="preserve" font-family="Monaco" font-size="24.1" fill="#525252" transform="matrix(1.00, 0.00, -0.00, -1.00, 710.9, 292.0)">]</text><text xml:space="preserve" font-family="Monaco" font-size="24.1" fill="#525252" transform="matrix(1.00, 0.00, -0.00, -1.00, 725.4, 292.0)">[</text><text xml:space="preserve" font-family="Monaco" font-size="24.1" fill="#525252" transform="matrix(1.00, 0.00, -0.00, -1.00, 739.9, 292.0)">1</text><text xml:space="preserve" font-family="Monaco" font-size="24.1" fill="#525252" transform="matrix(1.00, 0.00, -0.00, -1.00, 754.4, 292.0)">1</text><text xml:space="preserve" font-family="Monaco" font-size="24.1" fill="#525252" transform="matrix(1.00, 0.00, -0.00, -1.00, 768.8, 292.0)">]</text><text xml:space="preserve" font-family="Monaco" font-size="24.1" fill="#525252" transform="matrix(1.00, 0.00, -0.00, -1.00, 783.3, 292.0)">[</text><text xml:space="preserve" font-family="Monaco" font-size="24.1" fill="#525252" transform="matrix(1.00, 0.00, -0.00, -1.00, 797.8, 292.0)">5</text><text xml:space="preserve" font-family="Monaco" font-size="24.1" fill="#525252" transform="matrix(1.00, 0.00, -0.00, -1.00, 812.3, 292.0)">]</text><text xml:space="preserve" font-family="Monaco" font-size="24.1" fill="#525252" transform="matrix(1.00, 0.00, -0.00, -1.00, 826.7, 292.0)">[</text><text xml:space="preserve" font-family="Monaco" font-size="24.1" fill="#525252" transform="matrix(1.00, 0.00, -0.00, -1.00, 841.2, 292.0)">5</text><text xml:space="preserve" font-family="Monaco" font-size="24.1" fill="#525252" transform="matrix(1.00, 0.00, -0.00, -1.00, 855.7, 292.0)">]</text><text xml:space="preserve" font-family="Monaco" font-size="24.1" fill="#525252" transform="matrix(1.00, 0.00, -0.00, -1.00, 870.2, 292.0)">[</text><text xml:space="preserve" font-family="Monaco" font-size="24.1" fill="#525252" transform="matrix(1.00, 0.00, -0.00, -1.00, 884.6, 292.0)">5</text><text xml:space="preserve" font-family="Monaco" font-size="24.1" fill="#525252" transform="matrix(1.00, 0.00, -0.00, -1.00, 899.1, 292.0)">]</text><text xml:space="preserve" font-family="GillSans-Light" font-size="30.8" fill="#525252" transform="matrix(1.00, 0.00, -0.00, -1.00, 913.5, 292.0)">)</text><text xml:space="preserve" font-family="GillSans-Light" font-size="25.3" fill="#525252" transform="matrix(1.00, 0.00, -0.00, -1.00, 73.0, 217.8)">•</text><text xml:space="preserve" font-family="GillSans-SemiBold" font-weight="bold" font-size="30.8" fill="#525252" transform="matrix(1.00, 0.00, -0.00, -1.00, 100.0, 215.0)">F</text><text xml:space="preserve" font-family="GillSans-SemiBold" font-weight="bold" font-size="30.8" fill="#525252" transform="matrix(1.00, 0.00, -0.00, -1.00, 116.5, 215.0)">i</text><text xml:space="preserve" font-family="GillSans-SemiBold" font-weight="bold" font-size="30.8" fill="#525252" transform="matrix(1.00, 0.00, -0.00, -1.00, 124.2, 215.0)">x</text><text xml:space="preserve" font-family="GillSans-SemiBold" font-weight="bold" font-size="30.8" fill="#525252" transform="matrix(1.00, 0.00, -0.00, -1.00, 140.5, 215.0)">e</text><text xml:space="preserve" font-family="GillSans-SemiBold" font-weight="bold" font-size="30.8" fill="#525252" transform="matrix(1.00, 0.00, -0.00, -1.00, 156.4, 215.0)">d</text><text xml:space="preserve" font-family="GillSans-Light" font-size="30.8" fill="#525252" transform="matrix(1.00, 0.00, -0.00, -1.00, 173.3, 215.0)"> </text><text xml:space="preserve" font-family="GillSans-Light" font-size="30.8" fill="#525252" transform="matrix(1.00, 0.00, -0.00, -1.00, 181.8, 215.0)">n</text><text xml:space="preserve" font-family="GillSans-Light" font-size="30.8" fill="#525252" transform="matrix(1.00, 0.00, -0.00, -1.00, 196.6, 215.0)">u</text><text xml:space="preserve" font-family="GillSans-Light" font-size="30.8" fill="#525252" transform="matrix(1.00, 0.00, -0.00, -1.00, 211.7, 215.0)">m</text><text xml:space="preserve" font-family="GillSans-Light" font-size="30.8" fill="#525252" transform="matrix(1.00, 0.00, -0.00, -1.00, 235.5, 215.0)">b</text><text xml:space="preserve" font-family="GillSans-Light" font-size="30.8" fill="#525252" transform="matrix(1.00, 0.00, -0.00, -1.00, 251.2, 215.0)">e</text><text xml:space="preserve" font-family="GillSans-Light" font-size="30.8" fill="#525252" transform="matrix(1.00, 0.00, -0.00, -1.00, 266.0, 215.0)">r</text><text xml:space="preserve" font-family="GillSans-Light" font-size="30.8" fill="#525252" transform="matrix(1.00, 0.00, -0.00, -1.00, 276.2, 215.0)"> </text><text xml:space="preserve" font-family="GillSans-Light" font-size="30.8" fill="#525252" transform="matrix(1.00, 0.00, -0.00, -1.00, 284.8, 215.0)">o</text><text xml:space="preserve" font-family="GillSans-Light" font-size="30.8" fill="#525252" transform="matrix(1.00, 0.00, -0.00, -1.00, 301.5, 215.0)">f</text><text xml:space="preserve" font-family="GillSans-Light" font-size="30.8" fill="#525252" transform="matrix(1.00, 0.00, -0.00, -1.00, 308.9, 215.0)"> </text><text xml:space="preserve" font-family="GillSans-Light" font-size="30.8" fill="#525252" transform="matrix(1.00, 0.00, -0.00, -1.00, 317.5, 215.0)">c</text><text xml:space="preserve" font-family="GillSans-Light" font-size="30.8" fill="#525252" transform="matrix(1.00, 0.00, -0.00, -1.00, 330.3, 215.0)">o</text><text xml:space="preserve" font-family="GillSans-Light" font-size="30.8" fill="#525252" transform="matrix(1.00, 0.00, -0.00, -1.00, 347.0, 215.0)">n</text><text xml:space="preserve" font-family="GillSans-Light" font-size="30.8" fill="#525252" transform="matrix(1.00, 0.00, -0.00, -1.00, 362.1, 215.0)">t</text><text xml:space="preserve" font-family="GillSans-Light" font-size="30.8" fill="#525252" transform="matrix(1.00, 0.00, -0.00, -1.00, 371.4, 215.0)">e</text><text xml:space="preserve" font-family="GillSans-Light" font-size="30.8" fill="#525252" transform="matrix(1.00, 0.00, -0.00, -1.00, 386.2, 215.0)">x</text><text xml:space="preserve" font-family="GillSans-Light" font-size="30.8" fill="#525252" transform="matrix(1.00, 0.00, -0.00, -1.00, 401.0, 215.0)">t</text><text xml:space="preserve" font-family="GillSans-Light" font-size="30.8" fill="#525252" transform="matrix(1.00, 0.00, -0.00, -1.00, 410.3, 215.0)">s</text><text xml:space="preserve" font-family="GillSans-Light" font-size="25.3" fill="#525252" transform="matrix(1.00, 0.00, -0.00, -1.00, 114.0, 143.6)">•</text><text xml:space="preserve" font-family="GillSans-Light" font-size="30.8" fill="#525252" transform="matrix(1.00, 0.00, -0.00, -1.00, 141.0, 142.0)">6</text><text xml:space="preserve" font-family="GillSans-Light" font-size="30.8" fill="#525252" transform="matrix(1.00, 0.00, -0.00, -1.00, 156.4, 142.0)">6</text><text xml:space="preserve" font-family="GillSans-Light" font-size="30.8" fill="#525252" transform="matrix(1.00, 0.00, -0.00, -1.00, 171.8, 142.0)">6</text><text xml:space="preserve" font-family="GillSans-Light" font-size="30.8" fill="#525252" transform="matrix(1.00, 0.00, -0.00, -1.00, 187.2, 142.0)"> </text><text xml:space="preserve" font-family="GillSans-Light" font-size="30.8" fill="#525252" transform="matrix(1.00, 0.00, -0.00, -1.00, 195.8, 142.0)">i</text><text xml:space="preserve" font-family="GillSans-Light" font-size="30.8" fill="#525252" transform="matrix(1.00, 0.00, -0.00, -1.00, 201.6, 142.0)">n</text><text xml:space="preserve" font-family="GillSans-Light" font-size="30.8" fill="#525252" transform="matrix(1.00, 0.00, -0.00, -1.00, 216.7, 142.0)"> </text><text xml:space="preserve" font-family="GillSans-Light" font-size="30.8" fill="#525252" transform="matrix(1.00, 0.00, -0.00, -1.00, 225.3, 142.0)">t</text><text xml:space="preserve" font-family="GillSans-Light" font-size="30.8" fill="#525252" transform="matrix(1.00, 0.00, -0.00, -1.00, 234.5, 142.0)">h</text><text xml:space="preserve" font-family="GillSans-Light" font-size="30.8" fill="#525252" transform="matrix(1.00, 0.00, -0.00, -1.00, 249.7, 142.0)">e</text><text xml:space="preserve" font-family="GillSans-Light" font-size="30.8" fill="#525252" transform="matrix(1.00, 0.00, -0.00, -1.00, 264.4, 142.0)"> </text><text xml:space="preserve" font-family="GillSans-Light" font-size="30.8" fill="#525252" transform="matrix(1.00, 0.00, -0.00, -1.00, 269.9, 142.0)">“</text><text xml:space="preserve" font-family="GillSans-Light" font-size="30.8" fill="#525252" transform="matrix(1.00, 0.00, -0.00, -1.00, 282.1, 142.0)">s</text><text xml:space="preserve" font-family="GillSans-Light" font-size="30.8" fill="#525252" transform="matrix(1.00, 0.00, -0.00, -1.00, 293.0, 142.0)">m</text><text xml:space="preserve" font-family="GillSans-Light" font-size="30.8" fill="#525252" transform="matrix(1.00, 0.00, -0.00, -1.00, 316.8, 142.0)">a</text><text xml:space="preserve" font-family="GillSans-Light" font-size="30.8" fill="#525252" transform="matrix(1.00, 0.00, -0.00, -1.00, 329.9, 142.0)">l</text><text xml:space="preserve" font-family="GillSans-Light" font-size="30.8" fill="#525252" transform="matrix(1.00, 0.00, -0.00, -1.00, 335.7, 142.0)">l</text><text xml:space="preserve" font-family="GillSans-Light" font-size="30.8" fill="#525252" transform="matrix(1.00, 0.00, -0.00, -1.00, 341.5, 142.0)"> </text><text xml:space="preserve" font-family="GillSans-Light" font-size="30.8" fill="#525252" transform="matrix(1.00, 0.00, -0.00, -1.00, 350.1, 142.0)">m</text><text xml:space="preserve" font-family="GillSans-Light" font-size="30.8" fill="#525252" transform="matrix(1.00, 0.00, -0.00, -1.00, 373.8, 142.0)">o</text><text xml:space="preserve" font-family="GillSans-Light" font-size="30.8" fill="#525252" transform="matrix(1.00, 0.00, -0.00, -1.00, 390.5, 142.0)">d</text><text xml:space="preserve" font-family="GillSans-Light" font-size="30.8" fill="#525252" transform="matrix(1.00, 0.00, -0.00, -1.00, 406.2, 142.0)">e</text><text xml:space="preserve" font-family="GillSans-Light" font-size="30.8" fill="#525252" transform="matrix(1.00, 0.00, -0.00, -1.00, 421.0, 142.0)">l</text><text xml:space="preserve" font-family="GillSans-Light" font-size="30.8" fill="#525252" transform="matrix(1.00, 0.00, -0.00, -1.00, 426.8, 142.0)">”</text><text xml:space="preserve" font-family="GillSans-Light" font-size="25.3" fill="#525252" transform="matrix(1.00, 0.00, -0.00, -1.00, 114.0, 70.8)">•</text><text xml:space="preserve" font-family="GillSans-Light" font-size="30.8" fill="#525252" transform="matrix(1.00, 0.00, -0.00, -1.00, 141.0, 69.0)">7</text><text xml:space="preserve" font-family="GillSans-Light" font-size="30.8" fill="#525252" transform="matrix(1.00, 0.00, -0.00, -1.00, 156.4, 69.0)">5</text><text xml:space="preserve" font-family="GillSans-Light" font-size="30.8" fill="#525252" transform="matrix(1.00, 0.00, -0.00, -1.00, 171.8, 69.0)">6</text><text xml:space="preserve" font-family="GillSans-Light" font-size="30.8" fill="#525252" transform="matrix(1.00, 0.00, -0.00, -1.00, 187.2, 69.0)">3</text><text xml:space="preserve" font-family="GillSans-Light" font-size="30.8" fill="#525252" transform="matrix(1.00, 0.00, -0.00, -1.00, 202.6, 69.0)"> </text><text xml:space="preserve" font-family="GillSans-Light" font-size="30.8" fill="#525252" transform="matrix(1.00, 0.00, -0.00, -1.00, 211.2, 69.0)">i</text><text xml:space="preserve" font-family="GillSans-Light" font-size="30.8" fill="#525252" transform="matrix(1.00, 0.00, -0.00, -1.00, 217.0, 69.0)">n</text><text xml:space="preserve" font-family="GillSans-Light" font-size="30.8" fill="#525252" transform="matrix(1.00, 0.00, -0.00, -1.00, 232.1, 69.0)"> </text><text xml:space="preserve" font-family="GillSans-Light" font-size="30.8" fill="#525252" transform="matrix(1.00, 0.00, -0.00, -1.00, 240.7, 69.0)">t</text><text xml:space="preserve" font-family="GillSans-Light" font-size="30.8" fill="#525252" transform="matrix(1.00, 0.00, -0.00, -1.00, 250.0, 69.0)">h</text><text xml:space="preserve" font-family="GillSans-Light" font-size="30.8" fill="#525252" transform="matrix(1.00, 0.00, -0.00, -1.00, 265.1, 69.0)">e</text><text xml:space="preserve" font-family="GillSans-Light" font-size="30.8" fill="#525252" transform="matrix(1.00, 0.00, -0.00, -1.00, 279.8, 69.0)"> </text><text xml:space="preserve" font-family="GillSans-Light" font-size="30.8" fill="#525252" transform="matrix(1.00, 0.00, -0.00, -1.00, 285.3, 69.0)">“</text><text xml:space="preserve" font-family="GillSans-Light" font-size="30.8" fill="#525252" transform="matrix(1.00, 0.00, -0.00, -1.00, 297.5, 69.0)">l</text><text xml:space="preserve" font-family="GillSans-Light" font-size="30.8" fill="#525252" transform="matrix(1.00, 0.00, -0.00, -1.00, 303.3, 69.0)">a</text><text xml:space="preserve" font-family="GillSans-Light" font-size="30.8" fill="#525252" transform="matrix(1.00, 0.00, -0.00, -1.00, 316.5, 69.0)">r</text><text xml:space="preserve" font-family="GillSans-Light" font-size="30.8" fill="#525252" transform="matrix(1.00, 0.00, -0.00, -1.00, 327.5, 69.0)">g</text><text xml:space="preserve" font-family="GillSans-Light" font-size="30.8" fill="#525252" transform="matrix(1.00, 0.00, -0.00, -1.00, 340.6, 69.0)">e</text><text xml:space="preserve" font-family="GillSans-Light" font-size="30.8" fill="#525252" transform="matrix(1.00, 0.00, -0.00, -1.00, 355.4, 69.0)"> </text><text xml:space="preserve" font-family="GillSans-Light" font-size="30.8" fill="#525252" transform="matrix(1.00, 0.00, -0.00, -1.00, 363.9, 69.0)">m</text><text xml:space="preserve" font-family="GillSans-Light" font-size="30.8" fill="#525252" transform="matrix(1.00, 0.00, -0.00, -1.00, 387.7, 69.0)">o</text><text xml:space="preserve" font-family="GillSans-Light" font-size="30.8" fill="#525252" transform="matrix(1.00, 0.00, -0.00, -1.00, 404.4, 69.0)">d</text><text xml:space="preserve" font-family="GillSans-Light" font-size="30.8" fill="#525252" transform="matrix(1.00, 0.00, -0.00, -1.00, 420.1, 69.0)">e</text><text xml:space="preserve" font-family="GillSans-Light" font-size="30.8" fill="#525252" transform="matrix(1.00, 0.00, -0.00, -1.00, 434.9, 69.0)">l</text><text xml:space="preserve" font-family="GillSans-Light" font-size="30.8" fill="#525252" transform="matrix(1.00, 0.00, -0.00, -1.00, 440.7, 69.0)">”</text></g></svg>