<?xml version="1.0" encoding="UTF-8" standalone="no"?><svg xmlns="http://www.w3.org/2000/svg" xmlns:xlink="http://www.w3.org/1999/xlink" clip-rule="evenodd" stroke-miterlimit="4.00" viewBox="0 0 1024 768"><desc>SVG generated by Keynote</desc><defs></defs><g transform="matrix(1.00, 0.00, -0.00, -1.00, 0.0, 768.0)"><g><clipPath id="clip-9"><path d="M 0.0 768.0 L 1024.0 768.0 L 1024.0 0.0 L 0.0 0.0 Z M 0.0 768.0 "></path></clipPath><g clip-path="url(#clip-9)"><image xlink:href="../../293415CD-D1BA-41BB-8703-BAEDA9FFCE27/assets/D3CB8578D364082F6943B53F933CCC32.jpeg" width="1024.00" height="768.00" transform="matrix(1.00, 0.00, -0.00, -1.00, 0.0, 768.0)"></image></g></g><image xlink:href="56746D76B95A092F7B98B9422BB3A45E.png" width="213.00" height="374.00" transform="matrix(1.00, 0.00, -0.00, -1.00, 232.0, 468.0)"></image><image xlink:href="5AE4CF423193F12F7F94CEB6B36477F8.png" width="492.00" height="307.00" transform="matrix(1.00, 0.00, -0.00, -1.00, 219.0, 773.0)"></image><image xlink:href="3B59731D06ED910D5792BD8747AFCB73.png" width="692.00" height="346.00" transform="matrix(1.00, 0.00, -0.00, -1.00, 633.0, 346.0)"></image><image xlink:href="C4C88A06BF37753D495FF582F665B3EA.png" width="750.00" height="134.00" transform="matrix(1.00, 0.00, -0.00, -1.00, -112.0, 119.0)"></image><image xlink:href="91C7EBA96989C4BE0F749DCBD923DAF2.png" width="256.00" height="405.00" transform="matrix(1.00, 0.00, -0.00, -1.00, -1.0, 770.0)"></image><image xlink:href="996CD2CB17301E84D387B1F061F85C8A.png" width="258.00" height="258.00" transform="matrix(1.00, 0.00, -0.00, -1.00, -1.0, 375.0)"></image><image xlink:href="1F57E00CCC852AFB4D2B5D3602CA2C52.jpeg" width="338.00" height="437.00" transform="matrix(1.00, 0.00, -0.00, -1.00, 689.0, 772.0)"></image><image xlink:href="A49758F14F89D3A381E8117E6E2CA66D.png" width="258.00" height="193.00" transform="matrix(1.00, 0.00, -0.00, -1.00, 440.0, 466.0)"></image><image xlink:href="80FEADC1895E10EC4553317C782D722F.png" width="424.00" height="318.00" transform="matrix(1.00, 0.00, -0.00, -1.00, 376.0, 340.0)"></image><g><clipPath id="clip-10"><path d="M 563.0 624.0 L 819.0 624.0 L 819.0 368.0 L 563.0 368.0 Z M 562.7 624.5 "></path></clipPath><g clip-path="url(#clip-10)"><image xlink:href="E4BEEEEB69FECE9571E6372711B9727B.png" width="256.00" height="256.00" transform="matrix(1.00, 0.00, -0.00, -1.00, 563.0, 624.0)"></image></g></g></g></svg>