<?xml version="1.0" encoding="UTF-8" standalone="no"?><svg xmlns="http://www.w3.org/2000/svg" xmlns:xlink="http://www.w3.org/1999/xlink" clip-rule="evenodd" stroke-miterlimit="4.00" viewBox="0 0 204 105"><desc>SVG generated by Keynote</desc><defs></defs><g transform="matrix(1.00, 0.00, -0.00, -1.00, 0.0, 105.0)"><text xml:space="preserve" font-family="GillSans-SemiBold" font-weight="bold" font-size="38.0" fill="#525252" transform="matrix(1.00, 0.00, -0.00, -1.00, 6.0, 77.0)">J</text><text xml:space="preserve" font-family="GillSans-SemiBold" font-weight="bold" font-size="38.0" fill="#525252" transform="matrix(1.00, 0.00, -0.00, -1.00, 17.0, 77.0)">o</text><text xml:space="preserve" font-family="GillSans-SemiBold" font-weight="bold" font-size="38.0" fill="#525252" transform="matrix(1.00, 0.00, -0.00, -1.00, 38.7, 77.0)">n</text><text xml:space="preserve" font-family="GillSans-SemiBold" font-weight="bold" font-size="38.0" fill="#525252" transform="matrix(1.00, 0.00, -0.00, -1.00, 59.3, 77.0)"> </text><text xml:space="preserve" font-family="GillSans-SemiBold" font-weight="bold" font-size="38.0" fill="#525252" transform="matrix(1.00, 0.00, -0.00, -1.00, 69.9, 77.0)">S</text><text xml:space="preserve" font-family="GillSans-SemiBold" font-weight="bold" font-size="38.0" fill="#525252" transform="matrix(1.00, 0.00, -0.00, -1.00, 90.2, 77.0)">n</text><text xml:space="preserve" font-family="GillSans-SemiBold" font-weight="bold" font-size="38.0" fill="#525252" transform="matrix(1.00, 0.00, -0.00, -1.00, 110.7, 77.0)">e</text><text xml:space="preserve" font-family="GillSans-SemiBold" font-weight="bold" font-size="38.0" fill="#525252" transform="matrix(1.00, 0.00, -0.00, -1.00, 130.3, 77.0)">y</text><text xml:space="preserve" font-family="GillSans-SemiBold" font-weight="bold" font-size="38.0" fill="#525252" transform="matrix(1.00, 0.00, -0.00, -1.00, 148.5, 77.0)">e</text><text xml:space="preserve" font-family="GillSans-SemiBold" font-weight="bold" font-size="38.0" fill="#525252" transform="matrix(1.00, 0.00, -0.00, -1.00, 168.1, 77.0)">r</text><text xml:space="preserve" font-family="GillSans-SemiBold" font-weight="bold" font-size="38.0" fill="#525252" transform="matrix(1.00, 0.00, -0.00, -1.00, 184.0, 77.0)">s</text><text xml:space="preserve" font-family="LucidaGrande" font-size="38.0" fill="#525252" transform="matrix(1.00, 0.00, -0.00, -1.00, 199.3, 77.0)"> </text><text xml:space="preserve" font-family="GillSans" font-size="24.0" fill="#525252" transform="matrix(1.00, 0.00, -0.00, -1.00, 2.0, 45.0)">j</text><text xml:space="preserve" font-family="GillSans" font-size="24.0" fill="#525252" transform="matrix(1.00, 0.00, -0.00, -1.00, 7.3, 45.0)">o</text><text xml:space="preserve" font-family="GillSans" font-size="24.0" fill="#525252" transform="matrix(1.00, 0.00, -0.00, -1.00, 20.5, 45.0)">n</text><text xml:space="preserve" font-family="GillSans" font-size="24.0" fill="#525252" transform="matrix(1.00, 0.00, -0.00, -1.00, 32.5, 45.0)">@</text><text xml:space="preserve" font-family="GillSans" font-size="24.0" fill="#525252" transform="matrix(1.00, 0.00, -0.00, -1.00, 56.7, 45.0)">c</text><text xml:space="preserve" font-family="GillSans" font-size="24.0" fill="#525252" transform="matrix(1.00, 0.00, -0.00, -1.00, 67.2, 45.0)">l</text><text xml:space="preserve" font-family="GillSans" font-size="24.0" fill="#525252" transform="matrix(1.00, 0.00, -0.00, -1.00, 72.5, 45.0)">o</text><text xml:space="preserve" font-family="GillSans" font-size="24.0" fill="#525252" transform="matrix(1.00, 0.00, -0.00, -1.00, 85.7, 45.0)">u</text><text xml:space="preserve" font-family="GillSans" font-size="24.0" fill="#525252" transform="matrix(1.00, 0.00, -0.00, -1.00, 97.7, 45.0)">d</text><text xml:space="preserve" font-family="GillSans" font-size="24.0" fill="#525252" transform="matrix(1.00, 0.00, -0.00, -1.00, 110.0, 45.0)">i</text><text xml:space="preserve" font-family="GillSans" font-size="24.0" fill="#525252" transform="matrix(1.00, 0.00, -0.00, -1.00, 115.2, 45.0)">n</text><text xml:space="preserve" font-family="GillSans" font-size="24.0" fill="#525252" transform="matrix(1.00, 0.00, -0.00, -1.00, 127.2, 45.0)">a</text><text xml:space="preserve" font-family="GillSans" font-size="24.0" fill="#525252" transform="matrix(1.00, 0.00, -0.00, -1.00, 137.5, 45.0)">r</text><text xml:space="preserve" font-family="GillSans" font-size="24.0" fill="#525252" transform="matrix(1.00, 0.00, -0.00, -1.00, 147.7, 45.0)">y</text><text xml:space="preserve" font-family="GillSans" font-size="24.0" fill="#525252" transform="matrix(1.00, 0.00, -0.00, -1.00, 156.3, 45.0)">.</text><text xml:space="preserve" font-family="GillSans" font-size="24.0" fill="#525252" transform="matrix(1.00, 0.00, -0.00, -1.00, 161.6, 45.0)">c</text><text xml:space="preserve" font-family="GillSans" font-size="24.0" fill="#525252" transform="matrix(1.00, 0.00, -0.00, -1.00, 172.1, 45.0)">o</text><text xml:space="preserve" font-family="GillSans" font-size="24.0" fill="#525252" transform="matrix(1.00, 0.00, -0.00, -1.00, 185.3, 45.0)">m</text><text xml:space="preserve" font-family="GillSans-Light" font-size="33.0" fill="#525252" transform="matrix(1.00, 0.00, -0.00, -1.00, 31.0, 9.0)">C</text><text xml:space="preserve" font-family="GillSans-Light" font-size="33.0" fill="#525252" transform="matrix(1.00, 0.00, -0.00, -1.00, 53.3, 9.0)">l</text><text xml:space="preserve" font-family="GillSans-Light" font-size="33.0" fill="#525252" transform="matrix(1.00, 0.00, -0.00, -1.00, 59.5, 9.0)">o</text><text xml:space="preserve" font-family="GillSans-Light" font-size="33.0" fill="#525252" transform="matrix(1.00, 0.00, -0.00, -1.00, 77.4, 9.0)">u</text><text xml:space="preserve" font-family="GillSans-Light" font-size="33.0" fill="#525252" transform="matrix(1.00, 0.00, -0.00, -1.00, 93.6, 9.0)">d</text><text xml:space="preserve" font-family="GillSans-Light" font-size="33.0" fill="#525252" transform="matrix(1.00, 0.00, -0.00, -1.00, 110.4, 9.0)">i</text><text xml:space="preserve" font-family="GillSans-Light" font-size="33.0" fill="#525252" transform="matrix(1.00, 0.00, -0.00, -1.00, 116.6, 9.0)">n</text><text xml:space="preserve" font-family="GillSans-Light" font-size="33.0" fill="#525252" transform="matrix(1.00, 0.00, -0.00, -1.00, 132.8, 9.0)">a</text><text xml:space="preserve" font-family="GillSans-Light" font-size="33.0" fill="#525252" transform="matrix(1.00, 0.00, -0.00, -1.00, 146.9, 9.0)">r</text><text xml:space="preserve" font-family="GillSans-Light" font-size="33.0" fill="#525252" transform="matrix(1.00, 0.00, -0.00, -1.00, 160.2, 9.0)">y</text></g></svg>